<svg width="153" height="47" viewBox="0 0 153 47" fill="none" xmlns="http://www.w3.org/2000/svg">
<path fill-rule="evenodd" clip-rule="evenodd" d="M108.163 0.0379827C108.005 0.0496955 106.654 0.0935101 105.163 0.135589C103.672 0.177235 101.394 0.259658 100.102 0.31909C98.8097 0.378088 97.0038 0.458776 96.0893 0.497818C94.4929 0.565926 93.3481 0.629262 90.9196 0.783263C90.3032 0.822306 89.2785 0.886509 88.6422 0.925552C88.0062 0.965028 87.0136 1.03097 86.4371 1.07261C85.8606 1.11382 84.6893 1.19668 83.8343 1.25655C82.1494 1.37454 81.0306 1.46217 79.6771 1.58277C79.1999 1.62528 78.4677 1.69035 78.0503 1.72723C76.6413 1.85216 75.5438 1.95975 73.6398 2.15973C72.5367 2.27556 70.873 2.44388 70.0609 2.52196C66.9089 2.82476 64.6097 3.07376 63.4814 3.23471C63.2033 3.27418 62.6662 3.34272 62.2884 3.3861C61.3045 3.49976 60.4543 3.60041 59.8305 3.67676C59.532 3.7132 58.9789 3.7787 58.601 3.82208C58.2232 3.86589 57.6866 3.93227 57.4081 3.97044C55.3826 4.24721 53.1329 4.55608 52.7087 4.61551C52.4301 4.65412 51.9261 4.72093 51.5881 4.76344C51.2498 4.80595 50.7925 4.87189 50.5713 4.91007C50.3505 4.94824 50.0681 4.97991 49.9444 4.97991C49.8204 4.97991 49.5623 5.01071 49.3701 5.04889C49.1783 5.08663 48.7285 5.15387 48.3706 5.19812C48.0127 5.24193 47.4271 5.32305 47.0692 5.37771C46.7113 5.43237 46.2558 5.49744 46.0571 5.5226C45.858 5.54776 45.484 5.59982 45.2255 5.63843C44.9669 5.67704 44.544 5.73821 44.2854 5.77508C43.6378 5.86661 42.8855 5.97767 42.3697 6.05835C41.7958 6.14729 38.9808 6.54856 38.2486 6.6453C37.9302 6.68738 37.4747 6.75114 37.2361 6.78715C36.9975 6.82316 36.5259 6.88823 36.188 6.93117C35.8501 6.97456 35.3941 7.03919 35.1755 7.0752C34.733 7.14764 34.1035 7.23094 32.3922 7.44393C31.7558 7.52289 30.9749 7.62136 30.657 7.66257C29.585 7.80139 28.9968 7.87601 28.4515 7.94238C28.1535 7.97882 27.763 8.02784 27.5839 8.0517C27.0464 8.12284 26.2404 8.22479 24.981 8.38139C22.8163 8.65035 21.8468 8.77485 21.0225 8.89025C20.7145 8.93319 19.6326 8.9961 18.6188 9.03037C16.5418 9.09978 15.8407 9.17786 14.4612 9.49324C8.643 10.8246 3.20524 15.4273 1.34291 20.597C1.29302 20.7358 1.22274 20.9149 1.18717 20.9943C0.848366 21.7548 0.359467 23.6683 0.0970135 25.2604C-0.0331285 26.0525 -0.0322612 29.3959 0.0991822 30.1767C0.700872 33.7613 1.93765 36.7545 3.58005 38.5999C3.66854 38.6993 3.82558 38.8945 3.92883 39.0338C6.2215 42.1246 10.1067 44.8064 13.6843 45.7669C14.3484 45.9452 14.5007 45.9825 14.9675 46.0801C16.5626 46.4145 16.9261 46.4445 19.3415 46.4427C21.7353 46.441 21.6936 46.444 24.5472 46.0749C25.0045 46.0159 25.6309 45.9365 25.9393 45.8987C26.2473 45.861 26.7679 45.7951 27.0958 45.7526C27.4242 45.71 27.9201 45.6471 28.1986 45.6129C28.4771 45.579 28.9812 45.5161 29.3191 45.4732C29.657 45.4307 30.2427 45.3617 30.6205 45.32C30.9984 45.2784 31.3563 45.2303 31.4161 45.2129C31.4755 45.1955 31.8334 45.1474 32.2113 45.1062C32.5891 45.0645 33.1422 44.9977 33.4403 44.9578C33.7387 44.9179 34.2103 44.8563 34.4888 44.8216C34.7673 44.7869 35.3854 44.7075 35.8626 44.6455C36.3398 44.5834 37.1532 44.4811 37.6699 44.4177C38.4759 44.3193 40.2007 44.085 42.1706 43.8074C42.4591 43.7666 42.9471 43.6993 43.2551 43.6581C43.5636 43.6169 44.0269 43.5527 44.2854 43.5154C44.544 43.4781 45.032 43.4104 45.3699 43.3649C45.7079 43.3193 46.4887 43.2052 47.1052 43.1111C48.5758 42.8864 49.0963 42.8083 49.708 42.7211C49.9865 42.6812 50.4338 42.6157 50.7023 42.5754C51.2498 42.4925 52.1742 42.3658 53.8292 42.1463C54.4456 42.0643 55.1614 41.9667 55.4199 41.9294C55.6785 41.8921 56.1665 41.8262 56.5045 41.7828C57.389 41.6696 58.054 41.5811 58.6735 41.4943C61.927 41.0392 64.0839 40.7594 65.6869 40.5842C66.7562 40.4675 67.2833 40.4046 68.651 40.2311C70.526 39.9929 71.2808 39.9118 73.6758 39.6897C74.7708 39.5886 75.867 39.481 76.6405 39.399C78.3718 39.216 81.1477 38.944 82.5689 38.8186C83.0461 38.7765 83.7783 38.7106 84.1956 38.6724C84.6134 38.6338 85.4919 38.5683 86.1478 38.5266C86.8041 38.4846 87.7802 38.4195 88.3168 38.3817C88.8539 38.344 89.8134 38.2798 90.4498 38.2394C91.0862 38.1987 92.3061 38.118 93.1611 38.0599C95.6022 37.8941 97.0905 37.8143 99.2344 37.7332C100.328 37.692 101.922 37.6265 102.777 37.5874C107.09 37.3905 109.276 37.3597 121.214 37.3267C135.946 37.2859 135.813 37.2907 138.156 36.6856C144.181 35.1308 149.316 30.306 151.162 24.4648C151.372 23.8028 151.573 23.0029 151.721 22.2511C152.273 19.4287 152.172 16.3535 151.44 13.7823C151.398 13.6335 151.334 13.4057 151.299 13.2765C151.108 12.5854 150.8 11.7642 150.431 10.9608C150.308 10.6914 150.207 10.4563 150.207 10.4385C150.207 10.3587 149.07 8.43865 148.773 8.01656C147.75 6.56417 146.362 5.08576 145.031 4.03031C144.476 3.58999 143.162 2.66599 143.091 2.66599C143.066 2.66599 142.919 2.58573 142.763 2.48769C141.873 1.92548 139.947 1.07955 138.892 0.7863C135.864 -0.0539842 136.885 -0.00800052 121.575 0.00501369C114.358 0.011087 108.323 0.0258361 108.163 0.0379827Z" fill="#BCE4B4"/>
</svg>
