<svg width="263" height="107" viewBox="0 0 263 107" fill="none" xmlns="http://www.w3.org/2000/svg">
<path fill-rule="evenodd" clip-rule="evenodd" d="M165.088 1.27822C162.27 1.73734 158.82 4.48839 157.791 7.09867C157.194 8.61311 157.261 13.9214 157.941 19.0535C158.16 20.6991 159.084 22.812 159.732 23.1466C159.941 23.2549 160.22 23.5563 160.354 23.8164C160.782 24.6566 162.233 24.9757 163.066 24.4126C164.595 23.3765 164.762 21.9755 163.786 18.3659C163.658 17.8943 163.553 17.447 163.553 17.3711C163.553 17.2296 164.566 16.7321 166.043 16.147C166.797 15.8478 167.73 15.0637 167.73 14.7269C167.73 14.6768 168.393 14.1049 169.204 13.4556C170.578 12.3546 170.745 12.1534 170.683 11.6693C170.599 11.0252 170.338 10.9824 168.191 11.2625C167.093 11.4062 165.888 11.5174 165.514 11.5101C164.91 11.499 164.702 11.5698 163.685 12.1357C162.407 12.8476 162.348 12.8646 162.243 12.5602C161.816 11.3303 160.665 8.49446 160.532 8.34338C159.926 7.66023 161.622 6.11116 164.598 4.63062C165.206 4.32773 166.083 3.88114 166.547 3.63721C167.171 3.30926 167.542 3.1943 167.974 3.1943C168.977 3.1943 169.487 2.54799 169.013 1.8722C168.618 1.30917 166.694 1.01734 165.088 1.27822ZM251.128 1.18758C245.816 2.01149 243.391 3.26283 243.39 5.18038C243.39 6.07799 243.127 5.92765 242.332 4.57756C240.767 1.91863 239.072 0.970912 237.129 1.66954C235.345 2.31143 234.237 4.52818 232.509 10.9102C232.204 12.037 231.731 13.6774 231.458 14.5559C230.407 17.9378 230.83 19.6534 232.716 19.6534C233.465 19.6534 233.853 19.3262 234.097 18.4861C234.348 17.6209 235.08 16.3828 235.295 16.4594C235.836 16.6503 237.671 16.4668 239.495 16.0386C240.561 15.7881 241.508 15.6009 241.6 15.6223C241.92 15.6974 243.398 17.7336 244.081 19.0388C244.656 20.1398 246.038 20.6792 247.109 20.2208C248.542 19.6084 248.86 17.758 247.93 15.452C247.251 13.7651 247.189 13.2581 247.629 12.9692C248.073 12.6781 248.061 12.6538 248.675 15.1631C249.259 17.5501 249.486 18.2606 249.778 18.6091C249.89 18.744 250.051 19.0277 250.134 19.2392C251.216 21.9844 254.991 20.1 254.965 16.8279C254.955 15.7247 252.833 7.2608 252.268 6.07652C251.983 5.47959 252.1 5.41695 253.652 5.33515C254.392 5.29609 255.328 5.18923 255.734 5.09858C256.139 5.0072 257.051 4.86865 257.759 4.79054C258.467 4.71168 259.226 4.5724 259.446 4.48028C259.666 4.3889 260.275 4.19508 260.799 4.0499C263.911 3.18914 262.213 1.80072 257.638 1.46393C256.793 1.40203 255.902 1.29591 255.658 1.22885C255.242 1.11388 251.803 1.08293 251.128 1.18758ZM116.02 1.62533C115.716 1.77272 115.357 1.91053 115.222 1.9319C115.086 1.95327 114.396 2.04834 113.686 2.14267C109.789 2.66148 109.178 2.87962 108.009 4.17223C107.272 4.9873 107.191 5.02341 106.88 4.67926C106.762 4.55029 106.533 4.41101 106.37 4.37047C106.205 4.3292 105.939 4.08601 105.778 3.83029C105.454 3.31811 104.755 3.09039 103.184 2.98574C101.164 2.85088 100.114 4.49723 100.114 7.80025C100.114 10.9198 100.845 12.2898 104.063 15.2022C105.954 16.9149 107.088 18.4183 107.54 19.8133C107.783 20.5628 107.642 20.8296 106.775 21.2622C103.617 22.837 102.857 24.3913 104.715 25.4761C105.925 26.1828 109.717 25.1334 111.106 23.7074C113.321 21.4331 111.463 16.4941 106.938 12.6251C104.331 10.3958 103.619 9.03538 104.225 7.44136L104.344 7.12741L104.795 7.43325C105.55 7.94617 106.462 7.84373 107.191 7.16426L107.512 6.86506L107.757 7.27996C108.194 8.01986 109.244 8.31464 110.019 7.91448C110.76 7.53053 110.857 7.82457 112.471 15.4049C113.517 20.3196 114.067 21.2496 115.923 21.2496C117.924 21.2496 118.407 19.1803 117.327 15.2317C117.095 14.3871 116.648 12.729 116.331 11.5469C116.015 10.3648 115.594 8.90789 115.396 8.31022C114.951 6.96381 114.946 7.0434 115.498 6.81421C118.638 5.51128 120.019 2.00191 117.596 1.48162C116.775 1.30623 116.657 1.31654 116.02 1.62533ZM175.156 2.70349C173.094 3.01522 171.727 3.35864 170.263 3.93125C169.571 4.20171 168.882 4.4228 168.732 4.4228C167.612 4.4228 166.755 5.60487 167.106 6.66682C167.469 7.76561 168.545 8.09208 170.487 7.69044C171.011 7.58211 171.577 7.49368 171.743 7.49368H172.046L171.963 8.87546C171.764 12.1822 172.739 17.8523 174.383 22.9373C174.784 24.1783 174.745 24.1304 175.713 24.5438C177.335 25.2365 178.17 25.2085 178.943 24.4355L179.419 23.9601L179.383 22.9188C179.354 22.0979 179.389 21.8311 179.545 21.6564C179.729 21.4508 179.718 21.3565 179.392 20.3867C179.177 19.7485 179.009 18.9334 178.962 18.2989C178.729 15.1757 177.275 8.33159 176.558 6.97634C176.431 6.73609 176.635 6.59165 177.278 6.47005C178.297 6.27697 181.805 4.97109 182.069 4.68589C182.835 3.85903 182.016 2.6239 180.808 2.78382C180.539 2.81919 179.525 2.76023 178.553 2.65264C177.581 2.54578 176.752 2.4625 176.711 2.4684C176.669 2.47429 175.969 2.58042 175.156 2.70349ZM221.076 3.17808C219.733 3.82513 219.646 5.05216 220.905 5.55549L221.327 5.72426L221.342 6.76262C221.35 7.33302 221.403 8.20115 221.459 8.69123L221.563 9.58146L220.409 9.58294C219.417 9.58441 218.027 9.7915 216.711 10.1334C216.416 10.2093 216.371 10.1799 216.305 9.86961C216.265 9.67727 215.985 8.7465 215.683 7.80025C215.382 6.85474 215.136 5.99693 215.137 5.89523C215.142 5.62624 214.677 4.78612 214.306 4.39185C213.447 3.47876 212.186 4.3631 211.897 6.08094C211.852 6.3514 211.67 7.19521 211.494 7.95722L211.174 9.34122L211.38 11.3958C211.655 14.1366 212.236 17.643 212.617 18.8545C212.787 19.3955 212.926 19.9216 212.927 20.0248C212.928 20.128 213.016 20.3373 213.123 20.4898L213.317 20.7662L213.752 20.4979L214.186 20.2297L214.1 20.8502C213.824 22.8584 215.939 23.3676 217.489 21.6653C218.176 20.9121 218.218 18.3534 217.587 15.7151C217.28 14.4299 217.256 14.449 219.014 14.6126C219.812 14.6871 220.786 14.7114 221.179 14.6664C222.021 14.5714 222.264 14.7084 222.263 15.2774C222.262 15.6289 222.51 17.0055 222.943 19.0388C223.037 19.478 223.084 19.9791 223.047 20.1516C222.968 20.5304 223.771 21.6247 224.347 21.9225C225.734 22.6403 227.057 21.7913 227.805 19.705C228.062 18.9894 228.169 15.3769 227.959 14.5353C227.875 14.2007 228.23 13.9523 229.081 13.7504C229.996 13.5323 230.248 13.337 230.248 12.8425C230.248 12.4268 229.811 11.9154 229.456 11.9154C229.344 11.9154 227.599 11.1151 227.452 10.9964C227.434 10.9817 227.278 10.4231 227.104 9.75391C226.566 7.67865 225.967 5.96745 225.571 5.36831C224.118 3.17587 222.608 2.43966 221.076 3.17808ZM199.173 3.80965C194.368 4.2393 192.477 5.46853 192.995 7.82604C193.38 9.57631 195.061 9.99342 195.463 8.43771C195.559 8.06629 195.604 8.0405 196.329 7.94248C197.494 7.78477 197.453 7.7214 197.453 9.67727C197.453 12.3701 197.76 15.1219 198.307 17.3195C198.568 18.3667 198.848 19.5539 198.93 19.9578C199.292 21.7412 200.659 23.4605 201.716 23.4605C202.838 23.4605 203.433 22.7818 203.3 21.6513C203.24 21.1465 203.266 20.9467 203.408 20.8045C203.641 20.5724 203.645 19.915 203.422 18.8324C203.327 18.3718 203.187 17.304 203.109 16.4594C203.033 15.6156 202.776 13.8462 202.54 12.5293C202.305 11.2116 202.025 9.64632 201.918 9.04939C201.674 7.69413 201.579 7.76488 203.779 7.67349C204.793 7.63075 205.909 7.54821 206.26 7.48852C206.684 7.41704 207.132 7.4303 207.594 7.52684C208.868 7.79435 209.253 6.86211 208.284 5.85764C206.617 4.12802 203.484 3.42423 199.173 3.80965ZM82.0855 5.66383C80.1488 6.1141 79.344 8.49814 79.8901 12.1682C80.0257 13.0761 80.1701 14.2338 80.2122 14.7401C80.2534 15.2472 80.3419 16.021 80.4074 16.4594C80.4738 16.8987 80.6072 17.9768 80.7037 18.8545C80.8747 20.4125 82.3559 28.0606 82.5468 28.3686C82.6161 28.4806 82.7207 28.4268 82.9293 28.1718L83.2167 27.821L83.2219 28.4968C83.2359 30.4962 85.2492 31.3186 86.7482 29.9368C87.6841 29.0739 88.0069 28.0827 87.7726 26.79C87.6605 26.171 87.6701 25.9433 87.8315 25.4687C88.0408 24.8533 87.9966 24.3891 87.6694 23.7678C87.5544 23.5482 87.4689 23.0522 87.4579 22.5393C87.4439 21.8864 87.3171 21.3196 86.9295 20.1818C85.9862 17.4145 85.4445 14.0666 85.4231 10.863C85.4084 8.75239 85.3325 8.36402 85.0156 8.78335C84.8439 9.01106 84.8299 8.97348 84.8262 8.27632C84.8174 6.59165 83.499 5.33514 82.0855 5.66383ZM151.542 5.84143C150.645 6.47595 150.158 7.87247 150.024 10.1953C149.834 13.4755 149.878 14.2338 150.356 15.9804C150.589 16.8316 150.78 17.5914 150.78 17.6695C150.78 18.5546 147.355 15.2987 144.082 11.3008C143.003 9.98384 141.831 8.62637 141.476 8.28443C140.955 7.78404 140.831 7.5858 140.831 7.26228C140.831 6.61523 140.227 6.09199 139.58 6.17895C138.539 6.31824 137.243 8.14662 137.515 9.09287C137.601 9.39281 137.584 9.79223 137.454 10.4982C136.64 14.9266 136.692 22.5084 137.548 24.1974C138.762 26.5933 141.949 24.9617 141.084 22.3868C140.564 20.834 140.15 13.2589 140.621 13.8882C140.642 13.9177 141.316 14.8212 142.117 15.8957C147.935 23.7037 155.3 25.7561 156.315 19.8524C156.657 17.8619 155.795 13.3407 154.577 10.7481C154.324 10.2079 154.024 9.40902 153.912 8.97274C153.8 8.53647 153.634 8.03755 153.544 7.86363C153.454 7.68971 153.384 7.28365 153.389 6.9616C153.406 5.87312 152.378 5.25039 151.542 5.84143ZM247.354 7.64696C247.392 8.67722 247.455 9.60284 247.494 9.70454C247.665 10.1556 246.019 10.6847 245.659 10.2934C245.29 9.89393 244.924 9.05233 245.094 8.99411C245.763 8.76639 246.03 8.27559 246.04 7.25785C246.046 6.71251 246.074 6.24528 246.102 6.22022C246.265 6.07652 246.92 5.78321 247.087 5.77879C247.256 5.77437 247.293 6.0382 247.354 7.64696ZM43.0005 6.36983C41.3475 7.1591 40.4469 7.47673 39.3047 7.67571C36.3347 8.19305 34.754 8.99411 34.3575 10.1836C34.1755 10.7296 34.1792 11.5816 34.3649 11.7673C34.4459 11.8483 34.5027 12.1217 34.4909 12.3753C34.4658 12.9331 35.0384 15.371 35.5521 16.8898C35.7577 17.4978 36.1704 18.9069 36.4696 20.0219C37.057 22.2128 37.0835 22.2998 38.4594 26.4083L39.385 29.1719L40.2118 30.0319C40.7211 30.5618 41.3386 31.0511 41.8206 31.3068L42.6033 31.7217L43.8458 31.5854C44.5289 31.511 45.5304 31.4137 46.0706 31.3702C48.1127 31.2051 50.4385 30.1461 50.9227 29.1608C51.0915 28.8167 51.4636 28.2256 51.7503 27.8476C53.197 25.9359 52.8808 25.0833 50.7267 25.0877C49.7149 25.0892 49.3471 25.0332 48.5438 24.7538C47.5003 24.392 47.0847 24.3994 46.5209 24.7922C46.3411 24.9174 45.9173 25.0869 45.5798 25.168C45.2415 25.2491 44.5348 25.5159 44.0086 25.7605C42.8376 26.3059 42.8774 26.3346 42.2849 24.5048C41.063 20.7301 41.0601 20.9829 42.3247 20.8259C43.4832 20.6822 44.1604 20.4014 44.7058 19.8384C45.0522 19.4809 45.3565 19.2908 45.6741 19.2333C47.5401 18.8958 47.7177 16.1661 45.9114 15.5935C45.6616 15.5147 45.3462 15.3805 45.2113 15.2965C44.1015 14.6053 42.5561 14.5647 40.8125 15.1808C39.6982 15.5751 39.6761 15.5707 39.5235 14.8934C39.4513 14.5728 39.3223 14.0769 39.2376 13.7924C39.0438 13.1439 38.9192 13.2294 40.7948 12.726C41.6703 12.491 42.6902 12.2146 43.0616 12.1122C43.4331 12.009 43.8863 11.8948 44.0683 11.8579C44.5879 11.7533 46.2549 10.2189 46.2549 9.84603C46.2549 9.64484 46.4376 9.36406 46.7884 9.02875C48.7959 7.10457 45.8274 5.0212 43.0005 6.36983ZM91.248 6.6086C90.3556 6.9277 89.6658 7.41409 89.3113 7.97491C89.0961 8.31685 88.8927 8.47898 88.6046 8.53941C87.6502 8.74134 87.2206 9.21152 86.9567 10.3427C86.7651 11.1637 86.7651 11.1644 87.7578 15.0334C88.2191 16.8323 88.385 17.7071 88.3864 18.3497C88.3916 19.9467 89.598 24.6661 90.2273 25.5498C91.4153 27.2182 93.7566 26.087 93.8259 23.8113L93.8502 23.0308L94.9556 22.9513C96.9675 22.8068 99.3936 22.0625 101.105 21.0654C101.738 20.6969 102.38 19.3594 102.188 18.8111C102.011 18.3062 100.999 18.0174 99.807 18.1301C98.7428 18.2311 98.2439 18.2156 97.4731 18.0594C97.1694 17.9975 96.599 17.912 96.207 17.8692C95.2865 17.769 95.2659 17.6953 95.7361 16.1728C96.829 12.6295 96.8651 10.9802 95.8975 8.91157C94.994 6.98076 92.988 5.98735 91.248 6.6086ZM69.0392 7.69044C68.1608 7.83857 67.0627 8.10387 66.5984 8.27927C66.1349 8.4554 65.6094 8.59911 65.4318 8.59911C65.0287 8.59984 64.378 8.98748 64.1547 9.36038C64.0618 9.51588 63.7988 9.94699 63.5696 10.3184C63.1849 10.9426 63.1524 11.0723 63.148 12.0215L63.1436 13.0488L63.6654 13.4984C64.067 13.8447 64.1879 14.0349 64.1879 14.323C64.1879 14.5286 64.2675 15.1904 64.3647 15.7932C64.462 16.3961 64.6315 17.4698 64.742 18.1795C64.8519 18.8884 65.0803 20.0749 65.2483 20.8156C65.5151 21.9881 65.538 22.2578 65.4252 22.9041C65.238 23.9793 65.4119 24.899 66.1209 26.5925C66.4105 27.2853 67.272 29.872 68.2588 33.0136C68.7717 34.6482 71.0135 35.1906 72.2737 33.9857C73.161 33.1374 73.2575 32.3408 72.7365 30.1867C72.3503 28.5919 72.3467 28.4408 72.6753 27.6972C73.0976 26.7429 72.9834 24.7472 72.4462 23.7066C71.9465 22.7368 71.934 22.8031 72.6687 22.487C75.1095 21.4376 78.6808 18.2016 78.6808 17.0409C78.6808 15.92 76.296 16.2649 73.7063 17.7602C72.5589 18.4227 70.6472 19.1648 70.4947 19.0071C70.3318 18.8391 68.9781 14.6237 68.9773 14.2795C68.9766 14.1616 68.8889 13.8985 68.7813 13.6959C68.404 12.9818 67.9729 11.6427 68.0841 11.5314C68.2153 11.4003 70.0901 11.0561 70.6708 11.0554C71.0224 11.0554 72.7078 10.6066 74.6894 9.98532C76.3505 9.46429 76.6947 8.15325 75.3033 7.64402C74.5502 7.36766 70.7873 7.39566 69.0392 7.69044ZM239.068 9.58957C240.093 12.2116 240.076 12.1225 239.566 12.3288C238.893 12.6015 236.411 13.2065 236.324 13.1196C236.28 13.0754 236.465 12.3303 236.736 11.4636C237.007 10.5977 237.35 9.47608 237.497 8.97201C238.07 7.01908 238.062 7.01613 239.068 9.58957ZM92.6843 9.48935C93.1788 10.2993 92.3166 13.9545 91.7189 13.5846C91.5317 13.4689 91.178 11.2013 91.2318 10.4614C91.3276 9.12824 92.1353 8.58805 92.6843 9.48935ZM26.7094 11.5182C25.1773 12.3075 25.0667 15.1749 26.4382 18.5163C26.8207 19.4485 26.7809 19.579 26.0594 19.761C25.7492 19.8391 25.1846 20.0403 24.8059 20.2076C23.5707 20.7537 23.4314 20.6122 23.1028 18.4853C22.766 16.3003 22.2884 15.522 20.8698 14.8463C19.9862 14.4255 19.7592 14.4505 18.9965 15.0541C18.317 15.5921 18.2507 15.5854 18.2507 14.9796C18.2507 13.9929 17.3214 13.1255 15.8556 12.7445C15.4502 12.6391 14.8703 12.4887 14.5659 12.4092C14.2623 12.3303 13.8754 12.2382 13.7066 12.2043C13.2792 12.1173 8.49857 13.3613 5.49328 14.34C1.62501 15.6002 0.638972 16.2671 0.473158 17.7351C0.317661 19.1162 1.71419 20.1715 2.68623 19.4073C2.96627 19.1869 3.06134 19.1759 3.60152 19.3004C4.08496 19.4117 4.43501 19.3999 5.37758 19.2392C7.29365 18.9128 7.04604 18.562 7.32387 21.9866C7.58696 25.2233 8.4234 29.9214 9.28048 32.9797C9.54578 33.9252 9.84351 35.0174 9.94226 35.4058C10.1221 36.1147 11.0101 37.6446 11.8414 38.6756C13.3875 40.5954 16.3965 39.4833 16.4112 36.9865C16.4164 36.1331 16.0074 33.9525 15.5799 32.5501C14.5711 29.2397 14.1392 27.5668 13.1524 23.1495C12.1332 18.5819 12.0102 17.8869 12.2054 17.7661C12.2578 17.7336 12.7692 17.6437 13.3411 17.5656C14.0139 17.4742 14.4686 17.3453 14.6278 17.2016C14.9852 16.878 17.2263 16.1227 17.3766 16.2752C17.4548 16.3555 17.4503 16.598 17.3641 16.9731C17.1283 17.9923 17.7613 21.4177 18.4231 22.7014C18.7651 23.3647 19.2677 25.7789 19.4261 27.5137C19.8911 32.6297 21.9509 36.0314 24.6887 36.2068C27.1619 36.366 28.6866 33.5457 27.1022 31.7416C26.8951 31.5058 26.7146 31.1233 26.6615 30.8094C26.5082 29.8934 25.6349 27.6287 24.9245 26.3051C24.1323 24.8268 24.0873 24.927 25.7433 24.5048C27.7618 23.9896 27.6689 23.966 28.0809 25.0921C29.0787 27.8181 31.1171 30.8551 32.3906 31.5132C34.1917 32.4447 36.2043 30.9243 36.0156 28.7739C35.8439 26.8136 35.757 26.5314 34.4798 23.7929C33.6692 22.0537 32.905 20.1612 32.3007 18.3917C31.3714 15.6739 30.8798 14.5213 30.3477 13.8123C30.193 13.606 29.9977 13.2087 29.9144 12.9287C29.672 12.1203 29.1568 11.5926 28.3933 11.3708C27.5237 11.1173 27.478 11.1217 26.7094 11.5182ZM231.645 34.0004C229.056 34.6268 226.847 37.0484 225.561 40.6698C225.2 41.6875 225.151 45.1601 225.481 46.3362C226.463 49.8346 231.103 53.3734 240.256 57.6057C243.638 59.1695 244.955 59.9043 245.693 60.6412C246.444 61.3907 246.346 61.8999 245.437 61.9722C245.196 61.9906 244.608 62.278 243.981 62.6818C241.504 64.2803 239.375 65.5213 237.801 66.2855C235.964 67.1773 235.785 67.3467 235.523 68.4382C235.391 68.9916 235.405 69.0845 235.713 69.7153C235.896 70.089 236.026 70.4103 236.002 70.428C235.979 70.4456 235.764 70.5775 235.524 70.7213C233.765 71.7773 234.575 74.6787 236.63 74.6787C236.983 74.6787 237.167 74.7715 237.501 75.1201C238.541 76.2027 240.233 76.5756 241.356 75.9706C246.403 73.2512 250.442 69.7455 251.941 66.7837C253.025 64.6429 253.081 61.5867 252.064 60.0155C251.84 59.6699 251.54 59.154 251.397 58.8688C250.158 56.4074 248.436 54.946 243.307 52.0004C237.733 48.7999 234.473 46.3738 233.917 45.0134C233.265 43.4164 233.44 41.3058 234.318 40.179C234.444 40.0183 234.546 39.7324 234.546 39.5445C234.546 39.291 234.65 39.1384 234.946 38.9557C235.166 38.8193 235.513 38.5194 235.717 38.2887C236.042 37.9217 236.187 37.8583 236.879 37.7802C238.7 37.5739 239.448 36.6475 238.862 35.3225C238.51 34.528 237.935 34.2767 236.45 34.2694C235.619 34.265 235.212 34.2038 234.808 34.0203C233.953 33.6326 233.184 33.6275 231.645 34.0004ZM211.885 40.1761C209.995 40.4428 204.823 43.3553 200.157 46.7799C198.999 47.6303 198.909 47.6237 198.757 46.6752C198.47 44.88 195.703 44.8056 195.439 46.5861C195.164 48.4424 194.986 50.6887 195.059 51.3711C195.124 51.9828 195.1 52.2525 194.951 52.5399C193.839 54.6903 195.329 60.0627 198.506 65.3658C201.775 70.8215 202.621 71.7633 204.72 72.2851C204.932 72.3381 205.2 72.5961 205.479 73.0161C206.371 74.3589 207.19 74.5143 210.657 73.9963C213.533 73.5666 216.032 73.333 217.794 73.3301C221.885 73.3234 223.079 73.0493 224.48 71.795C224.916 71.4044 225.466 70.9608 225.703 70.809C226.505 70.2931 227.054 69.4522 227.054 68.7411C227.054 68.5782 227.141 68.237 227.247 67.9827C227.583 67.1787 227.166 66.3968 226.328 66.2568C226.086 66.217 225.639 66.1065 225.334 66.0114C225.025 65.9156 224.377 65.8507 223.86 65.8647C223.354 65.878 222.624 65.8109 222.238 65.7151C221.616 65.5611 221.412 65.5648 220.457 65.7454C218.837 66.0527 218.414 66.0917 215.525 66.2023C212.681 66.3106 211.394 66.5081 210.261 67.0092C209.508 67.3423 209.311 67.3055 209.424 66.853C209.61 66.1146 209.37 65.4933 208.522 64.5095C207.339 63.1358 205.771 60.9441 205.841 60.7606C205.903 60.5992 212.098 58.0796 213.556 57.6227C214.003 57.4826 214.829 57.1459 215.393 56.8732C216.618 56.2799 216.766 56.2704 217.308 56.7464C218.887 58.1319 220.48 55.0971 218.994 53.5348C216.564 50.9783 210.199 51.5966 204.064 54.9851C203.411 55.3455 202.82 55.641 202.75 55.641C202.442 55.641 200.893 53.0948 200.893 52.5885C200.893 52.4161 201.363 52.0712 202.643 51.3062C206.821 48.8072 209.541 47.449 212.069 46.5979C212.643 46.4048 213.388 46.0621 213.723 45.8373C214.291 45.4556 214.408 45.4261 215.447 45.4025C216.891 45.3694 217.288 45.1579 217.677 44.2153C218.846 41.3751 216.245 39.5607 211.885 40.1761ZM63.9867 41.2483C62.4339 42.4149 60.3535 42.6426 53.8079 42.3619L50.6132 42.2248L48.5261 42.6132C46.571 42.9765 44.1862 43.524 42.9518 43.8925C42.4831 44.0325 42.2901 44.0244 41.4779 43.8299C39.6039 43.3811 38.8529 43.6773 37.5839 45.3657C36.4792 46.8359 36.2493 48.242 36.5146 51.901C36.5978 53.0462 36.8086 56.1112 36.9825 58.7119C37.634 68.4669 38.2995 72.1163 40.1345 75.9941C41.7845 79.4792 43.3365 80.5286 45.6616 79.729C46.3227 79.5013 46.344 79.5013 46.8496 79.7335C48.095 80.3046 52.1873 80.1778 55.4056 79.4696C57.1478 79.0857 62.9719 78.3708 68.8004 77.8247C72.1499 77.5108 72.598 77.3958 73.5737 76.5985C74.1765 76.1062 74.671 75.8445 75.2215 75.7259C76.0602 75.5453 77.2069 73.9506 77.2069 72.966C77.2069 71.9969 75.6725 70.6881 74.3858 70.5591C73.8839 70.509 73.2951 70.341 72.8124 70.1103C71.6318 69.5466 71.0916 69.5473 67.3811 70.1192C61.344 71.0492 57.1573 71.6255 54.3002 71.9195C53.0953 72.0433 50.8188 72.4597 49.5903 72.7818C48.2019 73.1458 48.269 73.1819 48.1643 72.0094C48.1171 71.4847 47.9182 70.0698 47.7214 68.8641C47.5254 67.6592 47.3286 66.2413 47.2844 65.7137L47.2041 64.7541L47.927 64.6127C49.7008 64.2648 52.7187 63.3635 57.6437 61.7105C61.0905 60.5543 63.4819 59.8217 64.4605 59.6235C65.2903 59.4562 66.328 59.157 66.7672 58.9602C67.8026 58.4952 69.1549 58.2189 69.984 58.3029C71.1904 58.4252 71.7711 57.5121 71.1867 56.4111C70.4085 54.9438 69.2441 54.3056 66.4171 53.7964L65.0619 53.5525L62.1974 54.033C56.2207 55.0352 52.6995 55.9918 48.2483 57.8202C46.0979 58.7038 46.3072 58.9337 45.882 55.2114C45.8127 54.6034 45.6137 53.2901 45.4398 52.2938C45.2659 51.2967 45.1524 50.4064 45.1878 50.3143C45.2666 50.1087 46.386 49.9318 49.51 49.6304C55.0718 49.0946 63.7096 45.6118 65.5615 43.1578C66.8682 41.4281 65.6736 39.9808 63.9867 41.2483ZM184.986 42.9757C184.044 43.5646 183.529 44.5012 182.599 47.3201C182.448 47.7777 182.135 48.3776 181.901 48.6584C181.238 49.4513 181.248 49.3806 181.375 52.394C181.615 58.0648 181.59 62.6848 181.319 62.6207C180.606 62.4504 175.763 55.4354 172.541 49.9068C172.258 49.4219 171.924 48.9915 171.798 48.9517C171.671 48.9119 171.473 48.6318 171.358 48.3304C170.756 46.7548 168.839 46.3178 167.713 47.4999C166.166 49.1241 166.736 52.2304 169.641 58.0007C174.418 67.4882 179.054 72.5511 183.57 73.2122C189.412 74.0663 192.146 68.6887 190.88 58.8342C190.597 56.627 190.478 55.0853 190.259 50.7896L190.178 49.1927L189.646 48.6399C189.054 48.0246 188.185 46.107 187.998 45.0024C187.7 43.2447 186.186 42.2263 184.986 42.9757ZM96.5519 43.7193C95.3521 44.0112 94.4206 45.0392 93.3447 47.2611C92.167 49.6916 92.1007 50.5199 92.7529 54.6586C92.8538 55.2998 93.1545 57.3043 93.4206 59.1113C93.6873 60.9191 93.9865 62.6877 94.086 63.0422C94.4177 64.2213 94.7987 66.217 94.7087 66.3032C94.4884 66.514 89.6245 61.0944 86.9472 57.6544C84.4364 54.4287 84.0008 53.7323 83.9389 52.8465C83.8748 51.9297 83.4791 51.4153 82.678 51.2082C82.4046 51.1382 81.9005 51.0011 81.5564 50.9039C78.7869 50.1234 77.2334 52.0764 78.0588 55.3013C79.1524 59.5771 89.063 72.5283 94.0779 76.2344C97.6212 78.8535 101.299 78.9243 103.251 76.412C104.68 74.5748 105.011 73.1127 104.749 69.7964C104.551 67.2856 103.434 61.5543 102.445 57.9749C101.599 54.9144 101.248 53.0904 101.033 50.6334C100.942 49.6061 100.842 49.1823 100.53 48.5051L100.14 47.6598L100.299 46.7327C100.66 44.6206 98.8453 43.1607 96.5519 43.7193ZM137.821 44.46C136.616 45.0385 135.67 46.3267 135.303 47.8883C134.706 50.4285 134.66 51.0815 134.724 56.1731C134.89 69.5606 137.909 75.7141 145.034 77.1858C147.83 77.7636 153.243 76.3029 157.193 73.9056C157.692 73.6027 158.596 73.1046 159.2 72.7995C159.805 72.4951 160.492 72.0397 160.729 71.7876C161.185 71.3027 163.354 69.8119 164.309 69.3269C165.374 68.7868 165.703 67.9267 165.111 67.2369C164.807 66.8839 163.934 66.7299 161.035 66.5184C160.427 66.4742 159.554 66.3511 159.095 66.245C158.423 66.0895 158.122 66.0777 157.56 66.1846C157.174 66.2583 156.102 66.4042 155.177 66.5088C153.439 66.7056 150.782 67.3423 148.753 68.0476C147.598 68.4492 145.743 68.6932 145.743 68.4441C145.743 68.3733 145.546 68.0778 145.303 67.7882C143.544 65.6827 142.526 60.8535 141.991 52.0793C141.947 51.3696 141.785 50.2642 141.628 49.6223C141.471 48.9804 141.287 47.8514 141.218 47.113C140.997 44.7562 139.552 43.6279 137.821 44.46ZM115.344 44.6884C112.246 45.8403 110.816 47.4711 109.567 51.2804C106.442 60.8085 109.366 70.2474 116.436 73.4531C122.561 76.2307 128.239 71.0669 128.796 62.2124C128.993 59.087 128.794 54.495 128.43 53.7374C127.646 52.1029 125.639 50.6614 124.177 50.6828L123.182 50.6968L122.35 48.8131C120.874 45.4688 117.922 43.7311 115.344 44.6884ZM118.17 51.8177C119.563 52.4537 121.013 53.7514 120.845 54.212C120.703 54.5989 120.735 56.2328 120.918 57.9565C121.193 60.5425 121.045 65.4727 120.649 66.9282C120.211 68.5406 120.176 68.5635 119.042 68.0034C116.69 66.8405 115.358 62.8661 115.889 58.5888C115.968 57.9469 116.113 56.7309 116.21 55.8864C116.651 52.0513 117.016 51.2908 118.17 51.8177Z" fill="#050505"/>
<path fill-rule="evenodd" clip-rule="evenodd" d="M250.514 1.04902C245.979 1.68133 243.956 2.74844 243.211 4.90255L243.061 5.33514L242.877 5.03225C240.837 1.67691 239.352 0.743926 237.143 1.43003C235.229 2.02401 234.043 4.35794 232.217 11.1165C231.87 12.4003 231.4 14.0304 231.172 14.7401C230.457 16.965 230.445 18.3269 231.134 19.1117C232.248 20.3808 233.888 20.1059 234.305 18.5804C234.393 18.2583 234.63 17.6997 234.831 17.3386L235.197 16.6827L235.725 16.7623C236.428 16.8677 237.86 16.6614 239.888 16.1639L241.547 15.7564L242.203 16.5685C242.886 17.416 243.67 18.6475 244.03 19.4411C244.474 20.4198 246.266 20.9128 247.332 20.3498C248.813 19.5679 249.095 17.7911 248.13 15.3326C247.56 13.8845 247.453 13.3502 247.702 13.1962C247.918 13.0628 248.003 13.2979 248.541 15.5272C249.096 17.8257 249.224 18.2237 249.546 18.6467C249.665 18.8022 249.882 19.1795 250.03 19.4839C251.431 22.3772 255.375 20.1442 255.144 16.5891C255.05 15.1418 253.044 7.13625 252.516 6.1001C252.277 5.63066 252.256 5.63877 253.976 5.52454C254.808 5.47 255.681 5.36757 255.918 5.29829C256.154 5.22902 256.928 5.11184 257.638 5.03889C258.347 4.96519 259.314 4.77211 259.787 4.60924C260.26 4.44638 260.967 4.22455 261.358 4.11769C262.541 3.79196 262.965 2.9312 262.256 2.2989C261.808 1.90094 259.454 1.35191 257.638 1.22221C256.793 1.16178 255.871 1.05639 255.588 0.98712C254.882 0.814673 251.935 0.850784 250.514 1.04902ZM164.536 1.14778C161.73 1.80366 158.407 4.67409 157.515 7.21289C156.794 9.26604 157.288 18.9503 158.225 21.1273C158.777 22.4081 159.342 23.3028 159.651 23.3816C159.807 23.4214 160.039 23.658 160.176 23.9174C160.934 25.3515 163.035 25.2299 164.079 23.6919C164.846 22.5614 164.834 21.4191 164.023 18.3814C163.724 17.2627 163.642 17.3858 165.088 16.7977C166.761 16.119 167.254 15.819 167.668 15.2295C167.881 14.9266 168.52 14.3024 169.089 13.8425C170.935 12.3517 170.923 12.3649 170.923 11.8653C170.923 10.8276 170.507 10.7009 168.243 11.0502C167.386 11.1821 166.271 11.2823 165.764 11.272C164.873 11.2551 164.804 11.2757 163.668 11.8903L162.493 12.5263L161.844 10.8387C161.486 9.91088 161.062 8.88357 160.9 8.5571C160.738 8.22989 160.606 7.89531 160.606 7.81425C160.606 7.39419 162.878 5.73383 164.659 4.85317C165.233 4.56871 166.026 4.15528 166.421 3.93419C166.943 3.64089 167.376 3.50602 168.014 3.43601C169.661 3.25546 170.011 1.88694 168.563 1.28706C167.882 1.00481 165.501 0.922268 164.536 1.14778ZM116.388 1.22C116.218 1.27232 115.915 1.40055 115.712 1.5052C115.367 1.6828 114.973 1.75281 112.335 2.10287C109.973 2.41607 108.773 2.9172 107.837 3.97915L107.247 4.64756L106.936 4.42869C106.764 4.30783 106.513 4.17297 106.378 4.12801C106.243 4.08306 106.022 3.87303 105.887 3.66152C105.591 3.19945 105.511 3.15818 104.413 2.90172C101.365 2.19056 99.8608 3.8347 99.8741 7.86215C99.8836 10.9286 100.461 12.0119 103.865 15.354C106.147 17.5958 106.886 18.5465 107.255 19.7197C107.519 20.5562 107.46 20.6748 106.538 21.1369C103.894 22.4612 103.112 23.4848 103.755 24.7804C104.339 25.9588 105.695 26.23 107.869 25.6035C112.617 24.2358 113.567 21.4228 110.824 16.8544C109.721 15.0172 108.801 13.9929 105.962 11.4408C104.689 10.297 104.352 9.67948 104.352 8.50035C104.352 7.49146 104.386 7.44282 104.885 7.74719C105.562 8.15988 106.701 8.00438 107.174 7.43472C107.322 7.25638 107.383 7.27922 107.779 7.66465C108.484 8.34928 109.345 8.54457 110.001 8.16872C110.171 8.07218 110.348 7.99112 110.396 7.98891C110.589 7.97933 111.404 11.3325 112.515 16.7056C113.176 19.9017 113.745 20.9232 115.083 21.3115C117.613 22.0477 118.73 19.9644 117.81 16.2243C117.293 14.127 116.033 9.55051 115.646 8.36991C115.44 7.73687 115.287 7.20774 115.307 7.193C115.328 7.179 115.731 6.95865 116.204 6.7044C117.314 6.10747 118.244 5.17743 118.834 4.07421C119.055 3.66152 119.027 2.293 118.789 1.93116C118.429 1.38139 117.12 0.993753 116.388 1.22ZM168.184 1.42045C169.651 1.83535 169.49 3.19429 167.974 3.19429C167.542 3.19429 167.171 3.30926 166.547 3.6372C166.083 3.88113 165.206 4.32773 164.598 4.63061C161.622 6.11115 159.926 7.66022 160.532 8.34338C160.665 8.49446 161.816 11.3302 162.243 12.5602C162.348 12.8646 162.407 12.8476 163.685 12.1357C164.702 11.5698 164.91 11.499 165.514 11.5101C165.888 11.5174 167.093 11.4062 168.191 11.2624C170.339 10.9824 170.599 11.0252 170.683 11.6692C170.745 12.1534 170.578 12.3546 169.204 13.4556C168.393 14.1049 167.73 14.6768 167.73 14.7269C167.73 15.0637 166.797 15.8478 166.043 16.147C164.566 16.7321 163.553 17.2296 163.553 17.371C163.553 17.447 163.658 17.8943 163.786 18.3659C164.762 21.9755 164.595 23.3765 163.066 24.4126C162.234 24.9757 160.782 24.6566 160.354 23.8164C160.22 23.5563 159.941 23.2549 159.732 23.1465C159.085 22.812 158.16 20.6991 157.941 19.0535C157.261 13.9214 157.194 8.61311 157.791 7.09867C159.328 3.19872 164.495 0.375449 168.184 1.42045ZM255.658 1.22884C255.902 1.2959 256.793 1.40202 257.638 1.46393C259.229 1.5811 261.729 2.12866 262.104 2.44186C262.782 3.00932 262.267 3.64383 260.799 4.0499C260.275 4.19507 259.666 4.38889 259.446 4.48028C259.226 4.57239 258.467 4.71168 257.759 4.79053C257.051 4.86865 256.139 5.0072 255.734 5.09858C255.328 5.18922 254.392 5.29608 253.652 5.33514C252.1 5.41694 251.983 5.47958 252.268 6.07651C252.833 7.2608 254.955 15.7247 254.965 16.8279C254.992 20.1 251.216 21.9844 250.134 19.2392C250.051 19.0277 249.89 18.744 249.778 18.6091C249.486 18.2606 249.259 17.5501 248.675 15.1631C248.061 12.6538 248.073 12.6781 247.629 12.9692C247.189 13.2581 247.251 13.7651 247.93 15.452C248.86 17.7579 248.542 19.6084 247.109 20.2208C246.038 20.6792 244.656 20.1398 244.081 19.0388C243.398 17.7336 241.92 15.6974 241.6 15.6223C241.508 15.6009 240.561 15.7881 239.495 16.0386C237.671 16.4668 235.836 16.6503 235.295 16.4594C235.08 16.3828 234.348 17.6209 234.097 18.4861C233.853 19.3262 233.465 19.6534 232.716 19.6534C230.83 19.6534 230.407 17.9378 231.458 14.5559C231.731 13.6774 232.204 12.037 232.509 10.9102C234.237 4.52818 235.345 2.31142 237.129 1.66954C239.072 0.970907 240.767 1.91863 242.332 4.57755C243.127 5.92765 243.39 6.07799 243.39 5.18038C243.391 3.26283 245.816 2.01148 251.128 1.18757C251.803 1.08292 255.242 1.11388 255.658 1.22884ZM117.596 1.48161C120.019 2.0019 118.638 5.51127 115.498 6.8142C114.946 7.0434 114.951 6.96381 115.396 8.31022C115.594 8.90789 116.015 10.3648 116.331 11.5469C116.648 12.729 117.095 14.3871 117.327 15.2317C118.407 19.1803 117.924 21.2496 115.923 21.2496C114.067 21.2496 113.517 20.3196 112.471 15.4049C110.857 7.82457 110.76 7.53052 110.019 7.91447C109.244 8.31464 108.194 8.01986 107.757 7.27996L107.512 6.86505L107.191 7.16426C106.462 7.84373 105.55 7.94616 104.795 7.43324L104.344 7.12741L104.225 7.44135C103.619 9.03538 104.331 10.3958 106.938 12.6251C111.463 16.4941 113.321 21.4331 111.106 23.7074C109.717 25.1334 105.925 26.1828 104.715 25.4761C102.857 24.3913 103.617 22.837 106.775 21.2622C107.642 20.8296 107.783 20.5628 107.54 19.8133C107.088 18.4183 105.954 16.9149 104.063 15.2022C100.845 12.2898 100.114 10.9198 100.114 7.80025C100.114 4.49723 101.164 2.85087 103.184 2.98574C104.755 3.09038 105.454 3.3181 105.778 3.83028C105.939 4.08601 106.205 4.3292 106.37 4.37047C106.533 4.411 106.762 4.55029 106.88 4.67925C107.191 5.02341 107.272 4.9873 108.009 4.17223C109.178 2.87961 109.789 2.66148 113.686 2.14266C114.396 2.04833 115.086 1.95326 115.222 1.93189C115.357 1.91052 115.716 1.77271 116.02 1.62532C116.657 1.31654 116.775 1.30622 117.596 1.48161ZM175.222 2.46176C173.107 2.77276 171.725 3.11396 170.255 3.68879C169.568 3.95704 168.874 4.17739 168.714 4.17739C167.75 4.17739 166.821 5.13985 166.825 6.134C166.831 7.76856 168.063 8.38244 170.444 7.93585C171.022 7.82751 171.567 7.73908 171.655 7.73908C171.781 7.73908 171.796 7.99259 171.73 8.93663C171.593 10.8888 172.372 16.9119 173.07 19.2849C173.298 20.0617 173.657 21.2924 173.867 22.0197C174.536 24.3338 174.526 24.319 175.788 24.8113C178.245 25.7694 179.703 25.0228 179.632 22.8422C179.61 22.1664 179.65 21.9372 179.825 21.7449C180.037 21.5105 180.035 21.4796 179.794 20.9151C179.494 20.2186 179.152 18.6327 179.152 17.9473C179.152 17.4248 178.648 14.3798 178.06 11.342C177.861 10.3177 177.495 8.89094 177.246 8.17093C176.998 7.45167 176.813 6.85031 176.837 6.83484C176.861 6.8201 177.129 6.74419 177.432 6.66755C178.768 6.33003 181.786 5.22091 182.108 4.95045C183.24 3.99757 182.439 2.58336 180.763 2.57673C180.248 2.57452 179.164 2.49271 178.354 2.3947C177.543 2.29742 176.852 2.22152 176.819 2.22667C176.785 2.23183 176.066 2.33795 175.222 2.46176ZM178.553 2.65263C179.525 2.76023 180.539 2.81918 180.808 2.78381C182.016 2.62389 182.835 3.85902 182.069 4.68589C181.805 4.97109 178.297 6.27697 177.278 6.47005C176.635 6.59164 176.431 6.73609 176.558 6.97633C177.275 8.33159 178.729 15.1757 178.962 18.2989C179.009 18.9334 179.177 19.7485 179.392 20.3867C179.718 21.3565 179.729 21.4508 179.545 21.6564C179.389 21.8311 179.354 22.0979 179.383 22.9188L179.419 23.9601L178.943 24.4355C178.17 25.2085 177.335 25.2365 175.713 24.5438C174.745 24.1304 174.784 24.1783 174.383 22.9373C172.739 17.8523 171.764 12.1822 171.963 8.87546L172.046 7.49367H171.743C171.577 7.49367 171.011 7.58211 170.487 7.69044C168.546 8.09208 167.469 7.76561 167.106 6.66681C166.755 5.60486 167.612 4.42279 168.732 4.42279C168.882 4.42279 169.571 4.20171 170.263 3.93125C171.974 3.26209 173.37 2.9452 176.711 2.46839C176.752 2.4625 177.581 2.54577 178.553 2.65263ZM221.527 2.74991C220.573 3.11618 220.448 3.1884 220.134 3.56203C219.526 4.28572 219.806 5.33293 220.71 5.7132C221.072 5.86501 221.081 5.8908 221.101 6.77293C221.111 7.27038 221.164 8.05081 221.218 8.50698L221.315 9.33605H220.383C219.587 9.33605 217.213 9.69937 216.685 9.90203C216.564 9.94846 216.491 9.81507 216.429 9.43628C216.381 9.14445 216.184 8.49151 215.99 7.98448C215.797 7.4782 215.556 6.6985 215.453 6.25265C214.996 4.26951 213.966 3.39327 212.801 3.99536C212.135 4.34025 211.871 5.07426 211.145 8.5991C210.852 10.0244 211.589 16.1905 212.372 18.8545C212.53 19.3955 212.693 19.9821 212.732 20.1597C212.856 20.719 213.24 21.0904 213.52 20.9209C213.738 20.7876 213.764 20.8207 213.834 21.3307C214.085 23.165 216.081 23.4892 217.582 21.9402C218.389 21.1081 218.498 18.3571 217.828 15.7328C217.542 14.6097 217.445 14.6775 219.099 14.8396C219.86 14.9148 220.829 14.9428 221.251 14.9023L222.018 14.8286L222.02 15.2449C222.021 15.4741 222.105 16.0121 222.206 16.4418C222.477 17.5936 222.781 19.3903 222.81 20.0233C222.891 21.7309 225.233 22.9933 226.534 22.0286C227.852 21.0514 228.217 19.946 228.239 16.8463C228.261 14.0452 228.208 14.2058 229.194 13.9494C230.1 13.7136 230.493 13.3687 230.493 12.8093C230.493 12.3937 230.053 11.7923 229.749 11.7923C229.672 11.7923 229.156 11.5771 228.603 11.314L227.597 10.8365L227.372 9.87108C226.192 4.79053 223.801 1.87883 221.527 2.74991ZM223.474 3.24662C225.101 4.07127 226.09 5.84364 227.104 9.75391C227.278 10.4231 227.434 10.9817 227.452 10.9964C227.599 11.1151 229.344 11.9154 229.456 11.9154C229.811 11.9154 230.248 12.4268 230.248 12.8425C230.248 13.337 229.996 13.5323 229.081 13.7504C228.23 13.9523 227.875 14.2007 227.959 14.5353C228.169 15.3769 228.062 18.9894 227.805 19.705C227.057 21.7913 225.734 22.6403 224.347 21.9225C223.771 21.6247 222.968 20.5304 223.047 20.1516C223.084 19.9791 223.037 19.478 222.943 19.0388C222.51 17.0055 222.262 15.6289 222.263 15.2774C222.264 14.7084 222.021 14.5714 221.179 14.6664C220.786 14.7114 219.812 14.6871 219.014 14.6126C217.256 14.449 217.28 14.4299 217.587 15.7151C218.218 18.3534 218.176 20.9121 217.489 21.6653C215.939 23.3676 213.824 22.8584 214.1 20.8502L214.186 20.2297L213.752 20.4979L213.317 20.7662L213.123 20.4898C213.016 20.3373 212.928 20.128 212.927 20.0248C212.926 19.9216 212.787 19.3955 212.617 18.8545C212.236 17.643 211.655 14.1366 211.38 11.3958L211.174 9.34121L211.494 7.95722C211.671 7.19521 211.852 6.3514 211.897 6.08094C212.186 4.3631 213.447 3.47876 214.306 4.39184C214.677 4.78611 215.142 5.62624 215.137 5.89522C215.136 5.99692 215.382 6.85474 215.683 7.80025C215.985 8.74649 216.265 9.67727 216.305 9.86961C216.371 10.1799 216.416 10.2093 216.711 10.1334C218.027 9.79149 219.417 9.58441 220.409 9.58294L221.563 9.58146L221.459 8.69122C221.403 8.20115 221.35 7.33302 221.342 6.76262L221.328 5.72425L220.905 5.55549C219.646 5.05215 219.733 3.82512 221.076 3.17808C221.967 2.74844 222.522 2.76465 223.474 3.24662ZM199.296 3.57677C194.244 3.97841 192.165 5.36757 192.785 7.92553C193.236 9.78707 195.077 10.2779 195.605 8.67796C195.739 8.27116 195.786 8.24168 196.421 8.16209C197.272 8.05597 197.182 7.8113 197.256 10.4437C197.343 13.5662 197.51 14.9236 198.13 17.5649C198.423 18.8147 198.701 20.0307 198.747 20.2673C198.887 20.9681 199.758 22.5047 200.298 22.9999C201.753 24.333 203.769 23.5416 203.554 21.7228C203.515 21.3985 203.532 21.1045 203.589 21.0691C203.82 20.9261 203.86 19.7728 203.666 18.8273C203.559 18.3018 203.388 17.0741 203.286 16.0991C203.184 15.1241 202.846 12.9243 202.534 11.2116C202.223 9.49818 201.991 8.07292 202.02 8.04418C202.05 8.0147 202.789 7.96017 203.663 7.92332C204.538 7.88573 205.625 7.79214 206.081 7.71623C206.726 7.6079 207.056 7.61159 207.566 7.73466C209.083 8.09797 209.579 6.87169 208.4 5.67266C206.607 3.84797 203.854 3.21419 199.296 3.57677ZM204.884 4.05211C207.384 4.58861 209.407 6.3713 208.591 7.31975C208.29 7.66981 208.282 7.67128 207.594 7.52684C207.132 7.4303 206.684 7.41703 206.26 7.48852C205.909 7.54821 204.793 7.63075 203.779 7.67349C201.579 7.76487 201.674 7.69413 201.918 9.04938C202.025 9.64631 202.305 11.2116 202.54 12.5293C202.776 13.8462 203.033 15.6156 203.109 16.4594C203.187 17.304 203.327 18.3718 203.422 18.8324C203.645 19.915 203.641 20.5724 203.409 20.8045C203.266 20.9467 203.24 21.1465 203.3 21.6513C203.433 22.7818 202.838 23.4605 201.716 23.4605C200.659 23.4605 199.292 21.7412 198.93 19.9578C198.848 19.5539 198.568 18.3667 198.307 17.3195C197.761 15.1219 197.453 12.3701 197.453 9.67726C197.453 7.72139 197.494 7.78477 196.329 7.94248C195.604 8.04049 195.559 8.06629 195.463 8.43771C195.241 9.29921 194.052 9.65442 193.475 9.03169C192.784 8.2859 192.703 6.68597 193.312 5.79131C194.459 4.10443 200.733 3.16113 204.884 4.05211ZM81.5763 5.58791C79.9439 6.16937 79.1075 9.00369 79.655 12.0996C79.7383 12.572 79.8827 13.7054 79.9756 14.6171C80.4797 19.5701 80.6846 20.8627 81.7553 25.8276C81.9558 26.7576 82.1201 27.6309 82.1201 27.768C82.1201 28.1652 82.4746 28.7422 82.7178 28.7422C82.8711 28.7422 82.9868 28.894 83.0863 29.2279C84.0635 32.4882 88.169 30.6885 87.9848 27.0804C87.9479 26.3523 87.9723 25.7443 88.0445 25.6161C88.2545 25.241 88.1845 24.2785 87.9089 23.7368C87.7328 23.3927 87.6738 23.1126 87.7239 22.8613C87.816 22.4007 87.6377 21.6277 86.97 19.5915C86.1822 17.1898 85.6951 13.9295 85.645 10.7208C85.6126 8.66543 85.589 8.45319 85.3502 8.13114C85.2072 7.93806 85.0333 7.57326 84.964 7.31975C84.5712 5.89743 82.9846 5.08605 81.5763 5.58791ZM151.507 5.58718C151.085 5.81711 150.613 6.55185 150.168 7.67128L149.803 8.59026L149.769 11.6958C149.736 14.7807 149.738 14.8087 150.073 15.9016C150.556 17.4757 150.541 17.5494 149.834 17.0505C148.774 16.3047 146.558 13.97 144.298 11.2197C143.068 9.72295 141.841 8.30801 141.569 8.07587C141.219 7.77666 141.076 7.55779 141.076 7.32196C141.076 5.77068 139.598 5.48106 138.316 6.78251C137.317 7.7973 137.246 7.94985 137.283 9.00516C137.3 9.49082 137.19 10.7731 137.037 11.8535C136.235 17.5656 136.61 23.854 137.817 24.9145C139.751 26.6124 142.305 24.5983 141.264 22.1951C141.024 21.6387 140.439 14.6001 140.618 14.4203C140.647 14.3915 141.244 15.1292 141.946 16.0593C147.974 24.0434 155.557 26.0052 156.555 19.8376C156.884 17.8007 155.978 13.1358 154.766 10.6324C154.535 10.1555 154.256 9.40607 154.146 8.96758C154.036 8.52836 153.868 8.01986 153.775 7.83709C153.681 7.65507 153.605 7.25122 153.605 6.94096C153.605 5.65056 152.592 4.99762 151.507 5.58718ZM83.4098 5.86501C84.3774 6.34477 84.8203 7.09867 84.8262 8.27632C84.8299 8.97347 84.8439 9.01106 85.0156 8.78334C85.3325 8.36401 85.4084 8.75239 85.4231 10.863C85.4445 14.0666 85.9862 17.4145 86.9295 20.1818C87.3171 21.3196 87.4439 21.8864 87.4579 22.5393C87.4689 23.0522 87.5544 23.5482 87.6694 23.7678C87.9966 24.389 88.0408 24.8533 87.8315 25.4687C87.6701 25.9433 87.6605 26.171 87.7726 26.79C88.0069 28.0827 87.6841 29.0739 86.7482 29.9368C85.2492 31.3186 83.2359 30.4962 83.2219 28.4968L83.2167 27.821L82.9293 28.1718C82.7208 28.4268 82.6161 28.4806 82.5468 28.3686C82.356 28.0605 80.8747 20.4125 80.7037 18.8545C80.6072 17.9768 80.4738 16.8987 80.4075 16.4594C80.3419 16.021 80.2534 15.2472 80.2122 14.7401C80.1702 14.2338 80.0257 13.0761 79.8901 12.1682C79.218 7.64991 80.9071 4.62398 83.4098 5.86501ZM43.4913 5.88122C43.2216 6.00503 42.6136 6.28728 42.1405 6.50984C40.9473 7.06993 40.133 7.33523 39.2951 7.43767C37.6215 7.64254 35.457 8.44582 34.737 9.13045C34.0915 9.74433 33.751 11.3052 34.1475 11.8284C34.2396 11.95 34.2882 12.152 34.2551 12.278C34.174 12.5882 34.8093 15.5265 35.1062 16.214C35.2374 16.5177 35.6405 17.8722 36.0009 19.223C36.7312 21.9549 36.8727 22.414 38.2538 26.5093C39.3275 29.6958 39.4462 29.886 41.136 31.1491C42.1707 31.9222 42.3195 31.9421 45.0455 31.6871C47.5806 31.4491 47.7538 31.4056 49.6036 30.533C50.7783 29.9788 50.81 29.9523 51.146 29.2625C51.3347 28.8749 51.7216 28.2536 52.0046 27.8822C53.4711 25.9595 52.9965 24.8393 50.7149 24.8393C49.7414 24.8393 49.3213 24.7767 48.5306 24.5143C47.4502 24.1562 47.1215 24.1731 46.3168 24.6278C46.0463 24.7804 45.6447 24.9381 45.4236 24.9786C45.2025 25.0191 44.6019 25.2461 44.089 25.4834C42.9238 26.0214 43.0661 26.1622 42.2657 23.6808C41.4175 21.0507 41.4168 21.1767 42.2761 21.0691C43.4714 20.9202 44.1612 20.6505 44.7655 20.0963C45.0956 19.7934 45.5629 19.5089 45.8805 19.4176C47.6691 18.9017 47.9867 16.3776 46.3647 15.5736C43.9482 14.3761 42.6725 14.2272 40.8036 14.9244C39.8412 15.2833 39.8684 15.2928 39.6584 14.519C39.3017 13.2073 39.2678 13.32 40.0748 13.1608C40.472 13.0827 41.3983 12.8255 42.1346 12.5897C42.87 12.3539 43.6033 12.1608 43.7647 12.1608C44.17 12.1608 44.7559 11.8424 45.3204 11.317C45.5828 11.0716 45.9557 10.7237 46.1495 10.5424C46.361 10.3449 46.501 10.0877 46.501 9.89614C46.501 9.67874 46.6764 9.40901 47.0537 9.04791C47.5954 8.52835 47.6875 8.28074 47.6072 7.55484C47.4532 6.15242 45.0418 5.17227 43.4913 5.88122ZM153.151 6.04409C153.322 6.27402 153.395 6.55627 153.389 6.96159C153.384 7.28364 153.454 7.6897 153.544 7.86362C153.634 8.03755 153.8 8.53646 153.912 8.97274C154.024 9.40901 154.324 10.2079 154.577 10.7481C155.507 12.7282 156.057 15.0025 156.378 18.1942C156.801 22.3912 153.708 24.3566 149.616 22.4907C146.926 21.2644 144.58 19.2009 142.117 15.8957C141.316 14.8212 140.642 13.9177 140.621 13.8882C140.15 13.2589 140.564 20.834 141.084 22.3867C141.949 24.9617 138.762 26.5933 137.548 24.1974C136.692 22.5083 136.64 14.9266 137.454 10.4982C137.584 9.79223 137.601 9.3928 137.515 9.09286C137.243 8.14661 138.539 6.31823 139.58 6.17895C140.227 6.09199 140.831 6.61523 140.831 7.26227C140.831 7.58579 140.955 7.78403 141.476 8.28442C141.831 8.62637 143.003 9.98384 144.082 11.3008C147.355 15.2987 150.78 18.5546 150.78 17.6695C150.78 17.5914 150.589 16.8316 150.356 15.9804C149.365 12.359 149.999 6.93212 151.542 5.84143C151.99 5.52527 152.845 5.63287 153.151 6.04409ZM246.522 5.97924C246.319 6.08683 246.13 6.19516 246.102 6.22022C246.074 6.24528 246.046 6.7125 246.04 7.25785C246.03 8.27558 245.763 8.76639 245.094 8.99411C244.924 9.05233 245.29 9.89393 245.659 10.2934C246.019 10.6847 247.665 10.1555 247.494 9.70453C247.455 9.60283 247.392 8.67722 247.354 7.64696C247.276 5.58718 247.273 5.58054 246.522 5.97924ZM46.2512 6.26296C47.6514 7.16131 47.8216 8.03828 46.7884 9.02875C46.4376 9.36406 46.2549 9.64484 46.2549 9.84603C46.2549 10.2189 44.5879 11.7533 44.0683 11.8579C43.8863 11.8948 43.4331 12.009 43.0616 12.1122C42.6902 12.2146 41.6703 12.4909 40.7948 12.726C38.9192 13.2294 39.0438 13.1439 39.2376 13.7924C39.3224 14.0769 39.4513 14.5728 39.5235 14.8934C39.6761 15.5707 39.6982 15.5751 40.8125 15.1808C42.5561 14.5647 44.1015 14.6053 45.2113 15.2965C45.3462 15.3805 45.6616 15.5147 45.9114 15.5935C47.7177 16.1661 47.5401 18.8958 45.6741 19.2333C45.3565 19.2908 45.0522 19.4809 44.7058 19.8384C44.1604 20.4014 43.4832 20.6822 42.3247 20.8259C41.0601 20.9829 41.063 20.7301 42.2849 24.5048C42.8774 26.3346 42.8376 26.3059 44.0086 25.7605C44.5348 25.5158 45.2416 25.2491 45.5798 25.168C45.9173 25.0869 46.3411 24.9174 46.5209 24.7922C47.0847 24.3994 47.5003 24.392 48.5438 24.7538C49.3471 25.0331 49.7149 25.0892 50.7267 25.0877C52.8808 25.0833 53.197 25.9359 51.7503 27.8476C51.4636 28.2256 51.0915 28.8167 50.9227 29.1608C50.4385 30.1461 48.1127 31.2051 46.0706 31.3702C45.5304 31.4137 44.5289 31.511 43.8458 31.5854L42.6033 31.7217L41.8206 31.3068C41.3387 31.0511 40.7211 30.5618 40.2119 30.0319L39.385 29.1719L38.4594 26.4083C37.0835 22.2998 37.057 22.2128 36.4696 20.0219C36.1704 18.9069 35.7577 17.4978 35.5521 16.8898C35.0384 15.371 34.4658 12.9331 34.4909 12.3752C34.5027 12.1217 34.4459 11.8483 34.3649 11.7673C34.1792 11.5815 34.1755 10.7296 34.3575 10.1836C34.754 8.99411 36.3347 8.19304 39.3047 7.6757C40.4469 7.47672 41.3475 7.1591 43.0005 6.36982C44.3263 5.73752 45.3786 5.70288 46.2512 6.26296ZM247.097 7.07287C247.08 7.6079 247.119 8.46056 247.186 8.96758C247.325 10.0354 247.335 10.0192 246.489 10.1128L245.842 10.1843L245.52 9.67358C245.327 9.36848 245.252 9.14518 245.332 9.11865C246.01 8.89241 246.417 7.97785 246.285 6.98002C246.213 6.43615 246.23 6.38751 246.549 6.21506C247.075 5.92986 247.132 6.0183 247.097 7.07287ZM91.6924 6.27844C90.8272 6.40593 89.9429 6.91959 89.2914 7.67496C88.9178 8.10756 88.6097 8.35296 88.4402 8.35296C87.7188 8.35296 86.9346 9.26162 86.6878 10.3833C86.5264 11.1143 86.5293 11.1291 87.3326 14.2677C87.9332 16.6149 88.1388 17.629 88.1388 18.2443C88.1388 20.0838 89.4933 25.0855 90.1935 25.8305C91.7352 27.4725 94.5061 25.8313 94.0669 23.5364C94.0079 23.2254 94.0249 23.2151 94.6034 23.2143C96.5563 23.2129 100.873 21.8141 101.669 20.9254C101.935 20.6284 102.509 19.3225 102.509 19.0145C102.509 18.716 101.866 18.0564 101.576 18.0564C101.457 18.0564 101.176 17.9901 100.951 17.909C100.634 17.7941 100.352 17.7933 99.6905 17.9068C99.0037 18.0247 98.6411 18.0203 97.8179 17.8825C97.2571 17.7882 96.5349 17.6747 96.2143 17.6305C95.5179 17.5347 95.5275 17.6408 96.0589 15.8876C96.7155 13.7217 96.9034 12.6369 96.812 11.541C96.5202 8.04491 94.4132 5.87901 91.6924 6.27844ZM93.9829 6.87537C95.2512 7.49957 96.0419 8.68827 96.4443 10.5756C96.7678 12.0945 96.6101 13.337 95.7361 16.1728C95.2659 17.6953 95.2865 17.769 96.207 17.8692C96.599 17.912 97.1694 17.9975 97.4731 18.0594C98.2439 18.2156 98.7428 18.2311 99.807 18.1301C100.999 18.0174 102.011 18.3062 102.188 18.8111C102.38 19.3593 101.738 20.6969 101.105 21.0654C99.3936 22.0625 96.9675 22.8068 94.9556 22.9513L93.8502 23.0308L93.8259 23.8113C93.7566 26.087 91.4153 27.2182 90.2274 25.5497C89.598 24.6661 88.3916 19.9467 88.3864 18.3497C88.385 17.7071 88.2192 16.8323 87.7578 15.0334C86.7651 11.1644 86.7651 11.1637 86.9568 10.3427C87.2206 9.21151 87.6502 8.74134 88.6046 8.53941C88.8927 8.47898 89.0961 8.31685 89.3113 7.9749C90.2215 6.53342 92.2967 6.04482 93.9829 6.87537ZM69.0916 7.43693C68.1748 7.59537 67.0495 7.86583 66.5903 8.03902C66.1305 8.21147 65.6212 8.35296 65.4576 8.35296C63.5084 8.35296 61.9262 12.7894 63.5438 13.718C63.8651 13.9022 63.9049 14.0069 64.042 15.0356C64.4163 17.8442 64.7421 19.7381 65.0987 21.1885C65.2284 21.7191 65.2601 22.2865 65.2093 23.2151C65.1326 24.6249 65.2056 24.9889 65.8961 26.6397C66.1047 27.1379 66.6928 28.8513 67.2035 30.4475C68.3988 34.1839 68.9176 34.8833 70.4925 34.8833C72.794 34.8833 73.724 33.1308 72.9694 30.2161C72.609 28.8226 72.5928 28.4239 72.8773 27.8704C73.4123 26.8298 73.1455 24.4517 72.326 22.9542C72.3025 22.9122 72.5199 22.7832 72.8073 22.6675C73.8346 22.257 76.0307 20.7175 77.1877 19.5974C80.7111 16.1868 78.369 14.8684 73.584 17.5678C72.4167 18.2259 70.707 18.9076 70.6097 18.7528C70.4689 18.5288 69.7474 16.2899 69.3554 14.8632C69.1608 14.1535 68.8292 13.1631 68.6177 12.6619C68.4069 12.1601 68.2772 11.712 68.3295 11.6656C68.4519 11.558 70.0599 11.3008 70.6126 11.3008C70.9708 11.3008 74.4072 10.3413 75.3726 9.97131C75.8398 9.79223 76.4699 9.01695 76.4699 8.62195C76.4699 7.69486 75.8354 7.41408 73.5199 7.31459C72.542 7.27259 71.5205 7.21805 71.2501 7.193C70.9796 7.16868 70.0083 7.27848 69.0916 7.43693ZM75.3033 7.64401C76.6947 8.15325 76.3505 9.46429 74.6894 9.98531C72.7078 10.6066 71.0224 11.0554 70.6708 11.0554C70.0901 11.0561 68.2153 11.4003 68.0841 11.5314C67.9729 11.6427 68.404 12.9818 68.7813 13.6959C68.8889 13.8985 68.9766 14.1616 68.9773 14.2795C68.9781 14.6237 70.3318 18.8391 70.4947 19.0071C70.6473 19.1648 72.5589 18.4227 73.7063 17.7602C76.296 16.2649 78.6808 15.92 78.6808 17.0409C78.6808 18.2016 75.1095 21.4376 72.6687 22.487C71.934 22.8031 71.9465 22.7368 72.4462 23.7066C72.9834 24.7472 73.0976 26.7429 72.6753 27.6972C72.3467 28.4408 72.3504 28.5919 72.7365 30.1867C73.2575 32.3408 73.161 33.1374 72.2737 33.9856C71.0135 35.1906 68.7717 34.6482 68.2588 33.0136C67.272 29.872 66.4105 27.2853 66.1209 26.5925C65.4119 24.899 65.238 23.9793 65.4252 22.9041C65.538 22.2578 65.5151 21.9881 65.2483 20.8156C65.0803 20.0749 64.8519 18.8884 64.7421 18.1795C64.6315 17.4698 64.462 16.3961 64.3647 15.7932C64.2675 15.1904 64.1879 14.5286 64.1879 14.323C64.1879 14.0349 64.067 13.8447 63.6654 13.4984L63.1436 13.0488L63.148 12.0215C63.1524 11.0723 63.1849 10.9426 63.5696 10.3184C63.7988 9.94699 64.0618 9.51587 64.1547 9.36038C64.378 8.98748 65.0287 8.59984 65.4318 8.5991C65.6095 8.5991 66.1349 8.4554 66.5984 8.27927C68.5499 7.5401 73.9451 7.14657 75.3033 7.64401ZM237.877 7.76414C237.815 7.92405 237.645 8.46793 237.497 8.972C237.35 9.47608 237.007 10.5977 236.736 11.4636C236.465 12.3303 236.28 13.0754 236.324 13.1196C236.411 13.2065 238.893 12.6015 239.566 12.3288C240.076 12.1225 240.093 12.2116 239.068 9.58957C238.267 7.53937 238.074 7.24385 237.877 7.76414ZM238.953 9.94994C239.859 12.2699 239.93 12.0362 238.162 12.5263C236.568 12.9678 236.554 12.9655 236.727 12.3185C237.084 10.9787 238.037 7.98448 238.106 7.98448C238.15 7.98448 238.531 8.86883 238.953 9.94994ZM91.4949 9.41196C91.1051 10.0074 91.2827 13.3149 91.7189 13.5846C92.0093 13.7644 92.929 11.3745 92.9283 10.4407C92.9275 9.27931 92.0122 8.62269 91.4949 9.41196ZM92.5104 9.64336C92.8546 10.1681 92.7853 10.8284 92.2289 12.3244C91.8531 13.3348 91.7882 13.2876 91.5236 11.8174C91.1839 9.93372 91.8044 8.56594 92.5104 9.64336ZM26.7875 11.2256C25.6416 11.7673 25.1979 12.5551 25.2259 14.0032C25.2436 14.9258 25.8737 17.8221 26.2348 18.6379C26.5598 19.3733 26.5591 19.377 25.9702 19.5355C25.6902 19.6106 25.1581 19.8067 24.7882 19.9695C23.6695 20.4648 23.6201 20.4154 23.3415 18.52C23.0047 16.228 22.5847 15.4889 21.1985 14.7497C20.3657 14.3061 19.7489 14.2383 19.3229 14.5426C19.1726 14.6502 18.925 14.8286 18.7732 14.9384C18.5101 15.1292 18.4968 15.1256 18.4968 14.8743C18.4968 13.8057 16.4297 12.2802 14.9874 12.2839C14.857 12.2846 14.4915 12.1925 14.1761 12.079L13.6012 11.8726L10.9821 12.5248C5.89271 13.7917 1.89622 15.2413 0.907226 16.1794C-0.714807 17.7196 0.870379 20.7927 2.70244 19.66C3.01786 19.4655 3.17851 19.4411 3.57426 19.5303C4.05475 19.6387 5.26777 19.5384 6.31351 19.3033C6.93697 19.1633 6.88023 18.985 7.07552 21.68C7.21185 23.5629 7.59433 26.3464 8.0026 28.4349C8.27822 29.8469 8.80441 32.2229 8.86115 32.315C8.88842 32.3585 9.12793 33.2295 9.39471 34.2509C10.6682 39.1325 13.5224 41.235 15.8836 39.0316C16.835 38.1443 16.8011 35.7499 15.7915 32.427C14.6263 28.5941 14.3389 27.5145 13.714 24.6271C13.5098 23.6816 13.1215 21.9409 12.8518 20.7588C12.1715 17.7749 12.2084 17.6879 14.1606 17.6879C14.2977 17.6879 14.5431 17.5833 14.7052 17.4558C15.0877 17.1551 16.748 16.4727 17.1261 16.4609C17.1497 16.4602 17.132 16.7247 17.0878 17.0483C16.9662 17.9297 17.3435 20.257 17.838 21.68C18.6302 23.9579 19.0812 25.8799 19.208 27.5137C19.5986 32.5692 21.8087 36.1913 24.6614 36.45C27.282 36.6873 28.9674 33.5914 27.296 31.6097C27.1169 31.3967 26.9172 30.9546 26.8524 30.6274C26.6586 29.6435 25.8899 27.6486 25.2362 26.4326C24.4337 24.9388 24.3158 25.0611 27.2275 24.3728C27.5245 24.3028 27.5621 24.3478 27.8237 25.0766C29.4582 29.6457 32.2439 32.5707 34.3067 31.8861C36.6347 31.1123 36.883 28.4821 35.0082 24.4399C34.4924 23.3271 33.933 22.1207 33.7657 21.7589C33.5992 21.397 33.0501 19.8855 32.5461 18.4006C31.6625 15.794 31.0427 14.3488 30.476 13.5743C30.3278 13.3709 30.1429 12.9825 30.0662 12.7113C29.8709 12.0215 29.1554 11.3686 28.3307 11.1276C27.4884 10.8814 27.5186 10.8792 26.7875 11.2256ZM28.3933 11.3708C29.1568 11.5926 29.672 12.1203 29.9144 12.9287C29.9977 13.2087 30.193 13.606 30.3477 13.8123C30.8798 14.5213 31.3714 15.6738 32.3007 18.3917C32.905 20.1612 33.6692 22.0536 34.4798 23.7929C35.757 26.5314 35.8439 26.8136 36.0156 28.7739C36.2043 30.9243 34.1917 32.4447 32.3906 31.5132C31.1171 30.8551 29.0787 27.8181 28.0809 25.0921C27.6689 23.966 27.7618 23.9896 25.7433 24.5048C24.0873 24.927 24.1323 24.8268 24.9245 26.3051C25.6349 27.6287 26.5082 29.8933 26.6615 30.8094C26.7146 31.1233 26.8951 31.5058 27.1022 31.7416C28.6867 33.5457 27.1619 36.366 24.6887 36.2068C21.9509 36.0314 19.8911 32.6297 19.4261 27.5137C19.2677 25.7789 18.7651 23.3647 18.4231 22.7014C17.7613 21.4177 17.1283 17.9923 17.3641 16.9731C17.4503 16.598 17.4548 16.3555 17.3766 16.2752C17.2263 16.1227 14.9852 16.878 14.6278 17.2015C14.4686 17.3453 14.0139 17.4742 13.3411 17.5656C12.7692 17.6437 12.2578 17.7336 12.2054 17.7661C12.0102 17.8869 12.1332 18.5819 13.1524 23.1495C14.1392 27.5668 14.5711 29.2397 15.58 32.5501C16.0074 33.9525 16.4164 36.1331 16.4112 36.9865C16.3965 39.4833 13.3875 40.5954 11.8414 38.6756C11.0101 37.6446 10.1221 36.1147 9.94226 35.4058C9.84351 35.0174 9.54578 33.9252 9.28048 32.9797C8.4234 29.9214 7.58696 25.2233 7.32387 21.9866C7.04604 18.562 7.29366 18.9128 5.37758 19.2392C4.43502 19.3999 4.08497 19.4117 3.60152 19.3004C3.06134 19.1758 2.96627 19.1869 2.68623 19.4072C1.71419 20.1715 0.317663 19.1162 0.47316 17.7351C0.638975 16.2671 1.62502 15.6002 5.49328 14.34C8.49857 13.3613 13.2792 12.1173 13.7066 12.2043C13.8754 12.2382 14.2623 12.3303 14.5659 12.4091C14.8703 12.4887 15.4502 12.6391 15.8556 12.7445C17.3214 13.1255 18.2507 13.9929 18.2507 14.9796C18.2507 15.5854 18.317 15.592 18.9965 15.0541C19.7592 14.4505 19.9862 14.4254 20.8698 14.8462C22.2884 15.522 22.766 16.3003 23.1028 18.4853C23.4314 20.6122 23.5707 20.7537 24.8059 20.2076C25.1847 20.0403 25.7492 19.8391 26.0594 19.761C26.7809 19.579 26.8207 19.4485 26.4382 18.5163C26.0012 17.4529 25.4662 14.9745 25.45 13.942C25.419 11.9957 26.6991 10.8778 28.3933 11.3708ZM231.638 33.7609C230.245 34.0792 230.093 34.1434 229.427 34.6931L228.713 35.2842L226.01 35.2031C224.524 35.1589 221.954 35.0675 220.299 35.0004C208.769 34.5317 181.522 34.3659 177.064 34.7373C176.085 34.8191 171.967 35.1353 167.914 35.4404C163.861 35.7455 158.665 36.1582 156.368 36.3572C154.071 36.5569 150.202 36.89 147.77 37.0971C145.338 37.3041 141.911 37.61 140.155 37.7758C138.399 37.9416 134.889 38.271 132.356 38.5083C116.316 40.011 110.754 40.6669 102.211 42.0626C100.383 42.3618 98.4436 42.6684 97.9035 42.7443C96.3109 42.9676 90.598 43.9316 88.0769 44.4025C86.7939 44.642 84.0885 45.1409 82.0656 45.5116C74.5782 46.8831 71.4594 48.1506 67.821 51.2989C67.286 51.7617 66.6685 52.293 66.4481 52.4795C66.0914 52.7824 65.6537 52.8973 62.3853 53.5451C55.7122 54.8687 52.02 55.8842 48.5704 57.347C46.2453 58.3323 46.476 58.423 46.2637 56.4391C46.1849 55.6963 45.9483 54.0507 45.7397 52.7824C45.5304 51.5148 45.3912 50.4455 45.4295 50.4072C45.5297 50.3069 47.5998 50.0335 49.905 49.8161C52.5285 49.5678 56.7874 48.2899 60.8716 46.5256C65.1577 44.6729 67.3317 42.3014 65.9809 40.9513C65.3044 40.2748 64.8084 40.3492 63.4767 41.325C62.3691 42.1363 60.1803 42.2999 52.7032 42.1304L50.0015 42.0685L47.7288 42.5269C46.4796 42.7782 44.7588 43.1762 43.9055 43.4098C42.4021 43.8218 42.3328 43.8299 41.6946 43.6596C39.6842 43.1253 39.1823 43.2698 37.7924 44.7872C36.3355 46.3775 35.9847 47.9907 36.2817 51.7351C36.3583 52.7013 36.4777 54.4589 36.5477 55.641C36.7452 58.9764 36.9155 61.3745 37.0407 62.5543C37.1763 63.8411 37.1837 63.8175 36.463 64.3614C33.4208 66.6548 30.3691 71.103 29.005 75.2314C23.8478 90.8379 35.7968 106.85 52.2124 106.329C56.9591 106.178 60.4324 105.053 65.0472 102.171C65.7568 101.728 66.4481 101.308 66.583 101.238C66.9618 101.042 70.2515 100.286 72.8471 99.7977C74.1301 99.5567 76.3137 99.1426 77.6984 98.8773C104.886 93.6707 114.75 92.3869 150.841 89.358C156.348 88.896 158.779 88.6734 165.58 88.0065C167.944 87.7751 171.123 87.4737 172.642 87.3358C174.163 87.1988 178.004 86.8355 181.179 86.5289C184.354 86.2223 188.637 85.8369 190.698 85.6733C192.758 85.5089 194.665 85.3453 194.935 85.31C197.441 84.9813 210.931 84.2252 216.982 84.0741C220.545 83.9857 226.97 83.6857 228.743 83.5251C229.503 83.4558 230.775 83.3416 231.568 83.2716C237.992 82.7012 241.518 81.7313 245.087 79.5529C262.069 69.184 259.617 44.0716 240.933 37.0271L239.275 36.4021L239.193 35.7374C239.045 34.5376 238.184 34.0254 236.313 34.0247C235.582 34.024 235.165 33.9576 234.758 33.7771C233.879 33.388 233.286 33.385 231.638 33.7609ZM234.808 34.0203C235.212 34.2038 235.619 34.2649 236.451 34.2694C239.782 34.2856 240.163 37.4081 236.879 37.7802C236.187 37.8583 236.042 37.9217 235.717 38.2887C235.513 38.5194 235.166 38.8193 234.946 38.9557C234.65 39.1384 234.546 39.291 234.546 39.5445C234.546 39.7324 234.444 40.0183 234.319 40.179C233.44 41.3058 233.265 43.4164 233.917 45.0134C234.473 46.3738 237.733 48.7999 243.307 52.0004C248.436 54.946 250.158 56.4074 251.397 58.8688C251.54 59.154 251.84 59.6699 252.064 60.0155C253.081 61.5867 253.025 64.6429 251.941 66.7837C250.442 69.7455 246.403 73.2512 241.356 75.9706C240.233 76.5756 238.541 76.2027 237.501 75.1201C237.167 74.7715 236.983 74.6787 236.63 74.6787C234.575 74.6787 233.765 71.7773 235.524 70.7213C235.764 70.5775 235.979 70.4456 236.002 70.4279C236.026 70.4103 235.896 70.089 235.713 69.7153C235.405 69.0845 235.391 68.9916 235.523 68.4382C235.785 67.3467 235.964 67.1773 237.801 66.2855C239.375 65.5213 241.504 64.2803 243.981 62.6818C244.608 62.278 245.196 61.9906 245.437 61.9722C246.346 61.8999 246.444 61.3907 245.693 60.6412C244.955 59.9043 243.638 59.1695 240.256 57.6057C232.215 53.8871 228.574 51.3917 226.381 48.0961C224.495 45.261 224.832 40.9366 227.216 37.4014C229.217 34.433 232.497 32.9723 234.808 34.0203ZM215.329 40.2321C217.568 40.8142 218.456 42.3213 217.677 44.2153C217.288 45.1578 216.891 45.3694 215.447 45.4025C214.408 45.4261 214.291 45.4556 213.723 45.8373C213.388 46.0621 212.643 46.4048 212.069 46.5978C209.541 47.449 206.821 48.8072 202.643 51.3062C201.363 52.0712 200.893 52.4161 200.893 52.5885C200.893 53.0948 202.442 55.641 202.75 55.641C202.82 55.641 203.411 55.3455 204.064 54.9851C210.199 51.5966 216.564 50.9783 218.994 53.5348C220.48 55.0971 218.887 58.1319 217.308 56.7464C216.767 56.2704 216.618 56.2799 215.393 56.8732C214.829 57.1458 214.003 57.4826 213.556 57.6227C212.098 58.0796 205.903 60.5992 205.841 60.7606C205.771 60.9441 207.339 63.1358 208.522 64.5095C209.37 65.4933 209.61 66.1146 209.424 66.853C209.311 67.3055 209.508 67.3423 210.261 67.0092C211.394 66.5081 212.681 66.3106 215.525 66.2023C218.414 66.0917 218.837 66.0527 220.457 65.7454C221.412 65.5648 221.616 65.5611 222.238 65.7151C222.624 65.8109 223.354 65.878 223.86 65.8647C224.377 65.8507 225.025 65.9156 225.334 66.0114C225.639 66.1065 226.086 66.217 226.328 66.2568C227.166 66.3968 227.583 67.1787 227.247 67.9827C227.141 68.237 227.054 68.5782 227.054 68.7411C227.054 69.4522 226.505 70.2931 225.703 70.809C225.466 70.9608 224.916 71.4044 224.48 71.795C223.079 73.0493 221.885 73.3234 217.794 73.3301C216.032 73.333 213.534 73.5666 210.657 73.9963C207.19 74.5143 206.371 74.3589 205.479 73.0161C205.2 72.5961 204.932 72.3381 204.72 72.2851C202.621 71.7633 201.775 70.8215 198.506 65.3658C195.329 60.0627 193.839 54.6903 194.951 52.5399C195.1 52.2525 195.124 51.9828 195.059 51.3711C194.986 50.6887 195.164 48.4424 195.439 46.5861C195.703 44.8056 198.47 44.88 198.757 46.6752C198.909 47.6237 198.999 47.6303 200.157 46.7799C203.313 44.4636 208.517 41.3036 210.35 40.591C211.738 40.0508 214.004 39.8879 215.329 40.2321ZM65.8637 41.1171C66.5454 41.8511 65.8829 43.199 64.2262 44.4504C61.5488 46.4733 53.7357 49.2236 49.51 49.6304C46.386 49.9318 45.2666 50.1087 45.1878 50.3143C45.1524 50.4064 45.2659 51.2967 45.4398 52.2938C45.6137 53.2901 45.8127 54.6034 45.882 55.2114C46.3072 58.9337 46.0979 58.7038 48.2483 57.8202C52.6995 55.9918 56.2207 55.0352 62.1974 54.033L65.0619 53.5525L66.4172 53.7964C69.2441 54.3056 70.4085 54.9438 71.1867 56.4111C71.7711 57.5121 71.1904 58.4252 69.984 58.3029C69.1549 58.2189 67.8026 58.4952 66.7672 58.9602C66.328 59.157 65.2903 59.4562 64.4605 59.6235C63.4819 59.8217 61.0905 60.5543 57.6437 61.7105C52.7187 63.3635 49.7009 64.2648 47.927 64.6127L47.2041 64.7541L47.2844 65.7137C47.3286 66.2413 47.5254 67.6592 47.7214 68.8641C47.9182 70.0698 48.1171 71.4847 48.1643 72.0094C48.269 73.1819 48.2019 73.1458 49.5903 72.7818C50.8188 72.4597 53.0953 72.0433 54.3002 71.9195C57.1573 71.6255 61.344 71.0492 67.3811 70.1192C71.0916 69.5473 71.6318 69.5466 72.8124 70.1103C73.2951 70.341 73.884 70.509 74.3858 70.5591C75.6725 70.6881 77.2069 71.9969 77.2069 72.966C77.2069 73.9506 76.0602 75.5453 75.2215 75.7259C74.671 75.8445 74.1765 76.1062 73.5737 76.5985C72.598 77.3958 72.1499 77.5108 68.8005 77.8247C62.9719 78.3708 57.1478 79.0857 55.4056 79.4696C52.1873 80.1778 48.095 80.3046 46.8496 79.7335C46.344 79.5013 46.3227 79.5013 45.6616 79.729C43.3365 80.5286 41.7845 79.4792 40.1345 75.9941C38.2995 72.1163 37.634 68.4669 36.9825 58.7119C36.8086 56.1112 36.5978 53.0462 36.5146 51.901C36.2493 48.242 36.4792 46.8359 37.5839 45.3657C38.8529 43.6773 39.6039 43.3811 41.4779 43.8299C42.2901 44.0244 42.4831 44.0325 42.9518 43.8925C44.1862 43.524 46.571 42.9765 48.5262 42.6131L50.6132 42.2248L53.8079 42.3619C60.3535 42.6426 62.4339 42.4149 63.9867 41.2483C64.7819 40.6506 65.3913 40.6079 65.8637 41.1171ZM186.787 42.9595C187.283 43.2513 187.868 44.2396 187.998 45.0023C188.185 46.107 189.054 48.0246 189.646 48.6399L190.178 49.1927L190.259 50.7896C190.478 55.0853 190.597 56.627 190.88 58.8342C192.146 68.6887 189.412 74.0663 183.57 73.2122C179.054 72.5511 174.418 67.4882 169.641 58.0007C166.736 52.2304 166.166 49.1241 167.713 47.4999C168.839 46.3178 170.756 46.7548 171.358 48.3304C171.473 48.6318 171.671 48.9119 171.798 48.9517C171.924 48.9915 172.258 49.4219 172.541 49.9068C175.763 55.4354 180.606 62.4504 181.319 62.6207C181.59 62.6848 181.615 58.0648 181.375 52.394C181.248 49.3806 181.238 49.4513 181.901 48.6584C182.135 48.3776 182.448 47.7777 182.599 47.3201C183.923 43.3066 185.171 42.0066 186.787 42.9595ZM98.3095 43.7996C99.9949 44.1806 100.587 45.0525 100.299 46.7327L100.14 47.6598L100.53 48.5051C100.842 49.1823 100.942 49.6061 101.033 50.6334C101.248 53.0904 101.599 54.9144 102.445 57.9749C104.666 66.0136 105.363 72.5769 104.239 74.8615C102.547 78.2986 99.5881 79.1653 95.8532 77.3185C91.6452 75.238 82.3191 64.1985 78.6823 56.994C76.7411 53.1494 78.2423 49.9694 81.5564 50.9039C81.9005 51.0011 82.4046 51.1382 82.678 51.2082C83.4791 51.4153 83.8748 51.9297 83.9389 52.8465C84.0008 53.7323 84.4364 54.4287 86.9472 57.6544C89.6245 61.0944 94.4884 66.514 94.7088 66.3032C94.7987 66.217 94.4177 64.2213 94.086 63.0422C93.9865 62.6877 93.6873 60.919 93.4206 59.1113C93.1545 57.3043 92.8538 55.2998 92.7529 54.6586C92.1007 50.5199 92.167 49.6916 93.3447 47.2611C94.865 44.1224 96.0574 43.2911 98.3095 43.7996ZM139.86 44.5042C140.782 44.9906 141.07 45.5462 141.218 47.113C141.287 47.8514 141.471 48.9804 141.628 49.6223C141.785 50.2642 141.947 51.3696 141.991 52.0793C142.526 60.8535 143.544 65.6827 145.303 67.7882C145.546 68.0778 145.743 68.3733 145.743 68.4441C145.743 68.6932 147.598 68.4492 148.753 68.0476C150.782 67.3423 153.439 66.7056 155.177 66.5088C156.102 66.4042 157.174 66.2583 157.56 66.1846C158.122 66.0777 158.423 66.0895 159.095 66.245C159.554 66.3511 160.427 66.4742 161.035 66.5184C163.934 66.7299 164.807 66.8839 165.111 67.2369C165.703 67.9267 165.374 68.7868 164.309 69.3269C163.354 69.8119 161.185 71.3027 160.729 71.7876C160.492 72.0397 159.805 72.4951 159.2 72.7995C158.596 73.1046 157.692 73.6027 157.193 73.9056C154.181 75.7347 149.124 77.3811 146.522 77.3811C143.623 77.3811 139.546 75.1142 138.116 72.7066C135.776 68.7691 134.822 64.1167 134.724 56.1731C134.632 48.8301 135.072 46.7349 137.084 44.9176C137.871 44.2072 138.983 44.0414 139.86 44.5042ZM119.004 45.1055C120.884 46.0142 121.336 46.5146 122.35 48.8131L123.182 50.6968L124.177 50.6828C125.639 50.6614 127.646 52.1029 128.43 53.7374C129.357 55.6661 128.932 64.1285 127.743 67.4322C124.216 77.2381 113.472 76.073 109.387 65.4425C106.992 59.2115 108.849 48.8603 112.87 46.0105C115.302 44.2882 116.843 44.0605 119.004 45.1055ZM116.9 52.3557C116.543 53.4707 116.408 54.1649 116.21 55.8864C116.113 56.7309 115.968 57.9469 115.889 58.5888C115.358 62.8661 116.69 66.8405 119.042 68.0034C120.176 68.5635 120.211 68.5406 120.649 66.9282C121.045 65.4727 121.193 60.5425 120.918 57.9565C120.735 56.2328 120.703 54.5989 120.845 54.212C120.973 53.8613 120.549 53.3646 119.483 52.6173C117.668 51.346 117.237 51.3018 116.9 52.3557Z" fill="#BCE3B3"/>
</svg>
