<svg width="344" height="82" viewBox="0 0 344 82" fill="none" xmlns="http://www.w3.org/2000/svg">
<path fill-rule="evenodd" clip-rule="evenodd" d="M244.478 0.0833696C233.994 0.231788 217.662 0.760584 210.921 1.1694C209.584 1.25117 207.226 1.38092 205.682 1.45913C201.379 1.67598 197.904 1.88661 195.812 2.05814C191.338 2.4243 190.245 2.50695 187.005 2.72291C183.492 2.95665 179.523 3.28015 176.984 3.53877C176.19 3.61965 174.72 3.75296 173.718 3.83561C171.533 4.01602 169.678 4.18399 166.43 4.49505C165.094 4.62392 163.283 4.79633 162.406 4.87809C161.529 4.96075 159.958 5.12961 158.913 5.25225C157.87 5.37579 156.127 5.57042 155.041 5.68507C152.896 5.91258 150.848 6.14543 145.931 6.72222C144.177 6.92841 142.127 7.16037 141.375 7.23946C140.624 7.31767 139.565 7.44743 139.022 7.5283C138.075 7.66872 136.629 7.84292 132.189 8.34949C131.061 8.47747 129.695 8.64367 129.153 8.71654C128.089 8.86052 126.823 9.0196 123.837 9.38398C119.4 9.92433 118.246 10.071 117.384 10.2034C116.883 10.2798 115.653 10.4478 114.651 10.5767C113.649 10.7055 112.111 10.9073 111.235 11.0237C108.677 11.3641 104.805 11.8467 100.605 12.3497C99.6449 12.4652 97.493 12.731 95.8221 12.9407C92.9377 13.3024 90.4304 13.6037 87.8093 13.9041C87.1606 13.9787 86.409 14.0774 86.1393 14.1227C85.8696 14.1689 85.0342 14.2711 84.2825 14.3493C83.5309 14.4276 82.1643 14.5893 81.245 14.7084C80.3267 14.8275 78.7897 15.0266 77.8285 15.1501C76.8683 15.2745 75.5017 15.4416 74.792 15.5216C73.3543 15.6842 69.1069 16.1926 67.3513 16.413C66.7254 16.4912 65.7341 16.5943 65.1501 16.6414C64.5652 16.6885 63.7107 16.7889 63.2515 16.8654C62.5053 16.9889 61.1342 17.148 56.874 17.6066C56.1643 17.683 54.4907 17.8501 53.1541 17.9781C51.8176 18.106 49.734 18.306 48.5232 18.4224C45.2907 18.7326 40.5659 19.1201 34.0218 19.6098C27.6889 20.0844 25.6527 20.3208 22.5578 20.9384C21.5966 21.1304 20.2109 21.3286 19.4775 21.3801C1.60876 22.6341 -6.52888 43.9407 6.15224 56.2665C12.0304 61.9793 19.5422 63.6048 29.7698 61.375C31.7896 60.9351 40.996 60.1183 41.2328 60.3583C41.303 60.4294 41.4315 61.4879 41.5171 62.7099C41.6957 65.2454 41.7467 65.4196 43.1033 68.0592C44.6348 71.0409 46.7065 74.283 47.4472 74.8562C48.3118 75.5254 52.0873 77.7117 54.2174 78.7755C59.3476 81.3404 60.49 81.5217 71.5276 81.5217C79.176 81.5208 79.7135 81.4942 86.1803 80.7787C87.3073 80.6534 88.8452 80.4872 89.5968 80.4073C90.3484 80.3282 91.1347 80.2295 91.3433 80.1886C91.5519 80.1469 92.3373 80.0509 93.0889 79.9744C95.8822 79.6909 97.5212 79.5105 98.5553 79.3728C99.1402 79.2954 100.473 79.1292 101.516 79.0031C102.56 78.8777 103.893 78.7107 104.477 78.6333C105.062 78.5551 107.59 78.253 110.096 77.9615C116.573 77.2078 118.294 77.0078 119.586 76.8576C120.212 76.7848 121.784 76.591 123.078 76.4257C124.373 76.2613 126.73 75.9867 128.317 75.816C133.858 75.2206 135.31 75.0642 136.441 74.938C140.837 74.4483 149.06 73.7053 156.18 73.1525C158.282 72.9899 163.519 72.645 167.493 72.4095C172.062 72.1376 186.827 71.9332 195.946 72.014C205.954 72.1038 206.715 72.0478 209.933 70.9902C217.086 68.6386 222.797 62.0824 223.836 55.033C223.974 54.09 223.965 54.0927 227.775 53.9034C229.529 53.8172 232.126 53.6803 233.545 53.6003C239.631 53.2564 246.647 52.94 256.625 52.5605C262.457 52.3383 268.778 52.0842 282.287 51.5287C284.125 51.4531 287.028 51.3216 288.74 51.2363C290.452 51.151 293.288 51.0114 295.042 50.9261C299.382 50.7146 306.903 50.2134 309.316 49.9752C309.733 49.9334 311.168 49.7974 312.505 49.6721C313.84 49.5477 315.343 49.3833 315.845 49.3086C316.346 49.2331 317.576 49.0651 318.578 48.9354C325.827 47.9951 329.633 46.7046 334.551 43.5203C337.765 41.4389 338.75 40.1591 341.84 34.0482L343.076 31.6041L343.417 28.7504C343.77 25.7989 343.719 23.7726 343.232 21.3881C342.484 17.7248 342.228 16.9311 341.341 15.5269C337.796 9.91811 333.56 6.8973 325.639 4.32975C322.567 3.33436 316.655 2.32743 310.15 1.69287C308.94 1.57467 307.231 1.4067 306.355 1.3196C303.003 0.987212 294.848 0.520626 286.843 0.203347C281.775 0.00249324 255.43 -0.072159 244.478 0.0833696Z" fill="#BCE3B3"/>
</svg>
