<svg width="356" height="250" viewBox="0 0 356 250" fill="none" xmlns="http://www.w3.org/2000/svg">
<g clip-path="url(#clip0)">
<g clip-path="url(#clip1)">
<g clip-path="url(#clip2)">
<path d="M313.19 110.618C314.699 111.221 316.372 110.935 317.855 110.392C318.736 111.128 319.251 112.296 320.441 112.635C319.163 116.573 318.208 120.619 317.664 124.725C315.796 122.884 313.751 121.219 311.551 119.79C312.866 119.644 314.257 119.187 315.056 118.065C316.12 116.613 315.884 114.614 315.152 113.072C314.677 112.128 314.005 111.286 313.19 110.618Z" fill="white"/>
<path d="M322.329 113.02C322.699 113.494 323.086 113.959 323.511 114.391C323.574 115.353 323.783 116.397 324.588 117.03C325.37 117.786 326.512 117.786 327.53 117.801C325.352 119.63 322.908 121.129 320.325 122.312C320.833 119.183 321.489 116.076 322.329 113.02Z" fill="white"/>
<path d="M323.499 150.346C324.797 150.912 326.339 151.338 327.636 150.517C327.247 152.626 327.204 154.781 327.347 156.919C325.868 154.849 324.568 152.654 323.499 150.346Z" fill="white"/>
<path d="M321.802 74.698C323.016 72.6286 325.048 70.7023 327.578 70.632C330.247 70.6119 332.472 72.5306 333.861 74.6528L333.883 74.6904C331.705 75.3936 329.807 76.9406 328.723 78.9548C328.222 79.4721 327.702 79.9643 327.219 80.4943C325.916 78.1888 324.291 75.8331 321.766 74.7557L321.802 74.698Z" fill="#BF325D"/>
<path d="M305.43 92.1625C306.046 90.4522 307.374 89.1236 308.805 88.0538L308.83 88.1417C309.901 91.4216 312.949 93.6417 316.075 94.7995C313.764 96.2209 311.252 97.8207 310.286 100.503L310.246 100.485C308.332 99.6012 306.549 98.2149 305.608 96.2912C304.972 95.0155 304.919 93.4885 305.43 92.1625Z" fill="#BF325D"/>
<path d="M343.409 91.6602C344.778 90.731 345.894 89.4728 346.686 88.0262C348.12 89.0684 349.47 90.3367 350.165 92.0017C350.796 93.4357 350.778 95.146 350.039 96.5348C349.345 97.9538 348.12 99.0036 346.852 99.9027C345.914 96.9969 343.704 94.6538 341.013 93.2675C341.772 92.6773 342.607 92.1952 343.409 91.6602Z" fill="#BF325D"/>
<path d="M329.057 106.078C330.292 108.281 331.71 110.488 333.903 111.857C333.252 112.814 332.5 113.695 331.672 114.504C331.054 114.928 330.405 115.305 329.774 115.705C328.612 116.054 327.357 116.282 326.172 115.915C325.176 115.629 324.301 115.042 323.511 114.391C323.086 113.959 322.699 113.494 322.329 113.02C322.224 112.889 322.126 112.759 322.03 112.631C324.57 112.028 326.547 110.112 327.965 108.007C328.544 108.557 329.218 108.992 329.917 109.376C329.369 108.763 328.778 108.188 328.277 107.535C328.534 107.048 328.788 106.56 329.057 106.078Z" fill="#BF325D"/>
<path d="M320.036 75.0999C320.501 74.6353 321.203 74.7433 321.802 74.6981L321.766 74.7559C321.125 75.8559 320.725 77.0714 320.383 78.2919C320.305 78.312 320.147 78.3522 320.066 78.3723C319.724 78.2166 319.387 78.0634 319.053 77.9102C319.174 76.9283 319.272 75.8207 320.036 75.0999Z" fill="#FEA0BA"/>
<path d="M343.968 85.2383L344.079 85.2509C344.936 85.4116 345.885 85.6928 346.423 86.4362C346.782 86.8783 346.619 87.471 346.629 87.9933C345.593 87.4056 344.516 86.8758 343.372 86.5367C343.568 86.1022 343.767 85.6703 343.968 85.2383Z" fill="#FEA0BA"/>
<path d="M310.245 100.485L310.286 100.503C311.344 100.947 312.454 101.289 313.593 101.464C313.319 101.982 313.047 102.499 312.775 103.017C312.039 102.803 311.209 102.66 310.675 102.065C310.271 101.64 310.328 101.018 310.245 100.485Z" fill="#FEA0BA"/>
<path d="M333.861 74.653C335.196 74.4822 336.68 74.8891 337.367 76.1398C337.812 76.637 337.817 77.7094 338.639 77.6968C338.531 77.742 338.312 77.83 338.204 77.8751C337.321 78.2368 336.469 78.6688 335.669 79.1861C335.302 77.6089 334.756 76.0619 333.883 74.6907L333.861 74.653Z" fill="#FFB9D1"/>
<path d="M309.156 85.572C309.815 84.5524 310.965 83.9697 312.111 83.6734L312.184 83.6533C312.506 84.5247 312.936 85.351 313.452 86.1245C311.8 86.4911 310.175 87.0989 308.829 88.1412L308.804 88.0533C308.626 87.222 308.663 86.2928 309.156 85.572Z" fill="#FFB9D1"/>
<path d="M343.327 101.334C344.522 101.055 345.646 100.546 346.725 99.9705C346.752 100.701 346.78 101.487 346.367 102.13C345.945 102.906 345.05 103.218 344.519 103.901C344.499 103.853 344.461 103.758 344.444 103.71C344.112 102.899 343.717 102.115 343.327 101.334Z" fill="#FFB9D1"/>
<path d="M318.095 110.305C318.904 109.991 319.697 109.617 320.449 109.172C320.642 109.74 320.836 110.31 321.075 110.865C320.866 111.452 320.667 112.045 320.479 112.64L320.441 112.635C319.251 112.296 318.736 111.128 317.856 110.393C317.916 110.37 318.034 110.327 318.095 110.305Z" fill="#FFB9D1"/>
<path d="M320.383 78.2915C320.725 77.0709 321.125 75.8554 321.767 74.7554C324.292 75.8328 325.916 78.1885 327.219 80.494C326.527 81.2826 325.977 82.1917 325.572 83.1586C324.918 82.3876 324.249 81.6317 323.52 80.9335C322.546 79.9641 321.334 79.281 320.383 78.2915Z" fill="#E6507D"/>
<path d="M327.473 81.4614C328.643 83.0636 328.824 85.113 329.223 86.9965C329.093 87.2703 328.969 87.5465 328.854 87.8253C328.197 87.7701 327.539 87.7675 326.89 87.8228C326.46 85.7007 326.653 83.468 327.473 81.4614Z" fill="#E6507D"/>
<path d="M337.618 85.9667C338.657 85.6302 339.736 85.457 340.814 85.2761C339.907 88.6515 336.873 91.3939 333.431 92.0117C333.111 90.9796 332.55 90.0227 331.773 89.2692C333.463 87.7674 335.498 86.7227 337.618 85.9667Z" fill="#E6507D"/>
<path d="M341.094 86.0923C341.856 86.2103 342.625 86.3258 343.372 86.5368C344.517 86.8759 345.593 87.4057 346.629 87.9934L346.687 88.026C345.895 89.4726 344.778 90.7308 343.41 91.6601C342.608 92.195 341.773 92.6772 341.013 93.2674C339.97 92.74 338.863 92.3658 337.772 91.969C339.67 90.6002 340.772 88.3726 341.094 86.0923Z" fill="#E6507D"/>
<path d="M316.075 94.7989C317.943 95.5423 319.968 95.5322 321.945 95.6252C320.094 96.9412 318.784 98.9854 318.494 101.248C316.877 101.532 315.225 101.63 313.593 101.464C312.453 101.288 311.344 100.947 310.286 100.502C311.251 97.8201 313.764 96.2203 316.075 94.7989Z" fill="#E6507D"/>
<path d="M319.656 100.744C320.484 99.1617 321.691 97.7829 323.18 96.791C323.507 97.1953 323.864 97.577 324.254 97.9286C322.901 99.1165 321.444 100.304 319.656 100.744Z" fill="#E6507D"/>
<path d="M327.385 99.2141C327.918 99.2015 328.457 99.1688 328.992 99.1036C329.827 102.873 332.312 106.105 335.39 108.366C334.993 109.569 334.508 110.741 333.904 111.857C331.711 110.488 330.293 108.28 329.058 106.078C328.404 104.335 327.682 102.574 327.546 100.698C327.503 100.201 327.458 99.7063 327.385 99.2141Z" fill="#E6507D"/>
<path d="M328.723 78.9544C329.806 76.9403 331.705 75.3933 333.883 74.6901C334.756 76.0613 335.302 77.6083 335.669 79.1855C333.581 80.5969 331.662 82.4076 330.566 84.708C330.086 85.4514 329.59 86.1898 329.223 86.996C328.823 85.1124 328.642 83.0631 327.473 81.4609C327.928 80.3583 328.725 79.4542 329.547 78.6053C329.266 78.7184 328.992 78.8339 328.723 78.9544Z" fill="#E56B92"/>
<path d="M313.452 86.1244C315.358 85.71 317.317 85.9662 319.214 86.3153C319.649 88.332 320.944 90.0372 322.531 91.3105C322.093 92.5787 322.03 93.9701 322.408 95.2634C322.247 95.3815 322.093 95.502 321.945 95.625C319.968 95.5322 317.944 95.5422 316.075 94.7988C312.949 93.6411 309.901 91.4209 308.83 88.1411C310.175 87.0988 311.8 86.4911 313.452 86.1244Z" fill="#E56B92"/>
<path d="M333.609 93.8248C335.083 93.4331 336.529 92.8705 337.771 91.9689C338.863 92.3657 339.97 92.7399 341.013 93.2673C343.704 94.6536 345.915 96.9968 346.853 99.9025C346.823 99.92 346.757 99.9527 346.725 99.9703C345.646 100.545 344.522 101.055 343.327 101.334C341.149 101.864 338.835 101.836 336.69 101.181C336.356 101.055 336.097 100.789 335.825 100.586C338.569 101.203 341.506 100.43 343.709 98.7196C342.625 99.0687 341.559 99.5333 340.41 99.6087C337.568 99.7618 334.613 98.7949 332.641 96.6929C333.174 95.8239 333.504 94.837 333.609 93.8248Z" fill="#E56B92"/>
<path d="M326.683 102.15C327.008 101.691 327.32 101.216 327.546 100.699C327.682 102.575 328.404 104.335 329.058 106.078C328.788 106.56 328.534 107.048 328.278 107.535C327.237 105.945 326.739 104.039 326.683 102.15Z" fill="#E56B92"/>
<path d="M325.518 104.453C326.037 105.812 326.909 107.012 327.966 108.007C326.547 110.111 324.57 112.028 322.03 112.63L321.94 112.643C321.645 112.05 321.344 111.463 321.075 110.865C320.836 110.31 320.642 109.74 320.448 109.172C322.445 107.972 324.103 106.287 325.518 104.453Z" fill="#E56B92"/>
<path d="M311.598 78.7236C311.946 77.719 312.941 77.0836 313.965 76.9455C315.71 76.6893 317.476 77.1815 319.053 77.9099C319.03 79.1078 319.168 80.3007 319.405 81.476C319.231 82.2897 319.083 83.1135 319.035 83.9498C316.814 83.3345 314.438 83.0382 312.184 83.6534L312.111 83.6735C311.541 82.1089 311.033 80.361 311.598 78.7236Z" fill="#F93871"/>
<path d="M338.639 77.6964C340.188 77.0685 341.966 76.7069 343.603 77.2192C344.569 77.5181 345.301 78.3896 345.457 79.384C345.819 81.4359 344.977 83.4476 344.079 85.2507L343.968 85.2382C343.033 85.1553 342.097 85.1603 341.164 85.1603C341.144 84.7559 341.116 84.3567 341.083 83.9548C340.983 84.3918 340.907 84.8363 340.814 85.2758C339.735 85.4566 338.657 85.6299 337.618 85.9665C338.008 84.5827 338.425 83.1964 338.513 81.7523L338.516 81.7147C338.619 80.4263 338.473 79.1329 338.204 77.8747C338.312 77.8295 338.531 77.7416 338.639 77.6964Z" fill="#F93871"/>
<path d="M312.775 103.017C314.657 103.142 316.538 102.906 318.369 102.464C318.354 102.62 318.321 102.929 318.306 103.084C317.348 105.362 317.4 107.962 318.095 110.305C318.034 110.327 317.916 110.37 317.856 110.393C316.372 110.935 314.699 111.221 313.19 110.619C312.962 110.46 312.743 110.305 312.524 110.149C310.917 108.052 311.8 105.196 312.775 103.017Z" fill="#F93871"/>
<path d="M336.625 103.479C339.124 104.34 341.908 104.569 344.444 103.71C344.461 103.757 344.499 103.853 344.519 103.9C345.206 105.653 345.683 107.783 344.723 109.524C343.88 110.942 341.981 111 340.535 110.724C339.715 110.548 338.916 110.284 338.159 109.935C337.827 109.777 337.502 109.609 337.185 109.441L337.12 109.408C337.392 107.414 337.05 105.422 336.625 103.479Z" fill="#F93871"/>
<path d="M319.053 77.9096C319.388 78.0628 319.725 78.216 320.067 78.3717C320.147 78.3516 320.305 78.3114 320.383 78.2913C321.334 79.2808 322.546 79.9639 323.52 80.9333C324.249 81.6315 324.918 82.3874 325.572 83.1584C324.971 84.7029 325.013 86.3956 325.215 88.013C323.557 86.6392 322.043 84.8988 319.855 84.389C319.523 83.2011 319.657 81.9605 319.707 80.7475C319.631 80.9308 319.481 81.2925 319.405 81.4758C319.169 80.3004 319.03 79.1076 319.053 77.9096Z" fill="#FD5384"/>
<path d="M341.164 85.1606C342.097 85.1606 343.033 85.1557 343.968 85.2385C343.767 85.6705 343.568 86.1024 343.372 86.5369C342.625 86.3259 341.856 86.2104 341.094 86.0924C341.124 85.7809 341.147 85.4696 341.164 85.1606Z" fill="#FD5384"/>
<path d="M324.254 97.9283C324.543 98.1543 324.842 98.3602 325.156 98.5612C323.806 99.8746 322.191 100.877 320.484 101.658C320.059 101.869 319.583 101.881 319.126 101.899C319.279 101.504 319.458 101.118 319.656 100.744C321.444 100.304 322.901 99.1162 324.254 97.9283Z" fill="#FD5384"/>
<path d="M328.992 99.1039C329.412 98.9933 329.834 98.8628 330.247 98.7046C331.776 100.935 334.087 102.58 336.625 103.479C337.05 105.423 337.392 107.414 337.12 109.408C336.76 109.215 336.401 109.016 336.056 108.813C335.827 108.67 335.599 108.514 335.39 108.366C332.312 106.106 329.827 102.873 328.992 99.1039Z" fill="#FD5384"/>
<path d="M313.593 101.464C315.225 101.63 316.877 101.532 318.494 101.248C318.439 101.65 318.401 102.057 318.369 102.464C316.538 102.906 314.657 103.142 312.776 103.016C313.047 102.499 313.319 101.981 313.593 101.464Z" fill="#FD5384"/>
<path d="M335.669 79.1857C336.468 78.6684 337.321 78.2364 338.204 77.8748C338.473 79.133 338.619 80.4263 338.515 81.7147C335.596 81.5665 332.55 82.4806 330.566 84.7083C331.662 82.4079 333.581 80.5971 335.669 79.1857Z" fill="#FC6D9B"/>
<path d="M335.07 82.8528C336.119 82.2274 337.344 82.0416 338.513 81.7527C338.425 83.1968 338.008 84.5831 337.618 85.9669C335.498 86.7229 333.463 87.7676 331.773 89.2694C331.363 88.9329 330.926 88.6365 330.476 88.3678C331.273 86.0473 332.973 84.0984 335.07 82.8528Z" fill="#FC6D9B"/>
<path d="M312.184 83.6536C314.438 83.0384 316.814 83.3347 319.035 83.95C319.025 84.7411 319.08 85.5347 319.214 86.3157C317.317 85.9667 315.358 85.7105 313.452 86.1249C312.936 85.3514 312.506 84.5251 312.184 83.6536Z" fill="#FC6D9B"/>
<path d="M319.855 84.3895C322.043 84.8994 323.557 86.6398 325.214 88.0135C325.262 88.0813 325.358 88.2169 325.406 88.2847C324.918 88.5609 324.452 88.8749 324.022 89.2316C323.177 88.4705 322.3 87.6995 321.188 87.363C320.6 86.4438 320.157 85.4368 319.855 84.3895Z" fill="#FC6D9B"/>
<path d="M330.247 98.7043C330.639 98.4959 331.029 98.2724 331.398 98.0162C332.684 99.1564 334.193 100.035 335.825 100.585C336.096 100.789 336.355 101.055 336.69 101.181C338.835 101.836 341.149 101.864 343.327 101.334C343.717 102.115 344.111 102.898 344.443 103.71C341.908 104.568 339.124 104.34 336.625 103.478C334.087 102.579 331.776 100.934 330.247 98.7043Z" fill="#FC6D9B"/>
<path d="M325.157 98.5613C325.232 98.589 325.378 98.6467 325.454 98.6743C325.019 100.565 324.865 102.592 325.519 104.453C324.103 106.286 322.446 107.972 320.449 109.172C319.697 109.617 318.905 109.991 318.095 110.305C317.401 107.962 317.348 105.362 318.306 103.084C318.392 103.76 318.518 104.431 318.658 105.099C318.741 104.024 318.782 102.929 319.126 101.899C319.584 101.881 320.059 101.869 320.484 101.658C322.192 100.877 323.806 99.8748 325.157 98.5613Z" fill="#FC6D9B"/>
<path d="M328.722 78.9543C328.991 78.8338 329.266 78.7183 329.547 78.6052C328.725 79.4541 327.928 80.3582 327.472 81.4607C326.653 83.4673 326.459 85.7 326.889 87.8221C326.381 87.9427 325.886 88.0984 325.405 88.2842C325.357 88.2164 325.262 88.0808 325.214 88.013C325.013 86.3956 324.97 84.703 325.571 83.1584C325.976 82.1916 326.527 81.2824 327.218 80.4939C327.701 79.9639 328.222 79.4717 328.722 78.9543Z" fill="#EBFF5D"/>
<path d="M319.707 80.7476C319.656 81.9606 319.523 83.2012 319.855 84.3891C320.157 85.4363 320.599 86.4435 321.188 87.3626C321.761 88.337 322.554 89.1608 323.436 89.864C323.092 90.3186 322.792 90.8058 322.531 91.3106C320.944 90.0372 319.649 88.332 319.214 86.3154C319.08 85.5344 319.025 84.7407 319.035 83.9496C319.083 83.1133 319.231 82.2896 319.405 81.4759C319.48 81.2925 319.631 80.9309 319.707 80.7476Z" fill="#EBFF5D"/>
<path d="M330.566 84.7088C332.55 82.4811 335.596 81.567 338.516 81.7152L338.513 81.7528C337.344 82.0417 336.119 82.2275 335.07 82.8529C332.973 84.0985 331.273 86.0474 330.476 88.3679C329.947 88.1444 329.404 87.9635 328.854 87.8254C328.969 87.5466 329.092 87.2704 329.223 86.9967C329.59 86.1905 330.086 85.4521 330.566 84.7088Z" fill="#EBFF5D"/>
<path d="M341.084 83.9549C341.117 84.3568 341.144 84.756 341.164 85.1604C341.147 85.4693 341.124 85.7807 341.094 86.0921C340.772 88.3725 339.671 90.6001 337.772 91.9688C336.529 92.8704 335.083 93.433 333.61 93.8247C333.579 93.2145 333.537 92.6092 333.431 92.0115C336.874 91.3937 339.907 88.6512 340.815 85.2759C340.908 84.8364 340.983 84.3919 341.084 83.9549Z" fill="#EBFF5D"/>
<path d="M322.408 95.2633C322.622 95.7907 322.881 96.303 323.18 96.7903C321.691 97.7823 320.484 99.161 319.656 100.743C319.458 101.117 319.279 101.504 319.126 101.898C318.781 102.928 318.741 104.023 318.658 105.098C318.517 104.43 318.391 103.759 318.306 103.084C318.321 102.928 318.354 102.619 318.369 102.464C318.401 102.057 318.439 101.65 318.495 101.248C318.784 98.9852 320.094 96.941 321.945 95.625C322.093 95.5019 322.247 95.3813 322.408 95.2633Z" fill="#EBFF5D"/>
<path d="M332.641 96.6928C334.613 98.7949 337.568 99.7618 340.41 99.6085C341.559 99.5332 342.625 99.0686 343.709 98.7195C341.506 100.43 338.569 101.203 335.825 100.586C334.193 100.035 332.684 99.1565 331.399 98.0163C331.844 97.6095 332.264 97.17 332.641 96.6928Z" fill="#EBFF5D"/>
<path d="M325.453 98.674C325.986 98.8775 326.537 99.0357 327.1 99.1563C326.859 100.136 326.65 101.133 326.683 102.15C326.738 104.038 327.236 105.945 328.277 107.534C328.778 108.187 329.369 108.762 329.917 109.375C329.218 108.991 328.544 108.556 327.965 108.006C326.909 107.012 326.036 105.811 325.518 104.453C324.865 102.592 325.018 100.565 325.453 98.674Z" fill="#EBFF5D"/>
<path d="M321.188 87.3626C322.299 87.6991 323.177 88.4701 324.022 89.2311C323.876 89.3893 323.582 89.7057 323.436 89.864C322.553 89.1608 321.761 88.3371 321.188 87.3626Z" fill="#E56B93"/>
<path d="M326.889 87.8229C327.538 87.7677 328.197 87.7701 328.854 87.8254C329.404 87.9636 329.948 88.1443 330.476 88.3679C330.926 88.6366 331.363 88.933 331.773 89.2695C332.551 90.0229 333.111 90.9798 333.431 92.012C333.536 92.6096 333.579 93.2149 333.609 93.8252C333.504 94.8373 333.174 95.8242 332.641 96.6933C332.264 97.1704 331.844 97.6099 331.399 98.0168C331.029 98.2729 330.639 98.4964 330.247 98.7048C329.834 98.8631 329.412 98.9937 328.992 99.1042C328.456 99.1695 327.918 99.2021 327.385 99.2147L327.101 99.1569C326.537 99.0364 325.987 98.8782 325.453 98.6747C325.378 98.6471 325.232 98.5893 325.157 98.5617C324.842 98.3608 324.543 98.1549 324.254 97.9289C323.864 97.5772 323.507 97.1955 323.18 96.7912C322.881 96.304 322.622 95.7917 322.408 95.2642C322.031 93.9709 322.093 92.5795 322.531 91.3112C322.793 90.8064 323.092 90.3193 323.436 89.8647C323.582 89.7065 323.877 89.3901 324.022 89.2318C324.453 88.8752 324.918 88.5612 325.406 88.285C325.886 88.0992 326.381 87.9435 326.889 87.8229ZM328.157 90.0405C326.241 90.5553 325.582 93.0969 326.62 94.6665C327.636 96.329 330.368 96.3968 331.525 94.8499C332.307 93.8076 332.344 92.2806 331.645 91.1857C330.933 90.033 329.399 89.6688 328.157 90.0405Z" fill="#FFF100"/>
<path d="M328.157 90.0398C329.4 89.668 330.934 90.0323 331.645 91.185C332.344 92.2799 332.307 93.8069 331.525 94.8491C330.368 96.3961 327.637 96.3283 326.621 94.6658C325.582 93.0961 326.241 90.5546 328.157 90.0398Z" fill="#FFEEA8"/>
<path d="M327.101 99.1566L327.385 99.2143C327.458 99.7065 327.503 100.201 327.546 100.699C327.32 101.216 327.008 101.691 326.683 102.15C326.651 101.133 326.859 100.136 327.101 99.1566Z" fill="#FA6F96"/>
<path d="M333.904 111.856C334.507 110.741 334.993 109.568 335.39 108.365C335.599 108.514 335.828 108.669 336.057 108.812C335.898 109.217 335.73 109.621 335.554 110.018C336.034 110.046 336.517 110.078 337.007 110.108C336.977 110.211 336.917 110.412 336.887 110.513C336.535 111.51 335.609 112.364 334.482 112.05C334.337 112.002 334.05 111.906 333.904 111.856Z" fill="#F09169"/>
<path d="M302.879 109.441C306.015 108.486 309.616 108.499 312.524 110.149C312.742 110.305 312.961 110.46 313.19 110.619C314.005 111.287 314.676 112.128 315.152 113.072C315.112 114.104 315.069 115.139 314.951 116.166C314.02 115.184 313.102 114.097 311.719 113.773C312.559 114.418 313.63 115.003 313.882 116.126C314.194 117.1 313.577 118.351 312.488 118.421C311.985 118.334 311.814 117.816 311.628 117.417C311.246 116.523 310.922 115.536 310.129 114.911C309.174 114.089 307.896 113.795 306.664 113.816C307.813 114.132 309.078 114.436 309.858 115.418C310.678 116.417 311.4 117.937 310.524 119.122C307.516 117.339 304.333 115.797 300.94 114.903C303.965 115.975 306.956 117.316 309.44 119.386C309.468 120.426 309.692 121.654 308.882 122.477C307.838 123.587 306.07 123.397 304.846 122.711C302.977 121.772 302.195 119.622 300.439 118.54C298.739 117.487 296.637 117.216 294.678 117.46L294.446 117.485C295.664 113.607 299.024 110.604 302.879 109.441Z" fill="#63CF00"/>
<path d="M336.886 110.513C337.309 110.319 337.731 110.126 338.159 109.935C338.916 110.284 339.715 110.548 340.535 110.724C340.89 113.157 341.174 115.706 340.472 118.107C340.077 119.546 338.911 120.762 337.419 121.053C335.292 121.533 332.797 121.555 330.976 120.197C329.92 119.428 329.827 118.037 329.957 116.847C333.345 117.08 336.391 115.048 338.697 112.766C337.17 113.584 335.654 114.574 333.883 114.737C333.579 114.742 332.87 114.797 332.978 114.313C333.109 113.383 333.916 112.745 334.482 112.05C335.608 112.364 336.534 111.51 336.886 110.513Z" fill="#63CF00"/>
<path d="M306.448 129.088C308.073 129.278 309.7 129.658 311.159 130.426C312.612 131.122 313.611 132.428 314.508 133.721C315.087 134.826 315.296 136.107 315.225 137.348C314.151 141.17 310.032 143.435 306.219 143.229C302.055 141.529 297.731 140.241 293.348 139.249C292.264 138.99 291.172 138.772 290.063 138.684C295.088 140.125 300.002 141.949 304.746 144.143C305.213 145.015 305.598 146.019 305.286 147.014C304.66 149.169 302.703 150.626 300.749 151.529C298.77 152.457 296.459 152.642 294.371 151.971C290.803 150.859 287.865 148.282 285.66 145.337C283.691 142.697 282.358 139.593 281.837 136.343C281.729 135.557 281.751 134.763 281.746 133.975C284.558 136.313 288.23 137.626 291.904 137.307C290.813 135.655 288.909 134.939 287.093 134.404C288.715 134.206 290.365 134.53 291.872 135.135C293.491 135.775 294.598 137.295 296.3 137.78C297.681 138.184 299.213 138.523 300.626 138.081C301.383 137.79 300.878 136.971 300.53 136.544C299.117 134.816 296.904 134.163 294.809 133.704C297.465 133.646 300.113 134.264 302.552 135.286C304.177 135.926 305.45 137.142 306.82 138.179C307.077 136.845 306.41 135.534 305.45 134.645C304.182 133.435 302.394 133.161 300.782 132.681C302.331 132.079 304.084 132.433 305.611 132.96C307.089 133.473 308.206 134.633 309.008 135.941C309.461 134.907 309.848 133.751 309.501 132.624C309.132 131.011 307.776 129.929 306.448 129.088Z" fill="#63CF00"/>
<path d="M327.503 132.812C332.631 129.733 339.004 128.419 344.846 130.014C348.176 130.946 351.337 132.882 353.324 135.748C353.261 135.71 353.13 135.637 353.065 135.6C349.24 132.46 343.858 131.551 339.124 132.824C337.595 133.226 336.157 133.942 334.92 134.922C334.203 135.414 333.524 136.102 332.621 136.19C331.809 136.124 331.522 135.135 331.741 134.467C332.005 133.641 332.779 133.146 333.378 132.573C331.436 133.41 329.656 134.844 328.803 136.815C328.094 138.38 328.363 140.133 328.122 141.788C326.852 141.486 326.012 140.359 325.567 139.203C325.292 138.345 325.292 137.433 325.189 136.546C324.017 137.553 323.565 139.153 323.587 140.65C323.592 142.167 324.317 143.543 324.598 145.01C323.834 144.98 323.052 144.802 322.508 144.231C321.56 143.453 321.44 142.164 321.324 141.032C321.093 141.215 320.866 141.398 320.642 141.582C320.607 141.376 320.539 140.964 320.506 140.758C321.699 137.325 324.44 134.653 327.503 132.812Z" fill="#63CF00"/>
<path d="M321.814 155.596C323.411 156.842 324.49 158.619 325.458 160.37C326.525 162.419 327.09 164.79 326.645 167.091C326.268 169.464 324.968 171.523 323.886 173.625C322.632 175.996 321.309 178.334 319.885 180.609C319.392 180.258 318.841 180.001 318.263 179.843C319.694 175.556 322.548 171.975 324.545 167.964C325.722 165.709 325.934 162.962 324.955 160.596C324.284 158.712 322.966 157.191 321.814 155.596Z" fill="#63CF00"/>
<path d="M335.554 110.019C335.73 109.622 335.898 109.217 336.057 108.813C336.401 109.017 336.761 109.215 337.12 109.408L337.186 109.441C337.141 109.609 337.052 109.943 337.007 110.109C336.517 110.079 336.034 110.046 335.554 110.019Z" fill="#C28D57"/>
<path d="M337.186 109.441C337.502 109.609 337.827 109.778 338.159 109.936C337.731 110.127 337.309 110.32 336.886 110.513C336.916 110.413 336.977 110.212 337.007 110.109C337.052 109.943 337.14 109.609 337.186 109.441Z" fill="#B1C028"/>
<path d="M320.479 112.64C320.668 112.045 320.866 111.453 321.075 110.865C321.344 111.463 321.646 112.05 321.94 112.643C321.45 112.663 320.962 112.663 320.479 112.64Z" fill="#9D826F"/>
<path d="M333.903 111.857C334.049 111.907 334.336 112.002 334.482 112.05C333.916 112.746 333.109 113.384 332.978 114.313C332.87 114.798 333.579 114.742 333.883 114.737C335.654 114.574 337.17 113.585 338.697 112.766C336.391 115.049 333.345 117.081 329.957 116.847L330.121 116.47C330.641 115.82 331.147 115.154 331.673 114.504C332.5 113.695 333.252 112.814 333.903 111.857Z" fill="#DADA2E"/>
<path d="M323.512 114.391C324.301 115.041 325.177 115.629 326.173 115.915C327.357 116.282 328.612 116.054 329.774 115.704C329.045 116.423 328.323 117.151 327.531 117.801C326.512 117.786 325.37 117.786 324.588 117.03C323.783 116.398 323.575 115.353 323.512 114.391Z" fill="#DADA2E"/>
<path d="M298.991 129.404C301.811 128.253 304.967 127.686 307.98 128.336C310.824 128.964 313.5 130.933 314.508 133.721C313.611 132.427 312.612 131.121 311.159 130.426C309.7 129.657 308.073 129.278 306.448 129.087C307.776 129.929 309.132 131.011 309.501 132.623C309.848 133.751 309.461 134.906 309.008 135.941C308.206 134.632 307.089 133.472 305.611 132.96C304.084 132.432 302.331 132.078 300.782 132.681C302.394 133.161 304.182 133.434 305.45 134.645C306.41 135.534 307.077 136.845 306.82 138.178C305.45 137.141 304.177 135.926 302.552 135.285C300.113 134.263 297.465 133.645 294.809 133.703C296.904 134.163 299.117 134.816 300.53 136.544C300.878 136.97 301.383 137.789 300.626 138.081C299.213 138.523 297.681 138.184 296.3 137.779C294.598 137.294 293.491 135.775 291.872 135.135C290.365 134.529 288.715 134.205 287.093 134.404C288.909 134.939 290.813 135.655 291.904 137.307C288.23 137.626 284.558 136.313 281.746 133.974C286.002 134.424 290.463 134.017 294.321 132.051C295.951 131.297 297.372 130.172 298.991 129.404Z" fill="#DADA2E"/>
<path d="M320.441 112.635L320.479 112.64C320.962 112.663 321.449 112.663 321.94 112.643L322.03 112.63C322.126 112.758 322.224 112.889 322.33 113.019C321.49 116.076 320.833 119.182 320.325 122.312C322.908 121.129 325.353 119.629 327.531 117.801C328.323 117.151 329.045 116.422 329.774 115.704C330.405 115.305 331.054 114.928 331.673 114.504C331.147 115.154 330.642 115.82 330.121 116.47C327.362 119.644 324 122.261 320.308 124.265C319.593 129.735 319.503 135.318 320.506 140.758C320.539 140.964 320.607 141.376 320.642 141.582C321.226 144.176 321.927 146.763 323.009 149.198C323.157 149.583 323.321 149.969 323.499 150.347C324.568 152.655 325.868 154.849 327.347 156.919C327.204 154.782 327.246 152.627 327.636 150.517C327.704 150.143 327.775 149.766 327.865 149.397C328.808 145.186 331.001 141.328 333.818 138.086C334.771 137.011 335.699 135.893 336.884 135.059C335.935 136.31 334.842 137.445 333.944 138.734C331.731 141.835 330.144 145.399 329.467 149.154C328.962 151.896 328.967 154.721 329.412 157.471C329.625 158.717 329.842 159.995 330.476 161.11C331.796 163.624 332.022 166.638 331.172 169.337C330.033 173.057 327.963 176.465 327.309 180.338C326.007 179.908 324.586 180.094 323.343 180.617C323.554 178.028 324.641 175.626 325.961 173.421C327.256 171.259 328.376 168.858 328.31 166.281C328.217 161.883 326.404 157.582 323.504 154.292C322.453 153.139 321.812 151.675 320.718 150.56C319.941 149.751 319.083 149.028 318.21 148.325C318.117 146.07 317.189 143.922 315.849 142.129C317.287 143.31 318.291 144.917 319.307 146.454C317.622 141.024 316.86 135.301 317.252 129.622C317.252 129.085 317.446 128.485 317.101 128.01C315.635 125.441 313.774 123.095 311.591 121.096C310.94 120.446 310.178 119.926 309.441 119.386C306.956 117.316 303.966 115.975 300.94 114.903C304.333 115.797 307.517 117.339 310.525 119.122C310.869 119.336 311.204 119.562 311.551 119.79C313.751 121.219 315.796 122.884 317.665 124.725C318.208 120.619 319.163 116.573 320.441 112.635Z" fill="#006D00"/>
<path d="M341.27 135.761C344.215 134.455 347.723 134.505 350.648 135.854C348.538 136.178 346.335 136.549 344.545 137.785C343.455 138.531 342.636 139.794 342.787 141.155C342.968 142.898 343.599 144.636 343.237 146.406C342.781 148.677 341.522 150.831 339.655 152.23C338.395 153.18 336.819 153.594 335.264 153.672C335.921 152.68 336.595 151.678 336.975 150.54C337.804 148.097 337.815 145.467 337.623 142.923C337.535 141.65 337.332 140.309 337.835 139.093C338.478 137.584 339.806 136.449 341.27 135.761Z" fill="#006D00"/>
<path d="M281.837 136.343C282.357 139.593 283.69 142.697 285.659 145.336C287.865 148.282 290.803 150.859 294.371 151.971C296.459 152.642 298.77 152.456 300.749 151.529C302.703 150.625 304.66 149.169 305.286 147.014C305.598 146.019 305.213 145.014 304.745 144.143C306.088 144.756 307.411 145.414 308.716 146.107C308.422 150.296 305.007 153.725 301.111 154.912C298.815 155.643 296.28 155.357 294.117 154.339C291.464 153.114 289.319 151.062 287.327 148.975C284.103 145.564 282.176 141.009 281.837 136.343Z" fill="#006D00"/>
<path d="M314.951 116.166C315.07 115.139 315.112 114.104 315.153 113.072C315.884 114.614 316.121 116.613 315.057 118.064C314.257 119.187 312.867 119.644 311.551 119.79C311.204 119.561 310.87 119.335 310.525 119.122C311.4 117.936 310.679 116.417 309.859 115.417C309.079 114.436 307.814 114.132 306.665 113.815C307.897 113.795 309.175 114.089 310.13 114.91C310.923 115.536 311.247 116.522 311.629 117.417C311.815 117.816 311.986 118.333 312.489 118.421C313.578 118.351 314.194 117.1 313.883 116.126C313.631 115.003 312.56 114.418 311.72 113.773C313.103 114.097 314.021 115.184 314.951 116.166Z" fill="#00AB01"/>
<path d="M294.678 117.46C296.637 117.216 298.74 117.487 300.44 118.54C302.195 119.622 302.977 121.772 304.846 122.711C306.071 123.397 307.839 123.588 308.882 122.478C309.692 121.654 309.468 120.426 309.441 119.386C310.178 119.926 310.94 120.446 311.591 121.096C312.099 122.264 312.177 123.688 311.493 124.803C310.51 126.458 308.588 127.327 306.74 127.576C304.733 127.852 302.374 127.327 301.179 125.564C300.505 124.263 300.548 122.711 299.839 121.418C298.838 119.371 296.718 118.243 294.678 117.46Z" fill="#00AB00"/>
<path d="M339.124 132.825C343.857 131.551 349.239 132.461 353.064 135.6C352.265 135.743 351.452 135.786 350.648 135.853C347.723 134.505 344.214 134.455 341.27 135.76C339.806 136.449 338.478 137.584 337.834 139.093C337.331 140.309 337.535 141.65 337.623 142.923C337.814 145.467 337.804 148.096 336.974 150.54C336.594 151.678 335.92 152.68 335.264 153.672C333.838 153.634 332.324 153.312 331.295 152.258C330.415 151.406 329.945 150.254 329.467 149.154C330.143 145.399 331.73 141.836 333.944 138.734C334.841 137.446 335.935 136.311 336.883 135.06C335.699 135.894 334.771 137.011 333.818 138.086C331.001 141.328 328.808 145.186 327.865 149.397C326.897 149.585 325.896 149.799 324.915 149.594C324.213 149.43 323.562 149.124 322.895 148.875L323.009 149.199C321.927 146.763 321.226 144.176 320.642 141.582C320.866 141.399 321.092 141.215 321.324 141.032C321.439 142.165 321.56 143.453 322.508 144.231C323.051 144.802 323.833 144.98 324.598 145.01C324.316 143.543 323.592 142.167 323.587 140.65C323.564 139.153 324.017 137.554 325.189 136.547C325.292 137.433 325.292 138.345 325.566 139.204C326.011 140.359 326.851 141.487 328.121 141.788C328.363 140.133 328.094 138.38 328.803 136.815C329.656 134.844 331.436 133.41 333.378 132.573C332.779 133.146 332.004 133.641 331.74 134.467C331.522 135.135 331.808 136.125 332.621 136.19C333.524 136.102 334.203 135.414 334.919 134.922C336.157 133.942 337.595 133.226 339.124 132.825Z" fill="#00AB00"/>
<path d="M290.063 138.684C291.172 138.772 292.263 138.99 293.347 139.249C297.731 140.241 302.054 141.529 306.219 143.229C307.433 143.702 308.643 144.204 309.828 144.756C312.705 146.075 315.491 147.586 318.18 149.256C318.187 149.026 318.202 148.558 318.21 148.325C319.082 149.028 319.94 149.751 320.717 150.56C321.811 151.675 322.452 153.14 323.504 154.293C326.403 157.582 328.217 161.884 328.31 166.282C328.375 168.858 327.256 171.259 325.961 173.422C324.64 175.627 323.554 178.027 323.343 180.617C322.357 181.139 321.502 181.86 320.715 182.639C320.496 181.938 320.259 181.239 319.885 180.609C321.308 178.334 322.631 175.996 323.886 173.625C324.967 171.523 326.268 169.464 326.645 167.091C327.09 164.79 326.524 162.419 325.458 160.37C324.49 158.619 323.411 156.841 321.814 155.596C318.026 151.718 313.524 148.591 308.716 146.108C307.411 145.414 306.088 144.756 304.745 144.144C300.002 141.949 295.088 140.125 290.063 138.684Z" fill="#00AB00"/>
<path d="M315.225 137.347C315.388 139.296 314.591 141.275 313.193 142.634C312.247 143.586 311.052 144.236 309.828 144.756C308.643 144.203 307.433 143.701 306.219 143.229C310.031 143.435 314.151 141.17 315.225 137.347Z" fill="#006D01"/>
<path d="M322.896 148.875C323.562 149.123 324.214 149.43 324.915 149.593C325.896 149.799 326.897 149.585 327.865 149.397C327.775 149.766 327.704 150.143 327.637 150.517C326.339 151.338 324.797 150.912 323.499 150.346C323.321 149.969 323.157 149.582 323.009 149.198L322.896 148.875Z" fill="#63CF01"/>
<path d="M312.539 179.278C313.027 178.158 314.249 177.264 315.512 177.59C316.175 177.728 316.326 178.472 316.678 178.951C316.998 179.524 317.677 179.67 318.263 179.843C318.841 180.001 319.392 180.257 319.885 180.609C320.26 181.239 320.496 181.938 320.715 182.638C321.502 181.859 322.357 181.139 323.343 180.617C324.585 180.094 326.006 179.908 327.309 180.338C329.178 181.28 330.367 183.098 331.979 184.381C332.834 183.404 334.037 182.636 335.382 182.691C337.017 182.633 338.455 183.677 339.298 185.014C340.367 185.443 341.486 185.906 342.195 186.875C342.944 187.766 343.251 188.932 343.301 190.077C344.823 189.863 346.423 190.692 346.981 192.149C347.524 193.38 347.192 194.809 346.387 195.841C330.895 195.918 315.403 196.042 299.911 196.115C297.686 194.904 297.15 191.297 299.2 189.668C300.02 188.962 301.322 189.607 302.072 188.774C302.663 188.058 302.524 187.003 303.07 186.247C303.729 185.255 304.725 184.3 305.975 184.227C306.747 184.158 307.341 184.733 308.007 185.019C308.585 184.821 308.52 184.125 308.606 183.635C308.673 182.246 309.088 180.739 310.255 179.866C310.892 179.34 311.742 179.258 312.539 179.278ZM313.917 178.705C313.185 178.886 313.434 179.74 313.442 180.28C312.916 180.323 312.34 180.195 311.862 180.433C311.47 180.991 311.53 181.854 312.089 182.284C312.66 182.548 313.339 182.437 313.91 182.716C314.362 183.015 314.714 183.452 315.192 183.721C316.54 183.914 317.881 182.46 317.453 181.134C317.197 180.388 316.359 180.2 315.71 179.959C315.68 179.04 314.795 178.388 313.917 178.705ZM324.704 181.232C323.828 181.581 324.359 182.603 324.231 183.293C323.585 183.708 322.709 183.186 322.05 183.575C321.444 184.117 321.492 185.122 321.912 185.765C322.478 186.644 323.766 186.481 324.419 187.232C324.56 188.211 324.206 189.436 325.023 190.205C325.778 190.642 326.748 190.059 327.528 190.428C328.016 190.878 328.355 191.588 329.09 191.674C330.209 191.93 331.773 191.405 331.959 190.13C332.087 189.22 331.426 188.469 330.661 188.093C330.184 187.826 329.741 187.512 329.314 187.183C329.082 185.657 329.623 184.125 329.356 182.616C328.458 181.096 326.28 180.694 324.704 181.232ZM311.342 183.487C310.421 183.811 309.355 184.552 309.42 185.641C309.772 186.591 311.118 186.657 311.473 187.608C311.654 188.603 310.323 189.133 310.457 190.137C310.555 191.197 311.681 192.036 312.73 191.754C313.937 191.504 314.83 190.622 315.693 189.811C316.709 188.964 318.135 189.507 319.269 189.065C319.676 188.389 318.748 187.603 319.073 186.867C319.249 186.438 319.493 186.041 319.669 185.612C319.442 184.213 317.622 183.331 316.372 183.987C315.615 184.346 314.684 184.786 313.91 184.218C313.168 183.68 312.3 183.05 311.342 183.487ZM331.212 186.633C330.91 187.907 332.246 188.716 333.292 188.992C334.039 189.258 335.239 189.074 335.455 190.072C335.623 190.903 336.28 191.506 337.145 191.566C336.821 191.789 336.531 192.068 336.162 192.204C335.734 191.933 335.634 191.376 335.302 191.016C334.809 190.634 334.102 190.557 333.528 190.773C332.932 191.062 332.92 191.845 333.151 192.382C333.508 193.369 334.64 193.837 335.633 193.771C336.29 193.749 336.768 193.206 337.391 193.073C337.741 193.596 338.075 194.613 338.905 194.135C340.175 193.689 339.423 192.081 338.465 191.754C339.18 191.277 340.037 190.974 340.593 190.285C341.161 189.617 341.609 188.663 341.254 187.791C340.827 186.962 339.75 186.721 338.903 186.91C338.423 186.907 337.819 187.241 337.434 186.837C336.944 186.159 336.634 185.288 335.83 184.908C334.215 183.904 331.723 184.775 331.212 186.633ZM305.052 185.988C303.991 186.337 303.226 187.591 303.621 188.678C303.83 189.246 304.516 188.962 304.974 189.019C306.216 188.891 307.061 190.069 308.246 190.247C309.322 190.607 310.029 189.022 309.335 188.286C308.794 187.95 308.125 187.852 307.63 187.448C307.363 187.013 307.232 186.513 306.996 186.069C306.428 185.674 305.666 185.785 305.052 185.988ZM320.345 189.22C319.483 189.64 318.421 189.715 317.71 190.391C317.501 191.006 317.705 191.795 318.298 192.123C318.919 192.498 319.538 192.882 320.149 193.281C320.755 193.673 321.61 193.724 322.189 193.249C322.757 192.774 323.504 192.819 324.198 192.721C324.777 192.49 325.068 191.722 324.759 191.172C324.518 190.579 323.708 190.549 323.391 190.046C323.532 189.328 324.08 188.427 323.325 187.862C322.229 186.82 320.403 187.786 320.345 189.22ZM304.202 190.645C304.267 191.067 304.381 191.48 304.456 191.908C304.162 192.207 303.805 192.435 303.478 192.689C304.114 193.899 305.708 194.093 306.941 194.007C307.969 193.965 308.814 192.932 308.535 191.915C308.274 190.934 307.094 191.513 306.392 191.493C306.47 191.091 306.556 190.689 306.644 190.293C305.847 189.936 304.836 190.014 304.202 190.645Z" fill="#060A0B"/>
<path d="M313.917 178.705C314.795 178.389 315.68 179.04 315.71 179.959C316.359 180.2 317.196 180.388 317.453 181.134C317.881 182.46 316.54 183.914 315.192 183.721C314.714 183.452 314.362 183.015 313.909 182.716C313.339 182.438 312.66 182.548 312.089 182.284C311.53 181.855 311.47 180.991 311.862 180.434C312.34 180.195 312.916 180.323 313.442 180.28C313.434 179.741 313.185 178.886 313.917 178.705ZM313.784 179.59C313.751 179.904 313.718 180.22 313.693 180.539C313.356 180.552 313.027 180.567 312.7 180.587C312.657 180.888 312.526 181.192 312.592 181.504C312.725 182.008 313.341 181.968 313.733 182.154C314.38 182.267 314.81 183.098 315.517 182.819C316.218 182.581 316.776 181.692 316.359 180.996C315.838 180.604 315.328 180.205 314.918 179.7C314.641 179.316 314.148 179.542 313.784 179.59Z" fill="#4D3640"/>
<path d="M324.872 182.65C325.43 182.056 326.366 182.201 327.093 182.334C327.92 182.513 328.961 183.098 328.818 184.095C328.868 185.257 328.24 186.704 329.331 187.568L329.313 187.184C329.741 187.513 330.184 187.826 330.661 188.093C330.694 188.55 330.777 189.017 330.724 189.479C330.496 190.253 329.583 190.552 328.851 190.504C328.154 190.491 327.727 189.871 327.251 189.459C326.597 189.384 325.818 189.615 325.267 189.198C324.915 188.53 325.058 187.724 324.887 187.006C324.05 186.456 322.551 186.187 322.795 184.856C322.838 183.854 324.08 184.17 324.754 184.037C324.777 183.573 324.787 183.105 324.872 182.65Z" fill="#4D3640"/>
<path d="M331.212 186.633C331.723 184.775 334.215 183.904 335.83 184.908C336.635 185.287 336.944 186.159 337.434 186.837C337.819 187.241 338.423 186.907 338.903 186.91C339.751 186.721 340.827 186.962 341.255 187.791C341.609 188.663 341.161 189.617 340.593 190.285C340.037 190.974 339.18 191.277 338.466 191.754C338.023 191.676 337.578 191.634 337.145 191.566C336.28 191.506 335.624 190.903 335.455 190.072C335.239 189.074 334.039 189.258 333.292 188.992C332.246 188.716 330.911 187.907 331.212 186.633Z" fill="#4D3640"/>
<path d="M305.052 185.988C305.666 185.785 306.428 185.674 306.996 186.069C307.232 186.513 307.363 187.013 307.63 187.448C308.125 187.852 308.794 187.95 309.335 188.286C310.029 189.022 309.322 190.607 308.246 190.247C307.061 190.069 306.216 188.891 304.974 189.019C304.516 188.962 303.83 189.246 303.621 188.678C303.226 187.591 303.991 186.337 305.052 185.988Z" fill="#4D3640"/>
<path d="M320.345 189.22C320.403 187.786 322.229 186.819 323.325 187.861C324.08 188.427 323.532 189.328 323.391 190.046C323.708 190.549 324.517 190.579 324.759 191.172C325.068 191.722 324.776 192.49 324.198 192.721C323.504 192.819 322.757 192.774 322.189 193.249C321.61 193.723 320.755 193.673 320.149 193.281C319.538 192.882 318.919 192.498 318.298 192.123C317.704 191.795 317.501 191.006 317.709 190.391C318.421 189.715 319.482 189.64 320.345 189.22Z" fill="#4D3640"/>
<path d="M313.784 179.589C314.149 179.542 314.642 179.316 314.919 179.7C315.328 180.205 315.839 180.604 316.36 180.996C316.777 181.691 316.219 182.58 315.517 182.819C314.81 183.098 314.38 182.266 313.734 182.153C313.342 181.968 312.725 182.007 312.592 181.503C312.527 181.192 312.658 180.887 312.7 180.586C313.027 180.566 313.357 180.551 313.694 180.538C313.719 180.22 313.752 179.904 313.784 179.589Z" fill="#745F68"/>
<path d="M324.704 181.231C326.281 180.694 328.459 181.096 329.356 182.615C329.623 184.125 329.082 185.656 329.314 187.183L329.331 187.567C328.24 186.703 328.868 185.257 328.818 184.094C328.962 183.097 327.92 182.512 327.093 182.334C326.366 182.201 325.431 182.055 324.872 182.65C324.787 183.105 324.777 183.572 324.754 184.037C324.08 184.169 322.838 183.853 322.795 184.855C322.551 186.186 324.05 186.455 324.887 187.005C325.058 187.723 324.915 188.53 325.267 189.197C325.818 189.615 326.598 189.383 327.251 189.458C327.727 189.871 328.154 190.491 328.851 190.503C329.583 190.551 330.496 190.252 330.725 189.478C330.777 189.016 330.694 188.55 330.662 188.093C331.426 188.469 332.088 189.22 331.959 190.129C331.773 191.405 330.209 191.93 329.09 191.674C328.355 191.588 328.016 190.878 327.528 190.428C326.748 190.059 325.778 190.642 325.023 190.205C324.206 189.436 324.56 188.21 324.42 187.231C323.766 186.48 322.478 186.643 321.912 185.764C321.492 185.121 321.444 184.117 322.051 183.575C322.709 183.185 323.585 183.707 324.231 183.293C324.359 182.603 323.829 181.58 324.704 181.231Z" fill="#745F68"/>
<path d="M311.342 183.487C312.3 183.05 313.168 183.681 313.91 184.218C314.684 184.785 315.615 184.346 316.372 183.986C317.622 183.332 319.443 184.213 319.669 185.612C319.493 186.041 319.249 186.438 319.073 186.867C318.749 187.603 319.677 188.389 319.269 189.065C318.135 189.507 316.709 188.964 315.693 189.811C314.83 190.622 313.937 191.504 312.73 191.754C311.682 192.036 310.555 191.197 310.457 190.137C310.324 189.133 311.654 188.603 311.473 187.608C311.118 186.657 309.773 186.591 309.421 185.642C309.355 184.552 310.422 183.811 311.342 183.487Z" fill="#745F68"/>
<path d="M304.202 190.645C304.836 190.014 305.847 189.936 306.644 190.293C306.556 190.69 306.47 191.092 306.392 191.494C307.094 191.514 308.273 190.933 308.535 191.916C308.814 192.932 307.969 193.965 306.941 194.008C305.708 194.093 304.114 193.9 303.478 192.689C303.804 192.435 304.162 192.207 304.456 191.908C304.38 191.481 304.267 191.067 304.202 190.645Z" fill="#745F68"/>
<path d="M333.529 190.773C334.102 190.556 334.809 190.634 335.302 191.016C335.634 191.376 335.734 191.933 336.162 192.204C336.532 192.069 336.821 191.789 337.145 191.566C337.578 191.634 338.023 191.677 338.465 191.754C339.424 192.081 340.176 193.689 338.906 194.135C338.076 194.612 337.741 193.596 337.392 193.073C336.768 193.206 336.29 193.749 335.634 193.771C334.64 193.837 333.509 193.369 333.151 192.383C332.92 191.845 332.933 191.062 333.529 190.773Z" fill="#745F68"/>
</g>
<path d="M166.593 57.6772C169.825 59.2826 173.234 60.4948 176.756 61.3233C170.333 67.7769 164.625 74.8727 159.134 82.1137C158.968 81.4921 158.626 80.2489 158.45 79.6276C157.798 77.0896 157.466 74.4792 157.186 71.8893C158.077 70.9466 159.01 70.0352 159.89 69.0821C162.874 65.7777 165.091 61.862 166.593 57.6772Z" fill="white"/>
<path d="M237.342 3.91339C238.305 4.11016 239.268 4.30692 240.253 4.51412C241.361 9.05135 242.77 13.5576 243.122 18.2293C243.454 34.2543 240.232 50.9323 230.638 64.0878C226.381 69.8164 220.413 75.2444 212.954 75.7313C204.8 76.1871 196.108 72.7169 191.374 65.9008C189.136 62.938 189.24 59.1052 189.188 55.5935C198.688 45.2037 209.639 36.295 220.506 27.3968C206.727 34.2856 195.02 44.5201 183.334 54.4126C178.144 55.1794 172.87 54.6198 167.867 53.1179C168.654 48.1147 169.327 43.0283 169.079 37.9526C169.048 36.6784 168.209 35.6529 167.649 34.5963C163.07 35.5181 159.071 38.139 155.953 41.5472C154.544 35.2903 154.253 28.4951 156.968 22.5384C159.693 16.1367 165.505 11.6826 171.627 8.75084C168.685 12.6873 166.323 17.4419 166.81 22.497C166.914 26.1643 168.841 29.365 170.892 32.2759C172.104 28.5776 173.13 24.5896 175.917 21.7099C179.408 17.7734 184.495 15.6188 189.696 15.2149C187.168 17.4005 184.37 19.2548 181.998 21.6062C178.113 25.5218 176.756 31.53 178.113 36.8233C178.413 36.8233 178.993 36.8337 179.294 36.8337C184.515 25.9571 194.316 17.5561 205.867 14.0546C199.973 17.9186 193.56 23.1705 193.208 30.7841C192.824 32.4104 195.052 32.8662 196.233 32.6593C202.594 31.6439 208.012 27.1794 210.944 21.5337C214.28 15.4012 220.454 10.9159 227.416 9.9836C222.309 12.8841 218.165 17.3695 216.632 23.1496C226.722 21.5752 234.409 13.4124 237.342 3.91339Z" fill="#63CF00"/>
<path d="M84.2608 36.7843C98.361 32.0298 114.222 34.0395 127.369 40.7104C138.558 46.3457 147.716 56.663 150.462 69.0521C152.327 76.728 151.218 85.8958 144.878 91.2615C142.505 93.4784 138.258 95.7988 135.471 93.033C135.025 92.1938 134.6 91.3549 134.186 90.5261C138.61 90.2154 143.521 89.107 145.966 84.9841C150.866 76.7593 149.799 65.437 143.779 58.0511C144.008 61.2727 144.702 64.5357 144.163 67.7677C143.603 70.6164 141.231 72.5328 139.149 74.3248C138.465 70.8755 138.247 67.3638 138.133 63.8626C137.885 57.5643 134.911 51.3802 129.866 47.537C130.943 53.9802 132.187 61.6767 126.893 66.7216C124.334 61.1278 123.515 54.6223 119.319 49.8883C115.994 45.7759 111.145 43.3518 106.173 41.8397C108.276 44.0459 111.622 45.9623 111.446 49.4534C111.487 50.6757 110.876 52.7888 109.28 52.4883C104.981 51.9913 101.407 49.1633 97.2628 48.0963C86.8406 45.2787 75.3927 48.231 66.8664 54.6328C63.1782 57.3261 60.4328 61.0139 57.3869 64.3598L57.3558 63.0233C61.4584 50.6966 71.9843 40.8556 84.2608 36.7843Z" fill="#63CF00"/>
<path d="M171.628 8.75392C192.141 -0.465523 215.586 0.642892 237.342 3.91617C234.41 13.4155 226.723 21.578 216.632 23.1527C218.166 17.3722 222.31 12.8869 227.417 9.98669C220.455 10.9189 214.28 15.4043 210.944 21.5365C208.013 27.1822 202.594 31.647 196.233 32.6621C195.052 32.8693 192.825 32.4135 193.208 30.7872C193.56 23.1732 199.973 17.9214 205.868 14.0576C194.317 17.5589 184.516 25.9599 179.294 36.8368C178.994 36.8368 178.414 36.8264 178.113 36.8264C176.756 31.5328 178.113 25.5249 181.998 21.6093C184.371 19.2576 187.168 17.4036 189.696 15.2177C184.495 15.6216 179.408 17.7765 175.917 21.7127C173.13 24.5926 172.105 28.5807 170.893 32.2787C168.841 29.3678 166.914 26.1671 166.811 22.5001C166.324 17.445 168.686 12.6901 171.628 8.75392Z" fill="#DADA2E"/>
<path d="M243.122 18.2305C245.443 33.261 243.164 48.934 236.513 62.6181C232.078 72.5834 225.417 83.6673 213.855 85.9772C199.548 88.2769 185.552 77.8767 180.921 64.6484C183.573 61.5407 186.391 58.5782 189.188 55.5948C189.24 59.1065 189.136 62.9392 191.374 65.9017C196.108 72.7179 204.801 76.1881 212.954 75.7322C220.413 75.2454 226.381 69.8174 230.638 64.0891C240.232 50.9332 243.454 34.2556 243.122 18.2305Z" fill="#006D00"/>
<path d="M155.953 41.5487C159.072 38.1405 163.071 35.5197 167.65 34.5978C160.201 44.242 156.907 57.149 159.89 69.0825C159.01 70.0353 158.077 70.947 157.186 71.8897C157.466 74.4795 157.797 77.0899 158.45 79.6276C155.705 83.6366 153.881 88.1324 151.955 92.5658C151.861 85.6254 152.794 78.7368 154.151 71.952C152.327 66.6894 151.747 61.1269 150.825 55.6678C149.779 50.4157 152.649 45.3815 155.953 41.5487Z" fill="#006D00"/>
<path d="M166.594 57.6785C167.081 56.1765 167.495 54.6536 167.868 53.1207C172.872 54.6226 178.145 55.1819 183.335 54.4154C181.087 56.6633 178.984 59.0561 176.757 61.3249C173.234 60.4961 169.826 59.2842 166.594 57.6785Z" fill="#006D00"/>
<path d="M63.4972 65.7169C70.5731 57.5025 83.689 55.0265 93.1374 60.496C98.162 63.3446 101.363 68.6692 102.244 74.3146C104.689 87.2737 108.595 100.916 118.81 110.011C113.257 111.244 107.248 110.374 102.648 106.914C95.4786 101.745 90.1952 93.6963 89.1486 84.8291C88.3924 79.5668 88.496 73.3514 84.1138 69.5601C78.5296 64.5258 70.4384 65.168 63.4972 65.7169Z" fill="#006D00"/>
<path d="M104.866 57.2303C110.316 60.0998 114.688 64.5023 118.967 68.8427C125.131 75.2135 130.269 82.5683 134.186 90.5239C134.6 91.3524 135.025 92.1916 135.47 93.0306C138.495 99.4842 140.619 106.331 142.183 113.282C144.421 107.844 146.669 102.364 149.767 97.3502C148.793 104.135 146.794 110.744 146.265 117.602C145.312 128.603 145.623 140.174 150.461 150.315C156.542 163.377 170.238 171.706 173.864 186.115C171.99 184.043 169.731 182.262 166.996 181.526C164.406 180.459 161.06 180.252 159.433 177.673C157.827 175.373 156.252 173.022 154.077 171.209C144.742 160.56 136.516 147.031 137.729 132.291C138.92 118.213 135.532 104.083 129.741 91.311C126.208 83.2209 121.474 75.6693 115.776 68.936C112.347 64.8338 108.213 61.3946 104.866 57.2303Z" fill="#006D00"/>
<path d="M183.334 54.4133C195.02 44.5205 206.727 34.286 220.505 27.3974C209.638 36.2957 198.687 45.2041 189.187 55.5942C186.39 58.5776 183.572 61.5401 180.92 64.6478C170.001 77.2754 160.78 91.4774 154.751 107.098C150.213 117.012 148.586 128.562 151.104 139.231C153.839 150.522 162.324 158.872 169.441 167.573C174.455 173.55 179.76 179.289 185.064 185.028C181.593 187.038 178.599 189.721 175.678 192.435C175.087 190.311 174.538 188.188 173.865 186.116C170.239 171.706 156.543 163.378 150.461 150.316C145.623 140.174 145.312 128.603 146.265 117.602C146.794 110.745 148.793 104.136 149.767 97.3508C150.337 95.6828 151.259 94.1707 151.953 92.5649C153.88 88.1315 155.704 83.6357 158.449 79.6267C158.625 80.2483 158.967 81.4912 159.133 82.1128C164.624 74.8721 170.332 67.7761 176.755 61.3228C178.983 59.054 181.086 56.6612 183.334 54.4133Z" fill="#00AB00"/>
<path d="M167.649 34.5978C168.208 35.6544 169.047 36.68 169.078 37.9542C169.327 43.0298 168.653 48.1162 167.866 53.1194C167.493 54.6527 167.079 56.1753 166.592 57.6772C165.09 61.8624 162.873 65.778 159.889 69.0825C156.905 57.149 160.2 44.242 167.649 34.5978Z" fill="#00AB00"/>
<path d="M106.171 41.8403C111.143 43.3527 115.992 45.7765 119.317 49.8889C123.513 54.6229 124.332 61.1284 126.891 66.7222C132.185 61.6772 130.941 53.9807 129.864 47.5375C134.91 51.3807 137.883 57.5648 138.131 63.8631C138.245 67.3643 138.463 70.876 139.147 74.3256C141.229 72.5333 143.601 70.6169 144.161 67.7683C144.7 64.5363 144.006 61.2732 143.778 58.0517C149.797 65.4375 150.864 76.7599 145.964 84.9847C143.519 89.1075 138.608 90.2159 134.184 90.5269C130.268 82.5713 125.13 75.2165 118.965 68.8457C114.687 64.5053 110.315 60.1028 104.865 57.2333C108.212 61.3976 112.345 64.8368 115.774 68.939C121.472 75.6723 126.207 83.2239 129.74 91.314C129.564 96.1931 129.108 101.548 125.844 105.464C124.073 107.722 121.338 108.851 118.81 110.012C108.595 100.917 104.689 87.274 102.244 74.3152C101.364 68.6695 98.1624 63.3452 93.1378 60.4966C83.6894 55.0271 70.5735 57.5028 63.4976 65.7175L63.3111 65.9038C60.7936 66.3802 58.2658 66.805 55.7379 67.1986C56.2455 65.7899 56.7739 64.3914 57.3541 63.0242L57.3852 64.3604C60.431 61.0145 63.1764 57.3266 66.8646 54.6333C75.3909 48.2316 86.8388 45.2792 97.2609 48.0968C101.405 49.1638 104.979 51.9919 109.279 52.4892C110.874 52.7894 111.485 50.6762 111.444 49.4539C111.62 45.9631 108.274 44.0467 106.171 41.8403Z" fill="#00AB00"/>
<path d="M151.103 139.233C148.586 128.564 150.212 117.013 154.75 107.1C151.787 117.563 149.891 129.33 155.081 139.451C160.749 150.214 170.445 157.983 177.956 167.368C182.1 172.33 185.851 177.644 188.98 183.31C187.643 183.828 186.338 184.387 185.063 185.03C179.759 179.291 174.455 173.552 169.44 167.575C162.323 158.874 153.838 150.524 151.103 139.233Z" fill="#63CF01"/>
<path d="M141.998 178.68C143.956 173.801 148.929 171.066 154.078 171.211C156.254 173.024 157.828 175.375 159.434 177.675C161.061 180.255 164.407 180.462 166.997 181.529C169.732 182.264 171.991 184.046 173.866 186.118C174.539 188.189 175.088 190.313 175.679 192.437C178.6 189.722 181.594 187.039 185.065 185.03C186.339 184.388 187.644 183.828 188.981 183.31C194.731 181.384 201.683 181.342 206.614 185.32C212.177 189.671 216.642 195.233 222.071 199.75C225.697 195.44 231.084 192.343 236.865 192.789C243.392 192.902 249.09 197.202 252.343 202.661C261.709 204.743 268.95 213.558 268.608 223.244C274.503 222.467 280.802 225.274 283.382 230.795C286.2 236.037 285.05 242.646 281.248 247.09C217.367 247.328 153.477 247.742 89.5971 248.26C86.2612 245.629 83.3707 242.2 82.345 237.984C80.7497 232.09 82.2414 224.766 87.5457 221.203C90.8817 218.872 95.7302 221.089 98.7139 218.023C101.283 215.133 100.682 210.751 102.858 207.602C105.541 203.541 109.53 199.605 114.627 199.128C117.756 198.693 120.221 200.941 122.873 202.174C125.256 202.526 125.422 199.367 125.64 197.74C125.961 191.742 127.36 185.134 132.374 181.259C135.026 178.97 138.641 178.638 141.998 178.68ZM145.634 177.851C145.479 179.54 145.541 181.249 145.562 182.969C143.314 183.29 139.843 181.819 138.652 184.408C137.689 186.687 138.082 189.961 140.434 191.256C143.345 192.219 146.93 191.68 149.198 194.094C150.732 195.223 152.016 197.264 154.161 197.129C159.258 196.891 163.91 191.369 162.19 186.325C161.185 183.341 157.88 182.554 155.259 181.684C154.586 180.037 154.43 177.924 152.742 176.96C150.597 175.614 147.168 175.593 145.634 177.851ZM191.26 187.268C188.494 189.184 191.022 192.809 189.976 195.42C187.365 196.725 184.184 195.067 181.532 196.207C178.424 198.32 178.776 203.147 180.859 205.882C183.324 209 188.08 208.555 190.773 211.3C191.623 215.309 189.996 220.322 193.218 223.627C196.295 225.678 200.315 223.223 203.609 224.601C205.671 226.331 206.914 229.303 209.836 229.749C214.508 231.013 221.025 228.827 221.967 223.565C222.63 219.566 219.491 216.604 216.373 214.77C214.954 214.149 213.534 213.548 212.167 212.854C208.945 206.535 212.581 199.491 211.369 192.892C209.991 189.194 206.003 187.392 202.449 186.439C198.802 185.672 194.565 185.196 191.26 187.268ZM136.746 196.166C133.099 197.554 129.007 200.475 129.058 204.784C130.426 208.886 136.228 209.104 137.647 213.206C138.144 217.256 132.799 219.421 133.41 223.565C133.803 227.771 138.186 231.127 142.371 230.246C147.396 229.293 151.229 225.74 154.772 222.311C158.864 218.789 164.604 220.602 169.39 219.328C171.442 217.65 169.1 215.07 168.903 213.009C167.246 209.342 172.343 206.732 170.965 203.168C168.779 198.445 162.428 195.606 157.652 198.165C154.482 199.729 150.493 201.438 147.323 198.89C144.308 196.58 140.62 194.28 136.746 196.166ZM223.957 202.402C220.227 204.556 217.233 209.529 219.595 213.703C222.755 218.334 228.681 218.986 233.695 220.198C236.088 220.685 236.244 223.534 237.217 225.336C237.974 228.05 241.02 228.962 243.516 229.324C241.911 230.029 240.336 232.805 238.45 231.448C237.052 229.614 236.44 226.89 234.016 226.144C231.416 225.16 227.262 225.336 226.453 228.589C225.386 233.561 229.976 238.036 234.742 238.399C238.233 239.165 241.31 237.042 244.096 235.25C245.578 237.746 247.474 242.252 251.089 239.745C255.876 237.466 252.291 231.365 248.593 230.049C252.498 228.04 256.808 226.092 259.036 222.063C261.118 218.924 261.812 213.713 258.166 211.445C254.56 208.866 250.136 210.471 246.137 210.689C243.993 210.482 243.444 207.933 242.335 206.493C239.062 199.936 229.779 198.372 223.957 202.402ZM111.643 206.224C106.805 207.488 103.262 213.299 105.489 218.023C107.82 220.239 111.643 217.878 114.43 219.276C118.201 220.996 121.61 224 125.93 224.155C129.618 223.782 131.162 218.24 128.613 215.765C126.375 214.397 123.588 214.024 121.62 212.284C120.605 210.43 120.107 208.348 118.999 206.576C116.771 205.24 114.005 205.478 111.643 206.224ZM177.968 213.382C175.461 214.542 175.057 217.536 173.793 219.701C170.675 221.648 166.666 221.71 163.734 223.979C161.734 226.9 163.63 231.085 166.748 232.328C170.924 234.379 174.591 239 179.761 237.477C182.33 235.861 184.889 234.152 188.1 234.379C191.115 234.701 193.395 231.551 192.69 228.724C191.954 225.802 188.732 224.942 186.484 223.544C187.127 221.431 187.893 219.339 188.1 217.132C187.375 212.709 181.449 211.031 177.968 213.382ZM107.613 225.906C107.862 227.511 108.38 229.065 108.608 230.702C107.375 232.277 103.19 234.006 106.008 236.161C110.058 239.321 115.767 240.274 120.719 239.051C124.842 238.119 127.183 232.536 124.562 229.128C122.169 227.802 119.154 229.013 116.533 229.003C116.927 227.449 117.341 225.916 117.766 224.383C114.658 222.498 109.82 222.871 107.613 225.906Z" fill="#060A0B"/>
<path d="M145.633 177.849C147.166 175.591 150.595 175.612 152.74 176.958C154.429 177.922 154.584 180.035 155.257 181.682C157.879 182.552 161.183 183.339 162.188 186.323C163.908 191.368 159.257 196.889 154.159 197.127C152.015 197.262 150.73 195.221 149.197 194.092C146.928 191.678 143.343 192.217 140.432 191.254C138.08 189.959 137.687 186.685 138.65 184.406C139.842 181.817 143.312 183.288 145.56 182.966C145.54 181.247 145.478 179.538 145.633 177.849ZM146.317 183.775C145.022 183.92 143.737 184.065 142.463 184.21C142.452 185.774 141.737 187.576 142.732 188.995C144.462 190.311 146.928 190.093 148.741 191.337C150.368 192.248 151.849 194.154 153.973 193.45C156.936 192.403 159.588 188.55 157.568 185.587C155.081 183.847 152.926 181.734 150.74 179.662C147.736 178.564 146.887 181.558 146.317 183.775Z" fill="#4D3640"/>
<path d="M192.751 192.633C193.963 190.83 196.48 190.903 198.417 190.861C202.199 191.038 206.581 192.229 208.633 195.71C209.782 200.381 207.773 205.24 208.809 209.943C209.202 211.527 210.922 212.066 212.165 212.853C213.533 213.547 214.952 214.148 216.371 214.77C216.527 216.862 217.2 219.027 216.734 221.13C215.408 224.051 211.885 225.294 208.86 224.984C205.504 224.787 204.095 220.384 200.603 220.685C198.625 220.436 196.563 220.633 194.667 219.991C192.854 217.09 193.32 213.464 192.968 210.222C189.28 208.575 183.323 207.177 184.172 201.894C184.369 197.792 189.373 199.014 192.108 198.133C192.896 196.466 192.357 194.415 192.751 192.633Z" fill="#4D3640"/>
<path d="M223.955 202.402C229.778 198.373 239.06 199.937 242.334 206.494C243.443 207.934 243.992 210.482 246.136 210.69C250.135 210.472 254.559 208.867 258.164 211.446C261.811 213.714 261.117 218.925 259.034 222.064C256.807 226.093 252.497 228.041 248.591 230.05C246.903 229.75 245.193 229.574 243.515 229.325C241.018 228.963 237.972 228.051 237.216 225.337C236.242 223.534 236.087 220.686 233.694 220.199C228.679 218.987 222.754 218.335 219.594 213.704C217.232 209.529 220.226 204.557 223.955 202.402Z" fill="#4D3640"/>
<path d="M111.642 206.225C114.004 205.479 116.77 205.241 118.997 206.577C120.106 208.348 120.603 210.43 121.618 212.284C123.587 214.025 126.374 214.398 128.611 215.765C131.16 218.241 129.617 223.783 125.928 224.156C121.608 224 118.2 220.996 114.429 219.277C111.642 217.878 107.819 220.24 105.488 218.023C103.26 213.3 106.804 207.488 111.642 206.225Z" fill="#4D3640"/>
<path d="M177.967 213.383C181.448 211.031 187.374 212.709 188.1 217.133C187.892 219.339 187.125 221.431 186.483 223.545C188.732 224.943 191.953 225.803 192.689 228.724C193.393 231.552 191.114 234.701 188.1 234.38C184.888 234.152 182.329 235.861 179.76 237.477C174.59 239 170.923 234.38 166.748 232.329C163.629 231.086 161.733 226.901 163.732 223.98C166.665 221.711 170.674 221.649 173.792 219.702C175.056 217.537 175.46 214.543 177.967 213.383Z" fill="#4D3640"/>
<path d="M146.317 183.775C146.887 181.559 147.736 178.565 150.741 179.663C152.927 181.735 155.082 183.848 157.568 185.588C159.588 188.551 156.936 192.404 153.973 193.45C151.849 194.155 150.368 192.249 148.741 191.337C146.928 190.094 144.462 190.312 142.733 188.996C141.738 187.577 142.453 185.775 142.463 184.211C143.737 184.065 145.022 183.92 146.317 183.775Z" fill="#745F68"/>
<path d="M191.259 187.266C194.564 185.195 198.801 185.671 202.447 186.438C206.001 187.391 209.989 189.193 211.367 192.892C212.58 199.49 208.943 206.534 212.165 212.853C210.922 212.065 209.202 211.527 208.809 209.942C207.773 205.239 209.783 200.381 208.632 195.709C206.581 192.228 202.199 191.037 198.417 190.861C196.48 190.902 193.963 190.83 192.75 192.632C192.357 194.414 192.896 196.465 192.108 198.133C189.373 199.013 184.369 197.791 184.172 201.893C183.323 207.176 189.28 208.575 192.968 210.222C193.32 213.464 192.854 217.089 194.667 219.99C196.563 220.632 198.625 220.435 200.604 220.684C204.095 220.384 205.504 224.786 208.861 224.983C211.886 225.294 215.408 224.051 216.734 221.129C217.2 219.027 216.527 216.862 216.372 214.769C219.49 216.603 222.629 219.565 221.966 223.564C221.023 228.826 214.507 231.012 209.834 229.748C206.913 229.303 205.669 226.33 203.608 224.6C200.313 223.222 196.294 225.677 193.217 223.626C189.995 220.322 191.621 215.308 190.772 211.299C188.078 208.554 183.323 208.999 180.857 205.881C178.775 203.147 178.423 198.319 181.531 196.206C184.183 195.067 187.363 196.724 189.974 195.419C191.021 192.809 188.493 189.183 191.259 187.266Z" fill="#745F68"/>
<path d="M136.745 196.164C140.62 194.279 144.308 196.579 147.323 198.889C150.493 201.437 154.481 199.728 157.651 198.163C162.427 195.605 168.778 198.443 170.964 203.167C172.342 206.73 167.245 209.341 168.903 213.008C169.099 215.069 171.441 217.649 169.389 219.326C164.603 220.601 158.864 218.788 154.771 222.31C151.228 225.739 147.395 229.292 142.37 230.245C138.185 231.125 133.803 227.769 133.409 223.564C132.798 219.42 138.144 217.255 137.646 213.205C136.227 209.102 130.425 208.885 129.058 204.783C129.006 200.473 133.098 197.552 136.745 196.164Z" fill="#745F68"/>
<path d="M107.612 225.906C109.819 222.871 114.657 222.498 117.765 224.384C117.34 225.916 116.926 227.45 116.532 229.004C119.153 229.014 122.168 227.802 124.561 229.128C127.182 232.536 124.841 238.119 120.717 239.051C115.765 240.274 110.057 239.321 106.006 236.161C103.188 234.007 107.374 232.277 108.607 230.702C108.379 229.066 107.861 227.512 107.612 225.906Z" fill="#745F68"/>
<path d="M226.453 228.588C227.261 225.335 231.416 225.159 234.016 226.143C236.44 226.889 237.051 229.614 238.45 231.447C240.336 232.804 241.91 230.028 243.516 229.323C245.194 229.572 246.904 229.748 248.592 230.049C252.291 231.364 255.875 237.465 251.089 239.745C247.473 242.251 245.577 237.745 244.096 235.249C241.309 237.041 238.232 239.164 234.741 238.398C229.975 238.035 225.386 233.56 226.453 228.588Z" fill="#745F68"/>
<path fill-rule="evenodd" clip-rule="evenodd" d="M81.8632 150.649C76.8656 151.702 70.7879 155.329 70.9975 157.134C71.1077 158.084 71.9433 157.843 74.1496 156.225C79.7289 152.132 86.4888 150.995 91.5577 153.298C95.8762 155.261 98.8779 158.848 103.418 167.474C105.562 171.547 106.326 172.753 107.195 173.433L107.708 173.836L107.349 174.294C106.827 174.959 106.836 176.331 107.365 176.531C107.826 176.705 108.286 176.485 108.493 175.992C108.664 175.583 109.065 175.041 109.197 175.041C109.245 175.041 109.44 175.406 109.631 175.852C110.026 176.771 110.746 177.476 112.362 178.524C115.043 180.264 116.248 179.379 115.847 175.966C115.259 170.976 113.239 169.869 109.412 172.441C108.192 173.261 108.323 173.341 107.577 171.325C106.494 168.395 102.833 161.79 100.722 158.959C95.6669 152.176 88.8586 149.176 81.8632 150.649ZM113.18 173.788C113.59 175.053 113.729 176.141 113.452 175.911C113.067 175.591 111.263 174.75 110.702 174.63C109.712 174.417 110.026 173.963 111.689 173.201C112.677 172.749 112.868 172.824 113.18 173.788Z" fill="black"/>
<g clip-path="url(#clip3)">
<path d="M37.0181 125.868C37.8492 125.931 38.5424 126.398 38.1588 127.294C38.6904 127.408 39.3769 127.371 39.6899 127.918C40.4671 129.153 40.5109 130.79 39.9421 132.119C38.8048 130.831 38.0275 129.2 37.9703 127.468C37.5026 127.029 37.1021 126.519 37.0181 125.868Z" fill="#FFEEA8"/>
<path d="M42.4724 123.157C43.095 120.922 44.8078 118.918 47.0286 118.157C48.2299 117.737 49.1519 118.697 49.7306 119.616C49.0981 119.472 48.3746 118.918 47.7924 119.462C46.3387 120.539 45.4875 122.244 44.8952 123.912C44.626 124.882 44.3131 126.143 45.0668 126.972C45.8172 127.368 46.7392 127.207 47.5636 127.321C46.157 127.67 44.525 127.593 43.3877 126.6C42.3749 125.791 42.1157 124.355 42.4724 123.157Z" fill="#D22425"/>
<path d="M33.7105 130.381C33.3807 128.569 33.3741 126.479 34.5955 124.975C35.669 127.734 35.1339 131.703 38.2868 133.197C39.0069 133.646 40.0938 133.999 40.713 133.187C42.0488 131.915 41.3657 129.985 41.0461 128.435C41.7494 129.589 42.1599 131.086 41.5845 132.374C40.7264 134.203 38.3676 135.425 36.4361 134.542C34.8681 133.75 34.1042 131.999 33.7105 130.381Z" fill="#D22425"/>
<path d="M40.8068 127.952C39.6459 127.304 38.8417 126.214 38.0173 125.203C39.1613 125.878 40.08 126.854 40.8068 127.952Z" fill="#D22425"/>
<path d="M37.2941 138.498C38.5189 137.065 40.6355 137.069 42.3449 137.374C44.3268 137.837 46.4468 138.857 47.2679 140.844C44.4245 140.287 41.2076 138.334 38.4584 140.159C37.6743 140.612 37.0754 141.304 36.4866 141.982C36.5303 140.79 36.4461 139.455 37.2941 138.498Z" fill="#D22425"/>
<path d="M25.224 144.918C26.2806 144.23 27.5122 143.519 28.8245 143.898C30.7324 144.435 31.7823 146.391 32.3241 148.156C32.7312 149.888 32.9499 151.958 31.7486 153.441C30.9411 151.371 30.6516 149.089 29.4605 147.176C29.0701 146.502 28.377 146.096 27.7141 145.733C26.9469 145.301 26.0652 145.139 25.224 144.918Z" fill="#D22425"/>
<path d="M46.1971 152.831C46.8634 151.317 48.0142 149.854 49.7068 149.472C51.8233 148.952 53.8187 150.277 55.259 151.693C57.1333 153.673 58.6408 156.455 58.0889 159.254C56.541 158.066 55.7468 156.234 54.4581 154.814C53.1491 153.24 51.3354 151.771 49.1583 151.932C48.0815 151.814 47.0451 152.187 46.1971 152.831Z" fill="#D22425"/>
<path d="M37.9674 161.945C38.4217 161.136 38.1828 160.2 38.1053 159.334C39.2931 160.143 40.3666 161.442 40.1276 162.972C39.8383 164.918 38.1995 166.375 36.5541 167.287C35.1307 167.958 33.3877 168.636 31.8532 167.932C30.5106 167.16 30.6991 165.354 30.938 164.066C30.9717 164.801 31.012 165.542 31.1802 166.264C31.7726 167.002 32.7517 166.563 33.4584 166.261C35.3158 165.281 36.9781 163.811 37.9674 161.945Z" fill="#D22425"/>
<path d="M47.7921 119.463C48.3743 118.919 49.0978 119.473 49.7303 119.617C50.4403 122.285 49.976 125.64 47.5633 127.322C46.739 127.207 45.8169 127.369 45.0665 126.973C44.3128 126.144 44.6258 124.882 44.8949 123.912C45.4871 122.244 46.3385 120.54 47.7921 119.463ZM48.7377 120.449C48.196 120.556 48.0647 121.603 48.6772 121.701C49.2357 121.603 49.3097 120.56 48.7377 120.449ZM47.3143 122.996C46.7356 123.942 46.3957 125.02 46.288 126.124C47.4456 125.674 48.4618 124.791 48.9161 123.62C49.1415 123.07 49.0069 122.463 48.6199 122.026C47.947 121.865 47.6205 122.53 47.3143 122.996Z" fill="#FE8063"/>
<path d="M24.2379 146.804C24.0528 146.073 24.8738 145.506 25.2239 144.919C26.0651 145.14 26.9467 145.301 27.7139 145.734C29.1877 147.805 30.8533 150.164 30.5034 152.838C30.4967 153.382 29.7799 153.583 29.3425 153.432C27.4548 152.865 26.2838 151.174 24.9177 149.882L25.0488 150.476C24.8301 150.147 24.6215 149.815 24.4163 149.486C25.2541 149.58 24.6282 148.482 24.2682 149.241C24.2682 149.063 24.2648 148.704 24.2614 148.523C24.497 147.966 24.5205 147.348 24.2379 146.804ZM25.7891 146.744C25.3955 148.452 25.6848 151.489 28.0335 151.402C28.0335 151.633 28.0403 152.1 28.0403 152.331C28.4778 152.442 28.9119 152.556 29.3458 152.677C29.1541 152.284 28.9959 151.882 28.868 151.472C28.7133 151.435 28.4003 151.365 28.2456 151.328C28.1311 149.539 27.1721 147.861 25.7891 146.744Z" fill="#FE8063"/>
<path d="M34.9651 158.889L35.2309 159.013C35.8332 159.379 36.5903 159.335 37.2162 159.046L37.3979 158.969C37.5729 159.053 37.9262 159.221 38.1012 159.305L38.1045 159.335C38.182 160.201 38.4209 161.137 37.9666 161.946C36.9773 163.812 35.315 165.281 33.4576 166.261C32.751 166.563 31.7718 167.003 31.1795 166.265C31.0112 165.543 30.9709 164.801 30.9373 164.067C31.5328 161.909 32.9327 159.916 34.9651 158.889ZM32.6837 162.382C32.3505 162.919 32.6163 164.12 33.4239 163.771C34.7935 163.05 36.0452 161.848 36.5163 160.342C35.0761 160.54 33.4542 161.046 32.6837 162.382ZM31.9198 164.036C31.7684 164.489 31.7313 164.963 31.8087 165.456C32.4581 165.11 32.9192 164.56 32.9293 163.798C32.6769 163.858 32.1721 163.976 31.9198 164.036Z" fill="#FE8063"/>
<path d="M48.7378 120.448C49.3099 120.559 49.2358 121.602 48.6772 121.7C48.0648 121.602 48.196 120.555 48.7378 120.448Z" fill="#FCE5A2"/>
<path d="M47.314 122.995C47.6203 122.529 47.9467 121.864 48.6197 122.025C49.0066 122.462 49.1412 123.069 48.9158 123.619C48.4615 124.791 47.4453 125.673 46.2877 126.123C46.3954 125.019 46.7353 123.942 47.314 122.995Z" fill="#FEEEA8"/>
<path d="M38.4415 142.163C40.0869 141.848 41.7829 141.922 43.3813 142.442C43.3307 143.103 43.0616 143.841 42.2843 143.898C40.8676 143.982 39.1784 143.469 38.4415 142.163Z" fill="#FEEEA8"/>
<path d="M25.7888 146.743C27.1719 147.861 28.1309 149.539 28.2453 151.327C28.4 151.364 28.713 151.435 28.8678 151.471C28.9957 151.881 29.1538 152.283 29.3457 152.676C28.9116 152.555 28.4775 152.441 28.04 152.33C28.04 152.099 28.0333 151.633 28.0333 151.401C25.6845 151.488 25.3952 148.451 25.7888 146.743Z" fill="#FEEEA8"/>
<path d="M47.9746 154.106C49.8153 154.864 51.565 156.143 52.5576 157.895C52.9581 159.029 51.1949 159.196 50.5252 158.713C49.0178 157.71 48.0016 155.918 47.9746 154.106Z" fill="#FEEEA8"/>
<path d="M32.6842 162.382C33.4547 161.046 35.0766 160.539 36.5168 160.341C36.0457 161.848 34.794 163.049 33.4244 163.771C32.6169 164.12 32.351 162.919 32.6842 162.382Z" fill="#FEEEA8"/>
<path d="M34.5854 124.942C35.4468 124.448 36.426 124.492 37.3682 124.697C36.7289 125.012 35.7329 125.183 35.7295 126.079C35.5612 128.677 36.7726 131.156 38.2868 133.197C35.1339 131.703 35.669 127.734 34.5955 124.975L34.5854 124.942Z" fill="#F92E29"/>
<path d="M37.3678 124.697C37.563 124.841 37.765 124.985 37.9634 125.136L38.0174 125.203C38.8417 126.213 39.646 127.304 40.8069 127.951L40.928 128.025C40.9684 128.156 41.0087 128.294 41.0458 128.435C41.3654 129.985 42.0485 131.915 40.7126 133.186C40.0935 133.999 39.0066 133.646 38.2865 133.197C36.7723 131.156 35.5609 128.676 35.7291 126.079C35.7325 125.183 36.7286 125.012 37.3678 124.697ZM37.0179 125.868C37.1021 126.519 37.5025 127.029 37.9702 127.468C38.0274 129.2 38.8048 130.831 39.9421 132.119C40.5107 130.79 40.467 129.153 39.6897 127.918C39.3767 127.371 38.6903 127.408 38.1586 127.294C38.5423 126.398 37.849 125.931 37.0179 125.868Z" fill="#FF8063"/>
<path d="M38.4584 140.16C40.935 140.015 43.7043 139.838 45.8478 141.311C46.7967 141.982 45.8276 142.945 45.4407 143.653L45.3801 143.75C43.4149 144.891 40.9687 145.307 38.7747 144.643C37.5701 144.237 36.9273 143.086 36.4866 141.982C37.0754 141.304 37.6743 140.613 38.4584 140.16ZM38.4415 142.163C39.1785 143.468 40.8677 143.982 42.2843 143.898C43.0616 143.841 43.3309 143.103 43.3813 142.442C41.7829 141.921 40.087 141.848 38.4415 142.163ZM44.0947 142.264C43.6169 142.348 43.4453 142.65 43.5798 143.166C44.1552 143.388 44.734 143.187 45.1714 142.787C45.121 142.153 44.5893 142.119 44.0947 142.264Z" fill="#FF8063"/>
<path d="M46.198 152.831C47.0459 152.187 48.0823 151.814 49.1591 151.932C51.952 153.22 54.4858 155.284 55.9226 158.036C56.286 158.764 56.6393 160.076 55.64 160.465C54.3983 160.804 53.0894 160.449 51.9048 160.053C50.1483 159.408 48.4356 158.455 47.2377 156.989C46.3696 155.928 46.3022 154.499 46.0499 153.21C46.0768 153.073 46.1273 152.945 46.198 152.831ZM47.9746 154.106C48.0016 155.918 49.0177 157.71 50.5252 158.714C51.1949 159.197 52.9581 159.029 52.5577 157.895C51.565 156.143 49.8153 154.865 47.9746 154.106ZM52.8606 159.499C53.4393 160.026 54.2233 159.814 54.7887 159.395C54.3343 159.029 53.8801 158.653 53.3619 158.388C52.7494 158.442 52.6283 159.012 52.8606 159.499Z" fill="#FF8063"/>
<path d="M38.458 140.16C41.2072 138.334 44.424 140.287 47.2674 140.844C47.2203 142.066 46.4565 143.039 45.4403 143.653C45.8272 142.945 46.7963 141.982 45.8474 141.311C43.7039 139.838 40.9346 140.015 38.458 140.16Z" fill="#F9312C"/>
<path d="M44.0948 142.264C44.5895 142.12 45.1211 142.153 45.1716 142.787C44.7342 143.187 44.1554 143.388 43.5801 143.167C43.4454 142.65 43.617 142.348 44.0948 142.264Z" fill="#FCDB9C"/>
<path d="M27.7141 145.733C28.3769 146.096 29.0702 146.502 29.4605 147.176C30.6517 149.089 30.9411 151.371 31.7487 153.441L31.7789 153.535C29.1542 154.75 26.4657 152.535 25.049 150.475L24.9178 149.881C26.284 151.173 27.455 152.864 29.3427 153.431C29.7802 153.582 30.4969 153.381 30.5036 152.837C30.8535 150.163 29.1879 147.804 27.7141 145.733Z" fill="#F93D36"/>
<path d="M24.238 146.804C24.5206 147.348 24.497 147.965 24.2615 148.523C23.851 148.076 23.8409 147.257 24.238 146.804Z" fill="#F73831"/>
<path d="M24.2686 149.241C24.6286 148.482 25.2544 149.58 24.4166 149.486L24.2686 149.241Z" fill="#F83E34"/>
<path d="M49.1592 151.932C51.3363 151.771 53.15 153.241 54.4591 154.815C55.7478 156.234 56.5419 158.066 58.0898 159.254C57.474 160.338 56.3097 160.972 55.0648 160.962C52.0868 161.006 49.0718 159.701 47.0865 157.486C46.0265 156.338 45.7371 154.707 46.0501 153.211C46.3024 154.499 46.3697 155.929 47.2378 156.989C48.4357 158.456 50.1485 159.409 51.905 160.053C53.0895 160.449 54.3985 160.805 55.6401 160.466C56.6396 160.076 56.2862 158.764 55.9228 158.036C54.4859 155.284 51.9521 153.221 49.1592 151.932Z" fill="#FE2724"/>
<path d="M52.8598 159.498C52.6277 159.012 52.7488 158.441 53.3612 158.388C53.8794 158.653 54.3337 159.029 54.7879 159.394C54.2227 159.814 53.4386 160.025 52.8598 159.498Z" fill="#FDEEA8"/>
<path d="M35.2308 159.012C35.7996 158.656 36.6509 158.687 37.2162 159.046C36.5903 159.334 35.8332 159.378 35.2308 159.012Z" fill="#F83E37"/>
<path d="M63.2579 169.764C63.9175 169.334 64.8126 169.264 65.5293 169.596C66.2359 170.092 66.5993 170.958 67.343 171.428C68.0194 171.878 68.9111 172.086 69.3688 172.811C70.0249 173.804 69.8667 175.039 70.0484 176.163C70.6979 175.596 71.2531 174.737 72.202 174.686C73.2822 174.582 74.3455 175.096 74.9646 175.978C75.8799 177.213 77.7979 177.643 78.0536 179.341C78.4002 181.475 77.8686 183.623 77.4682 185.717C53.2035 185.515 28.9355 185.451 4.67087 185.233C3.40565 183.368 2.44664 180.874 3.57726 178.72C4.6204 176.606 7.41667 175.821 9.48611 176.864C10.7412 175.552 12.5146 174.71 14.3552 174.824C15.5497 174.962 16.7544 174.227 17.9052 174.78C19.1536 175.247 19.8367 176.649 19.5439 177.935C20.614 176.817 22.4378 176.552 23.7636 177.368C24.4836 177.79 24.7158 178.713 25.4561 179.106C26.7886 179.894 28.3702 179.982 29.8306 180.391C30.8502 180.659 31.5333 181.509 32.1457 182.307C33.7911 182.069 35.5745 181.861 36.9037 180.767C38.3439 179.626 38.3742 177.388 40.0735 176.495C41.0897 175.804 42.5198 176.049 43.3779 175.109C44.9661 173.619 47.6648 173.831 49.1353 175.391C49.3237 172.569 52.6382 171.431 55.0576 171.811C56.2858 171.968 57.4097 173.344 58.6514 172.542C59.7181 172.019 60.8823 171.777 62.0163 171.455C62.7465 171.186 62.7634 170.264 63.2579 169.764ZM63.3353 171.76C62.8542 172.086 62.1172 172.24 61.9692 172.888C61.5822 174.166 63.3824 175.713 64.4492 174.656C65.1389 174.096 66.0307 173.958 66.8484 173.68C67.3027 173.217 67.0334 172.579 66.9022 172.049C66.4648 172.045 66.024 172.045 65.5865 172.045C65.5394 171.596 65.4923 171.149 65.4485 170.703C64.4929 170.415 63.7156 170.894 63.3353 171.76ZM51.6085 173.948C51.2182 175.217 51.8911 176.589 51.5513 177.881C51.0298 178.831 49.4819 178.858 49.2867 180.052C48.9939 181.233 50.3534 182.022 51.3831 181.921C52.268 181.965 52.7357 181.116 53.4121 180.71C54.0616 180.676 54.7144 180.733 55.3672 180.673C56.0503 179.968 55.818 178.901 55.8349 178.019C56.8377 177.475 58.6076 177.173 58.3553 175.649C58.3148 174.441 56.8578 174.797 56.0537 174.737C55.9729 174.119 56.4036 173.116 55.6128 172.848C54.2567 172.408 52.47 172.743 51.6085 173.948ZM63.6348 175.498C62.6389 174.962 61.3232 174.834 60.4987 175.75C59.7181 176.358 60.4146 177.28 60.5627 178.012C60.5424 178.586 60.4179 179.156 60.2834 179.717C61.4376 179.858 62.8273 179.562 63.7392 180.465C64.5467 181.146 65.4048 181.952 66.5287 181.982C67.5988 182.042 68.6386 180.676 67.8814 179.754C67.6627 179.243 66.9931 178.774 67.3363 178.176C67.8679 177.623 68.6452 177.327 69.0759 176.686C69.086 175.66 68.0732 174.985 67.1782 174.753C65.8591 174.301 64.9472 176.237 63.6348 175.498ZM45.4305 175.18C44.4244 175.435 44.0105 176.468 43.3644 177.17C42.254 177.23 40.595 176.67 40.0803 178.029C39.8985 179.941 42.153 181.509 43.9466 181.2C45.242 181.109 45.0436 179.196 46.3054 179.129C47.3384 178.878 48.7248 178.592 49.0142 177.384C49.1387 175.616 46.9145 174.653 45.4305 175.18ZM13.1573 176.374C13.0294 177.418 14.022 177.233 14.5941 176.797C15.0282 177.106 15.4556 177.549 16.0444 177.465C16.8318 177.566 17.9422 176.559 17.1817 175.858C16.5558 175.515 15.9737 176.015 15.4556 176.311C14.8565 175.529 13.7394 175.599 13.1573 176.374ZM71.1555 177.16C70.8594 178.032 70.1662 178.562 69.325 178.871C68.4501 179.217 68.9481 180.794 69.8566 180.68C70.9436 180.542 71.7747 179.602 72.9053 179.619C73.3394 179.492 74.2412 179.747 74.2142 179.035C74.5373 177.458 72.3063 176.146 71.1555 177.16ZM10.7648 177.552C10.0649 177.868 9.35151 178.576 8.54056 178.136C7.49069 177.646 6.12452 177.384 5.29002 178.401C4.58674 178.958 5.19916 179.76 5.3203 180.441C5.54576 181.042 4.8694 181.743 5.29339 182.29C6.18173 182.462 7.13738 182.324 7.98197 182.676C8.97127 183.29 9.72839 184.321 10.9297 184.552C11.8651 184.821 12.9789 184.049 12.9655 183.059C12.8813 182.317 12.1343 181.824 12.0704 181.086C12.316 180.163 13.7966 180.045 13.9144 179.045C13.5712 177.817 11.9425 176.894 10.7648 177.552ZM56.8915 178.515C56.2084 179.002 56.666 179.891 56.7064 180.562C56.3026 180.928 55.4917 181.119 55.4917 181.77C55.4008 183.066 57.1102 182.72 57.901 183.247C59.0484 183.948 60.1623 182.921 61.1111 182.351C61.7438 182.056 62.1476 181.136 61.6193 180.576C60.8218 180.133 59.6945 180.116 59.2806 179.18C58.8836 178.264 57.7024 177.857 56.8915 178.515ZM16.1992 178.834C15.7551 179.542 14.9844 179.881 14.3586 180.391C13.7495 181.525 14.87 182.858 16.0545 182.884C16.9092 182.391 17.71 181.784 18.7162 181.633C19.6281 181.556 19.3791 180.455 19.1906 179.864C18.7464 179.874 18.3022 179.888 17.8581 179.905C17.8379 179.468 17.8177 179.035 17.7975 178.602C17.2659 178.566 16.529 178.213 16.1992 178.834ZM20.937 178.878C20.466 179.415 20.9404 180.089 21.0379 180.68C20.6914 180.891 20.3347 181.092 20.0116 181.347C19.4766 181.774 19.6887 182.854 20.4255 182.905C21.6369 182.975 22.8449 184.186 24.0092 183.337C24.8975 182.76 26.5329 182.2 25.9979 180.834C25.2071 180.257 23.9117 180.361 23.5012 179.344C23.1747 178.277 21.6168 178.005 20.937 178.878ZM71.6198 180.455C71.6198 180.864 71.6198 181.277 71.6232 181.693C71.0781 181.72 70.4321 181.381 69.9509 181.747C69.4898 182.529 69.9912 183.629 70.8796 183.807C72.1078 184.096 73.5042 183.78 74.3589 182.817C74.0292 182.559 73.6994 182.304 73.3696 182.052C73.4605 181.784 73.6422 181.243 73.733 180.972C73.1038 180.555 72.3601 180.468 71.6198 180.455ZM45.6525 182.307C45.0468 182.056 44.4109 181.455 43.7278 181.831C43.1154 182.102 42.4727 182.673 42.5501 183.411C42.7688 183.958 43.4015 183.995 43.8927 184.129C44.1081 183.757 44.3301 183.391 44.5489 183.029C45.353 183.535 46.3996 184.009 47.3047 183.441C48.1191 183.086 48.9099 181.71 47.9441 181.103C46.9312 180.596 46.0328 181.428 45.6525 182.307ZM28.1851 182.589C27.7006 182.592 27.1554 182.418 26.7314 182.737C26.4084 183.475 27.105 184.113 27.8217 184.076C29.2047 184.156 30.6045 184.304 31.8193 185.032C33.2898 183.905 31.4761 182.153 30.1368 182.166C29.4941 182.341 28.875 182.717 28.1851 182.589Z" fill="#060A0B"/>
<path d="M63.3351 171.76C63.7154 170.895 64.4927 170.415 65.4483 170.703C65.4921 171.15 65.5392 171.596 65.5863 172.046C66.0238 172.046 66.4646 172.046 66.902 172.049C67.0332 172.579 67.3025 173.217 66.8482 173.68C66.0305 173.958 65.1387 174.096 64.449 174.656C63.3822 175.713 61.582 174.166 61.969 172.888C62.117 172.24 62.854 172.086 63.3351 171.76Z" fill="#4D3640"/>
<path d="M45.4302 175.18C46.9141 174.653 49.1383 175.616 49.0138 177.384C48.7244 178.592 47.3381 178.878 46.305 179.129C45.0432 179.196 45.2417 181.109 43.9462 181.2C42.1527 181.508 39.8982 179.941 40.0799 178.029C40.5947 176.67 42.2536 177.23 43.3641 177.17C44.0101 176.468 44.424 175.435 45.4302 175.18Z" fill="#4D3640"/>
<path d="M71.1553 177.16C72.3061 176.146 74.5371 177.458 74.214 179.035C74.241 179.747 73.3392 179.492 72.9051 179.619C71.7745 179.603 70.9433 180.542 69.8564 180.68C68.9478 180.794 68.4499 179.217 69.3247 178.871C70.166 178.562 70.8592 178.032 71.1553 177.16Z" fill="#4D3640"/>
<path d="M10.7648 177.553C11.9425 176.895 13.5712 177.818 13.9144 179.046C13.7966 180.046 12.3161 180.164 12.0704 181.087C12.1343 181.825 12.8814 182.318 12.9655 183.06C12.979 184.05 11.8652 184.821 10.9297 184.553C9.72841 184.321 8.97131 183.291 7.98201 182.677C7.13741 182.325 6.18177 182.462 5.29342 182.291C4.86944 181.744 5.54579 181.043 5.32034 180.442C5.1992 179.761 4.58677 178.959 5.29005 178.402C6.12456 177.385 7.49072 177.647 8.54059 178.137C9.35154 178.576 10.0649 177.868 10.7648 177.553Z" fill="#4D3640"/>
<path d="M56.8917 178.516C57.7026 177.858 58.8837 178.264 59.2807 179.18C59.6947 180.116 60.8219 180.133 61.6195 180.576C62.1477 181.136 61.744 182.056 61.1113 182.351C60.1624 182.922 59.0486 183.948 57.9011 183.247C57.1104 182.72 55.4009 183.066 55.4919 181.771C55.4919 181.12 56.3028 180.928 56.7066 180.563C56.6663 179.891 56.2086 179.002 56.8917 178.516Z" fill="#4D3640"/>
<path d="M16.1986 178.834C16.5284 178.213 17.2653 178.566 17.7969 178.603C17.8172 179.035 17.8374 179.468 17.8575 179.905C18.3017 179.888 18.7459 179.874 19.19 179.864C19.3785 180.455 19.6275 181.556 18.7156 181.633C17.7095 181.784 16.9086 182.391 16.0539 182.884C14.8695 182.858 13.7489 181.525 14.358 180.391C14.9839 179.881 15.7544 179.542 16.1986 178.834Z" fill="#4D3640"/>
<path d="M28.1853 182.59C28.8752 182.717 29.4943 182.341 30.137 182.167C31.4763 182.153 33.29 183.905 31.8194 185.032C30.6047 184.304 29.205 184.157 27.8219 184.076C27.1052 184.113 26.4087 183.475 26.7316 182.737C27.1556 182.418 27.7007 182.593 28.1853 182.59Z" fill="#4D3640"/>
<path d="M51.6081 173.948C52.4695 172.743 54.2562 172.408 55.6124 172.847C56.4031 173.116 55.9724 174.119 56.0532 174.737C56.8573 174.797 58.3144 174.441 58.3548 175.649C58.6071 177.173 56.8372 177.475 55.8344 178.019C55.8176 178.901 56.0498 179.968 55.3667 180.673C54.7139 180.733 54.0612 180.676 53.4116 180.71C52.7353 181.116 52.2676 181.965 51.3826 181.921C50.353 182.022 48.9935 181.233 49.2862 180.052C49.4814 178.858 51.0293 178.831 51.5509 177.881C51.8907 176.589 51.2178 175.217 51.6081 173.948Z" fill="#745F68"/>
<path d="M63.635 175.499C64.9473 176.237 65.8592 174.301 67.1782 174.754C68.0733 174.985 69.0862 175.66 69.0761 176.687C68.6454 177.328 67.8681 177.623 67.3364 178.177C66.9932 178.774 67.6628 179.244 67.8816 179.754C68.6386 180.677 67.5988 182.042 66.5288 181.982C65.405 181.952 64.5469 181.147 63.7393 180.465C62.8274 179.563 61.4376 179.858 60.2835 179.717C60.4181 179.157 60.5426 178.586 60.5628 178.012C60.4147 177.281 59.7182 176.358 60.4989 175.751C61.3232 174.834 62.6389 174.962 63.635 175.499Z" fill="#745F68"/>
<path d="M13.1575 176.374C13.7396 175.599 14.8568 175.528 15.4558 176.31C15.9739 176.015 16.5561 175.515 17.1819 175.857C17.9425 176.559 16.832 177.565 16.0446 177.465C15.4558 177.548 15.0284 177.105 14.5943 176.797C14.0222 177.233 13.0296 177.418 13.1575 176.374Z" fill="#745F68"/>
<path d="M20.9364 178.878C21.6161 178.006 23.1741 178.278 23.5005 179.345C23.911 180.361 25.2065 180.257 25.9972 180.835C26.5323 182.2 24.897 182.761 24.0086 183.338C22.8444 184.187 21.6363 182.976 20.425 182.905C19.688 182.855 19.476 181.774 20.011 181.348C20.3341 181.093 20.6907 180.892 21.0373 180.68C20.9398 180.09 20.4653 179.415 20.9364 178.878Z" fill="#745F68"/>
<path d="M71.62 180.456C72.3602 180.469 73.1039 180.556 73.7331 180.972C73.6422 181.244 73.4605 181.784 73.3697 182.053C73.6994 182.305 74.0292 182.56 74.359 182.818C73.5042 183.781 72.1079 184.097 70.8797 183.808C69.9913 183.63 69.4899 182.529 69.9509 181.747C70.4321 181.382 71.0782 181.721 71.6232 181.694C71.62 181.278 71.62 180.865 71.62 180.456Z" fill="#745F68"/>
<path d="M45.6518 182.308C46.0321 181.428 46.9305 180.596 47.9434 181.103C48.9091 181.71 48.1183 183.086 47.3041 183.442C46.3989 184.009 45.3524 183.536 44.5481 183.029C44.3294 183.392 44.1073 183.757 43.892 184.13C43.4007 183.996 42.7681 183.959 42.5493 183.412C42.472 182.673 43.1147 182.103 43.7271 181.831C44.4101 181.455 45.0461 182.056 45.6518 182.308Z" fill="#745F68"/>
<path d="M31.9201 164.036C32.1724 163.975 32.6772 163.858 32.9296 163.798C32.9194 164.559 32.4585 165.11 31.809 165.455C31.7317 164.962 31.7686 164.489 31.9201 164.036Z" fill="#FDE7A4"/>
</g>
<path fill-rule="evenodd" clip-rule="evenodd" d="M316.859 201.1C314.622 201.398 310.477 203.541 310.477 204.4C310.477 204.517 310.267 204.613 310.011 204.613C309.327 204.613 309.058 204.993 309.058 205.959C309.058 207.046 309.293 207.237 312.399 208.673L314.785 209.776L314.665 211.307C314.333 215.546 310.74 222.213 306.431 226.584C303.529 229.529 301.628 230.399 298.117 230.394C295.553 230.39 292.849 229.763 292.849 229.171C292.849 228.741 292.328 228.168 291.937 228.168C290.848 228.168 290.65 230.392 291.651 231.373C293.319 233.007 299.026 233.535 302.489 232.376C308.799 230.263 317.431 217.95 317.129 211.493L317.062 210.064L317.67 210.187C318.923 210.443 319.066 210.416 319.22 209.893C319.302 209.613 319.647 208.49 319.988 207.395C321.083 203.878 320.795 201.964 319.061 201.238C318.402 200.962 318.057 200.94 316.859 201.1ZM317.833 205.984C317.769 207.184 317.698 208.189 317.677 208.216C317.656 208.243 317.053 207.81 316.337 207.253C315.621 206.697 314.872 206.24 314.671 206.239C314.3 206.238 313.111 205.694 313.111 205.526C313.111 205.225 316.748 203.873 317.709 203.815C317.89 203.804 317.921 204.358 317.833 205.984Z" fill="black"/>
</g>
</g>
<defs>
<clipPath id="clip0">
<rect width="356" height="250" fill="white"/>
</clipPath>
<clipPath id="clip1">
<rect width="369" height="251" fill="white" transform="translate(-16 -3)"/>
</clipPath>
<clipPath id="clip2">
<rect width="81.3311" height="126.515" fill="white" transform="translate(277.05 69.8869)"/>
</clipPath>
<clipPath id="clip3">
<rect width="74.8763" height="73.5853" fill="white" transform="translate(3.3645 112.489)"/>
</clipPath>
</defs>
</svg>
